<svg xmlns="http://www.w3.org/2000/svg" xmlns:xlink="http://www.w3.org/1999/xlink" viewBox="0 0 500 500"><defs><clipPath id="freepik--clip-path--inject-9"><path d="M386.55,139.74C348.48,114,299.08,102.18,255,104c-97,4-138,51-129,68s-4,26-45,55S30,369,158,397s254,8,273-19-34-70-31-85,60-28,44-79C434.08,182.39,413.06,157.68,386.55,139.74Z" style="fill:none"></path></clipPath><clipPath id="freepik--clip-path-2--inject-9"><path d="M150.81,234.9s0,.33-.1.87c-.33,2.89-1.35,12.1-1.17,12.28s4.24-4.46,9.11-2.34a37.72,37.72,0,0,0,16.74,3.61c7.42,0,12.51-2.55,15.9-2.55a37.78,37.78,0,0,1,8.05,1.28s-4.87-5.73-6.14-8.48a42.09,42.09,0,0,1-1.91-4.88s-18.23,0-27.55.43S150.81,234.9,150.81,234.9Z" style="fill:#fff;stroke:#263238;stroke-linecap:round;stroke-linejoin:round"></path></clipPath><clipPath id="freepik--clip-path-3--inject-9"><path d="M187.26,178.53s10-.42,11.66.63,2.12,7.42,3.81,12.09a62.57,62.57,0,0,1,2.55,10s2.54-.85,3.6,6.14-1.06,11.66-3,14.41-4.87,4.67-12.5.85c0,0,1.91,4,1.91,5.94s-2.76,4-2.76,4a261.46,261.46,0,0,1-26.28,1.91c-13.35.21-15.68-1.06-16.32-3s-1.06-31.58-.42-39.63,6.36-14,10.6-15.47S187.26,178.53,187.26,178.53Z" style="fill:#fff;stroke:#263238;stroke-linecap:round;stroke-linejoin:round"></path></clipPath></defs><g id="freepik--background-simple--inject-9"><path d="M386.55,139.74C348.48,114,299.08,102.18,255,104c-97,4-138,51-129,68s-4,26-45,55S30,369,158,397s254,8,273-19-34-70-31-85,60-28,44-79C434.08,182.39,413.06,157.68,386.55,139.74Z" style="fill:#92E3A9"></path><path d="M386.55,139.74C348.48,114,299.08,102.18,255,104c-97,4-138,51-129,68s-4,26-45,55S30,369,158,397s254,8,273-19-34-70-31-85,60-28,44-79C434.08,182.39,413.06,157.68,386.55,139.74Z" style="fill:#fff;opacity:0.8"></path></g><g id="freepik--Mountains--inject-9"><path d="M399.89,294.11A6.52,6.52,0,0,1,400,293c.67-3.34,4-6.59,8.66-10.18-15.12-7.51-33.87-16.69-38.42-18.31-7.92-2.83-30.52,11.3-36.17,13.56s-20.92,5.65-27.13,2.26-54.26-35-65-36.74-44.08,19.22-49.17,19.79-36.17-9.61-50.3-11.31c-9.48-1.14-57.3,31.47-87.76,53.06a97,97,0,0,0,25.2,51.33c7.48-1.89,13.32-3.65,15.09-4.35,5.65-2.26,21.48-7.35,26.56-10.74s139.6-26,144.12-27.69-9-7.92-6.22-11.31C261.54,299.88,352,296,399.89,294.11Z" style="fill:#92E3A9"></path><path d="M399.89,294.11A6.52,6.52,0,0,1,400,293c.67-3.34,4-6.59,8.66-10.18-15.12-7.51-33.87-16.69-38.42-18.31-7.92-2.83-30.52,11.3-36.17,13.56s-20.92,5.65-27.13,2.26-54.26-35-65-36.74-44.08,19.22-49.17,19.79-36.17-9.61-50.3-11.31c-9.48-1.14-57.3,31.47-87.76,53.06a97,97,0,0,0,25.2,51.33c7.48-1.89,13.32-3.65,15.09-4.35,5.65-2.26,21.48-7.35,26.56-10.74s139.6-26,144.12-27.69-9-7.92-6.22-11.31C261.54,299.88,352,296,399.89,294.11Z" style="fill:#fff;opacity:0.6000000000000001"></path><path d="M414.87,278.22c-7.7-2.91-13.37-4.82-14.68-4.67-5.09.56-73.91,21.15-73.91,21.15s-48.17,4.28-57.77,7.67.56,1.7,10.17,9.61-49.74,15.82-62.17,20.35,25.43,13,46.34,22-89.29,11.87-89.29,11.87l-3.65,33.23C293.72,423.75,412.59,404.16,431,378c19-27-34-70-31-85C400.94,288.29,407.21,283.78,414.87,278.22Z" style="fill:#92E3A9"></path><path d="M414.87,278.22c-7.7-2.91-13.37-4.82-14.68-4.67-5.09.56-73.91,21.15-73.91,21.15s-48.17,4.28-57.77,7.67.56,1.7,10.17,9.61-49.74,15.82-62.17,20.35,25.43,13,46.34,22-89.29,11.87-89.29,11.87l-3.65,33.23C293.72,423.75,412.59,404.16,431,378c19-27-34-70-31-85C400.94,288.29,407.21,283.78,414.87,278.22Z" style="fill:#fff;opacity:0.5"></path><path d="M324.57,379.83c11.5-10.64-73.2-39.16-78.74-45.12s52.36-17.45,61.72-21.71-17.45-8.08-14.47-11.06,33.2-7.24,33.2-7.24-90.23,1.7-97,7.66S250.52,310,242.43,313s-90.23,7.66-94.49,11.92-5.11,6-11.92,6.81c-6.27.79-39.32,3.38-65.45,13.12C86.3,367.7,114,387.37,158,397c13.23,2.89,26.43,5.27,39.5,7.18,21-2.21,41.92-5.18,62.73-8.73,14.24-2.43,28.51-4.94,42.58-8.26C309.23,385.68,319.47,384.55,324.57,379.83Z" style="fill:#fff"></path></g><g id="freepik--Clouds--inject-9"><path d="M323.85,189.67c.67-.22-2.06-8.17-2.3-8.92-1.68-5.14-5.87-10.19-11.71-10.08s-12.58,8.24-18.41,4.93c-4.82-2.73-7.41-8-12.69-10.16-10-4-10,6.62-17.32,8.3-5.6,1.3-7.32-3.44-12.49.43s-1.72,5.6-7.31,6.46-6.46-.43-9.91.86-9.47,7.75-9.47,7.75-4.74-1.72-9,0a13.5,13.5,0,0,0-6,4.31H329S327.72,188.81,323.85,189.67Z" style="fill:#92E3A9"></path><path d="M246.37,225.9c.21-.07-.64-2.56-.72-2.8-.53-1.61-1.84-3.2-3.67-3.16s-3.95,2.58-5.78,1.54c-1.51-.85-2.32-2.51-4-3.18-3.14-1.27-3.14,2.07-5.44,2.6-1.75.41-2.29-1.08-3.91.14s-.54,1.75-2.3,2-2-.13-3.11.27a12.82,12.82,0,0,0-3,2.44,4.47,4.47,0,0,0-2.84,0,4.22,4.22,0,0,0-1.89,1.35H248S247.59,225.63,246.37,225.9Z" style="fill:#92E3A9"></path><path d="M333.83,261.85c.21-.07-.65-2.56-.72-2.79-.53-1.62-1.85-3.2-3.68-3.17s-3.94,2.59-5.77,1.55c-1.52-.86-2.33-2.52-4-3.19-3.13-1.26-3.13,2.08-5.43,2.61-1.76.4-2.3-1.08-3.92.13s-.54,1.76-2.29,2-2-.14-3.11.27a12.6,12.6,0,0,0-3,2.43,4.48,4.48,0,0,0-2.84,0,4.22,4.22,0,0,0-1.89,1.35h38.23S335,261.58,333.83,261.85Z" style="fill:#92E3A9"></path><path d="M398.59,160.22c.32-.11-1-4-1.12-4.35-.82-2.5-2.86-5-5.7-4.9s-6.12,4-9,2.4c-2.35-1.33-3.61-3.91-6.18-5-4.86-2-4.87,3.22-8.43,4-2.72.63-3.56-1.67-6.07.21s-.84,2.73-3.57,3.15-3.14-.21-4.82.42-4.61,3.77-4.61,3.77a6.9,6.9,0,0,0-4.4,0,6.6,6.6,0,0,0-2.93,2.09h59.3S400.47,159.8,398.59,160.22Z" style="fill:#92E3A9"></path><g style="opacity:0.5"><path d="M323.85,189.67c.67-.22-2.06-8.17-2.3-8.92-1.68-5.14-5.87-10.19-11.71-10.08s-12.58,8.24-18.41,4.93c-4.82-2.73-7.41-8-12.69-10.16-10-4-10,6.62-17.32,8.3-5.6,1.3-7.32-3.44-12.49.43s-1.72,5.6-7.31,6.46-6.46-.43-9.91.86-9.47,7.75-9.47,7.75-4.74-1.72-9,0a13.5,13.5,0,0,0-6,4.31H329S327.72,188.81,323.85,189.67Z" style="fill:#fff"></path><path d="M246.37,225.9c.21-.07-.64-2.56-.72-2.8-.53-1.61-1.84-3.2-3.67-3.16s-3.95,2.58-5.78,1.54c-1.51-.85-2.32-2.51-4-3.18-3.14-1.27-3.14,2.07-5.44,2.6-1.75.41-2.29-1.08-3.91.14s-.54,1.75-2.3,2-2-.13-3.11.27a12.82,12.82,0,0,0-3,2.44,4.47,4.47,0,0,0-2.84,0,4.22,4.22,0,0,0-1.89,1.35H248S247.59,225.63,246.37,225.9Z" style="fill:#fff"></path><path d="M333.83,261.85c.21-.07-.65-2.56-.72-2.79-.53-1.62-1.85-3.2-3.68-3.17s-3.94,2.59-5.77,1.55c-1.52-.86-2.33-2.52-4-3.19-3.13-1.26-3.13,2.08-5.43,2.61-1.76.4-2.3-1.08-3.92.13s-.54,1.76-2.29,2-2-.14-3.11.27a12.6,12.6,0,0,0-3,2.43,4.48,4.48,0,0,0-2.84,0,4.22,4.22,0,0,0-1.89,1.35h38.23S335,261.58,333.83,261.85Z" style="fill:#fff"></path><path d="M398.59,160.22c.32-.11-1-4-1.12-4.35-.82-2.5-2.86-5-5.7-4.9s-6.12,4-9,2.4c-2.35-1.33-3.61-3.91-6.18-5-4.86-2-4.87,3.22-8.43,4-2.72.63-3.56-1.67-6.07.21s-.84,2.73-3.57,3.15-3.14-.21-4.82.42-4.61,3.77-4.61,3.77a6.9,6.9,0,0,0-4.4,0,6.6,6.6,0,0,0-2.93,2.09h59.3S400.47,159.8,398.59,160.22Z" style="fill:#fff"></path></g></g><g id="freepik--Birds--inject-9"><path d="M360.71,249.47s-.43-4.95-6.52-1.55C354.19,247.92,361.58,242.24,360.71,249.47Z" style="fill:#92E3A9"></path><path d="M368.1,249.47s-.42-4.95-6.52-1.55C361.58,247.92,369,242.24,368.1,249.47Z" style="fill:#92E3A9"></path><path d="M343.86,257.72s-.25-3-3.92-.94C339.94,256.78,344.39,253.36,343.86,257.72Z" style="fill:#92E3A9"></path><path d="M348.31,257.72s-.25-3-3.92-.94C344.39,256.78,348.83,253.36,348.31,257.72Z" style="fill:#92E3A9"></path><path d="M330.21,234s-.43-4.95-6.52-1.55C323.69,232.46,331.08,226.77,330.21,234Z" style="fill:#92E3A9"></path><path d="M337.6,234s-.42-4.95-6.52-1.55C331.08,232.46,338.47,226.77,337.6,234Z" style="fill:#92E3A9"></path></g><g id="freepik--Plants--inject-9"><g style="clip-path:url(#freepik--clip-path--inject-9)"><path d="M97.41,352.11s-.63-2.3-.65-2.45c-.24-1.75.32-5.27,2.09-6.13a2.33,2.33,0,0,1,3.18,1.41,4.85,4.85,0,0,1-.84,4C100.35,350.26,97.42,352.11,97.41,352.11Z" style="fill:#92E3A9"></path><path d="M132.47,351.35c-1.42.62-4.89.54-4.89.54s.75-2.27.81-2.41c.76-1.59,3.17-4.22,5.12-4a2.34,2.34,0,0,1,1.88,2.93A4.93,4.93,0,0,1,132.47,351.35Z" style="fill:#92E3A9"></path><path d="M127.09,344.32l0,0c.07.55.15,1.15.22,1.8.12,1.21.24,2.58.28,4.08a40.12,40.12,0,0,1-.12,4.84,30.94,30.94,0,0,1-.89,5.35.14.14,0,0,0,0,.06c.31-.49,1.22-1.83,1.3-1.92,1.16-1.33,4.17-3.23,6-2.46a2.33,2.33,0,0,1,1,3.32,4.88,4.88,0,0,1-3.58,2c-1.47.22-4.56-.68-4.81-.75a42.56,42.56,0,0,1-1.87,5.19c-.43,1-.89,2-1.36,2.94l.58-.83c1.15-1.33,4.16-3.23,6-2.46a2.34,2.34,0,0,1,1,3.32,4.89,4.89,0,0,1-3.58,2,15.5,15.5,0,0,1-4.68-.72c-.18.37-.36.75-.55,1.12-.9,1.78-1.8,3.56-2.63,5.32-.29.63-.56,1.25-.83,1.88.26-.37.47-.68.51-.72,1.15-1.33,4.16-3.23,6-2.46a2.34,2.34,0,0,1,1,3.32,4.9,4.9,0,0,1-3.59,2,14.7,14.7,0,0,1-4.54-.68c-.26.65-.52,1.3-.73,1.94-.14.43-.31.85-.42,1.3s-.25.88-.37,1.31c-.2.84-.42,1.71-.59,2.54-.13.58-.24,1.13-.35,1.68.28-.62.86-1.83.92-1.93.94-1.49,3.63-3.82,5.55-3.34a2.35,2.35,0,0,1,1.52,3.13,4.85,4.85,0,0,1-3.23,2.53,15.9,15.9,0,0,1-4.84,0c-.19.92-.36,1.81-.5,2.66-.47,2.66-.78,4.92-1,6.61h-1.33c.24-1.72.61-4.06,1.16-6.83.18-.93.39-1.92.62-2.94a24.81,24.81,0,0,1-2.7-1.27,17.63,17.63,0,0,1-3.93,2.54c.35.86.7,1.7,1,2.49,1.06,2.45,2,4.5,2.81,6h-1.46c-.69-1.48-1.53-3.35-2.43-5.55-.36-.88-.73-1.83-1.1-2.8a16.35,16.35,0,0,1-4.83.37A4.89,4.89,0,0,1,98.39,388a2.33,2.33,0,0,1,1.29-3.23c1.87-.63,4.72,1.49,5.77,2.91.06.09.63,1.07,1,1.69-.15-.4-.3-.78-.45-1.19-.29-.82-.57-1.64-.87-2.52l-.39-1.31c-.14-.43-.23-.91-.35-1.37-.25-1.06-.46-2.16-.64-3.27a15.46,15.46,0,0,1-4.58,1.06,4.89,4.89,0,0,1-3.72-1.75,2.34,2.34,0,0,1,.78-3.39c1.76-.9,4.9.77,6.15,2,.08.08.87,1.07,1.3,1.63-.1-.67-.21-1.34-.29-2-.25-2-.43-3.95-.63-5.93l-.18-1.82c-.26.09-3.26,1.21-4.74,1.11a4.9,4.9,0,0,1-3.72-1.74,2.34,2.34,0,0,1,.78-3.39c1.76-.91,4.9.76,6.15,2,.1.09,1.24,1.52,1.51,1.9-.14-1.34-.29-2.66-.49-4a42.93,42.93,0,0,0-1.14-5.21c-.12,0-3.25,1.23-4.76,1.12a4.87,4.87,0,0,1-3.73-1.74,2.34,2.34,0,0,1,.79-3.39c1.75-.91,4.9.76,6.15,2,.08.08,1,1.17,1.36,1.7l.1-.06A31.68,31.68,0,0,0,98.75,355c-.45-.88-.93-1.69-1.41-2.47a15.72,15.72,0,0,1-4.51,1.58,4.87,4.87,0,0,1-3.89-1.32,2.33,2.33,0,0,1,.4-3.45c1.65-1.1,5,.22,6.34,1.32.07.06.77.75,1.27,1.26-.23-.35-.45-.72-.67-1.05-.83-1.24-1.66-2.33-2.41-3.29-.43-.54-.82-1-1.2-1.46a15.72,15.72,0,0,1-4.71-.68,4.86,4.86,0,0,1-2.84-3,2.34,2.34,0,0,1,1.95-2.88c2-.21,4.3,2.48,5,4.09.07.14.79,2.43.75,2.43h0c.37.42.76.88,1.18,1.38.77.95,1.63,2,2.49,3.25A44.8,44.8,0,0,1,99,354.8a30.63,30.63,0,0,1,2.2,4.95s0,0,0,.06c0-.57,0-2.19,0-2.32.22-1.74,1.69-5,3.63-5.35a2.35,2.35,0,0,1,2.7,2.2,4.92,4.92,0,0,1-1.88,3.66,16.65,16.65,0,0,1-4.43,2,41.13,41.13,0,0,1,1.3,5.36c.19,1.06.35,2.13.49,3.2,0-.5,0-.95,0-1,.22-1.75,1.69-5,3.63-5.35a2.35,2.35,0,0,1,2.7,2.2,4.88,4.88,0,0,1-1.88,3.65,15.52,15.52,0,0,1-4.29,2l.15,1.24c.24,2,.47,4,.75,5.89.1.69.22,1.35.34,2,0-.44,0-.82,0-.87.22-1.75,1.69-5,3.63-5.36a2.35,2.35,0,0,1,2.7,2.2,4.92,4.92,0,0,1-1.88,3.66,15,15,0,0,1-4.17,1.94c.14.68.29,1.36.46,2,.12.45.21.88.37,1.32l.42,1.3c.29.81.59,1.66.9,2.44.21.55.42,1.07.64,1.6-.11-.68-.29-2-.29-2.12a9,9,0,0,1,1.21-4.41,4.41,4.41,0,0,1,0-.52,2.34,2.34,0,0,1,2.86-2c1.91.5,3.12,3.85,3.21,5.61,0,.11-.06,1.24-.12,2,.1-.42.19-.82.29-1.25.2-.84.42-1.68.66-2.58.13-.43.27-.87.4-1.31s.31-.88.46-1.33c.38-1,.81-2.06,1.27-3.08a15.59,15.59,0,0,1-4.4-1.65,4.89,4.89,0,0,1-2.15-3.51,2.34,2.34,0,0,1,2.53-2.39c2,.21,3.66,3.34,4,5.07,0,.1.14,1.37.19,2.07.28-.62.56-1.23.86-1.84.88-1.77,1.82-3.53,2.75-5.29.29-.54.57-1.08.85-1.62a16.3,16.3,0,0,1-4.56-1.69,4.87,4.87,0,0,1-2.15-3.5,2.34,2.34,0,0,1,2.53-2.4c2,.22,3.66,3.34,4,5.07,0,.13.19,1.95.21,2.42.62-1.19,1.22-2.38,1.77-3.58a40.21,40.21,0,0,0,1.93-5,16.31,16.31,0,0,1-4.59-1.69,4.86,4.86,0,0,1-2.14-3.51,2.34,2.34,0,0,1,2.52-2.39c2,.21,3.67,3.34,4,5.07,0,.11.15,1.5.2,2.16l.11,0a29.47,29.47,0,0,0,1-5.28c.11-1,.16-1.92.19-2.84a15.81,15.81,0,0,1-4.63-1.16,4.9,4.9,0,0,1-2.52-3.26,2.33,2.33,0,0,1,2.25-2.65c2,0,4,2.92,4.55,4.59,0,.1.23,1.06.36,1.76,0-.42,0-.85,0-1.24,0-1.5-.09-2.86-.19-4.07-.06-.69-.12-1.31-.19-1.89a15.62,15.62,0,0,1-3.56-3.16,4.87,4.87,0,0,1-.73-4,2.32,2.32,0,0,1,3.21-1.32c1.76.9,2.22,4.43,1.93,6.17C127.78,342,127.12,344.34,127.09,344.32Z" style="fill:#92E3A9"></path><path d="M84.46,347.58s.63-2.3.65-2.45c.24-1.75-.32-5.26-2.09-6.12a2.33,2.33,0,0,0-3.18,1.41,4.85,4.85,0,0,0,.84,4C81.52,345.74,84.45,347.58,84.46,347.58Z" style="fill:#92E3A9"></path><path d="M49.4,346.82c1.42.62,4.89.54,4.89.54s-.75-2.27-.81-2.4c-.76-1.59-3.17-4.22-5.12-4a2.35,2.35,0,0,0-1.88,2.93A4.88,4.88,0,0,0,49.4,346.82Z" style="fill:#92E3A9"></path><path d="M54.78,339.79l0,0c-.07.56-.15,1.16-.22,1.81-.12,1.21-.24,2.58-.28,4.08a40.16,40.16,0,0,0,.12,4.84,30.68,30.68,0,0,0,.89,5.34.14.14,0,0,1,0,.06c-.31-.48-1.22-1.82-1.3-1.91-1.16-1.34-4.17-3.24-6-2.46a2.33,2.33,0,0,0-1,3.32,4.88,4.88,0,0,0,3.58,2,16.55,16.55,0,0,0,4.81-.75,43.17,43.17,0,0,0,1.87,5.19c.43,1,.89,2,1.36,2.94-.28-.42-.54-.79-.58-.83-1.15-1.34-4.16-3.23-6-2.46a2.34,2.34,0,0,0-1,3.32,4.88,4.88,0,0,0,3.59,2,15.83,15.83,0,0,0,4.67-.71c.18.37.36.74.55,1.11.9,1.79,1.8,3.56,2.63,5.33.29.62.56,1.25.83,1.87l-.51-.72c-1.15-1.33-4.16-3.23-6-2.45a2.33,2.33,0,0,0-1,3.31,4.88,4.88,0,0,0,3.59,2,15,15,0,0,0,4.54-.68c.26.64.52,1.29.73,1.93.14.44.31.85.42,1.3s.25.88.37,1.32c.2.84.42,1.71.59,2.54.13.57.24,1.12.35,1.68-.28-.63-.86-1.84-.92-1.93-.94-1.49-3.63-3.83-5.55-3.34A2.33,2.33,0,0,0,58.38,382a4.9,4.9,0,0,0,3.23,2.54,15.83,15.83,0,0,0,4.84,0c.19.92.36,1.82.5,2.66.47,2.66.78,4.93,1,6.61h1.33c-.24-1.71-.61-4.06-1.16-6.82-.18-.94-.39-1.93-.62-2.94a29.68,29.68,0,0,0,2.7-1.27,17.15,17.15,0,0,0,3.93,2.53c-.35.87-.7,1.71-1,2.5-1.06,2.45-2,4.49-2.81,6h1.46c.69-1.47,1.53-3.35,2.43-5.55.36-.88.73-1.82,1.1-2.8a16,16,0,0,0,4.83.38,4.88,4.88,0,0,0,3.41-2.29,2.33,2.33,0,0,0-1.29-3.23c-1.87-.63-4.72,1.5-5.77,2.92-.06.08-.63,1.06-1,1.69l.45-1.2c.3-.81.57-1.63.87-2.52l.39-1.3c.14-.44.23-.91.35-1.37.25-1.07.46-2.16.64-3.27a15.48,15.48,0,0,0,4.58,1,4.89,4.89,0,0,0,3.73-1.74,2.35,2.35,0,0,0-.79-3.39c-1.75-.9-4.9.76-6.15,2-.08.08-.87,1.07-1.3,1.62.1-.66.21-1.33.3-2,.24-2,.42-3.94.62-5.93.06-.61.12-1.21.19-1.82a15.79,15.79,0,0,0,4.73,1.11,4.87,4.87,0,0,0,3.72-1.74A2.34,2.34,0,0,0,87,361c-1.76-.9-4.9.77-6.15,2-.1.1-1.24,1.53-1.51,1.9.14-1.33.29-2.66.49-4A42.12,42.12,0,0,1,81,355.74c.12,0,3.25,1.22,4.76,1.12a4.92,4.92,0,0,0,3.73-1.75,2.33,2.33,0,0,0-.79-3.38c-1.75-.91-4.9.76-6.15,2-.08.08-1,1.17-1.36,1.7l-.1-.05a31.28,31.28,0,0,1,2.07-4.95c.45-.88.93-1.69,1.42-2.48a15.78,15.78,0,0,0,4.51,1.59,4.93,4.93,0,0,0,3.89-1.32,2.35,2.35,0,0,0-.41-3.46c-1.65-1.09-5,.22-6.34,1.32-.07.06-.77.75-1.26,1.26.22-.35.44-.71.66-1,.83-1.25,1.66-2.33,2.41-3.29.43-.54.82-1,1.2-1.47a15.67,15.67,0,0,0,4.71-.67,4.88,4.88,0,0,0,2.84-3,2.33,2.33,0,0,0-2-2.87c-2-.21-4.3,2.48-5,4.09-.07.14-.78,2.42-.75,2.42h0c-.37.42-.76.88-1.18,1.39-.77.94-1.63,2-2.48,3.25a40.38,40.38,0,0,0-2.58,4.1,30.24,30.24,0,0,0-2.2,5,.14.14,0,0,1,0,.06c0-.58,0-2.2,0-2.32-.22-1.75-1.69-5-3.63-5.35a2.34,2.34,0,0,0-2.7,2.19,4.92,4.92,0,0,0,1.88,3.66,16,16,0,0,0,4.43,2,41.67,41.67,0,0,0-1.3,5.37c-.19,1.05-.35,2.12-.49,3.2,0-.5,0-.95,0-1-.22-1.75-1.69-5-3.63-5.35a2.34,2.34,0,0,0-2.7,2.19,4.92,4.92,0,0,0,1.88,3.66,15.52,15.52,0,0,0,4.29,2l-.15,1.24c-.24,2-.47,4-.75,5.89-.1.68-.22,1.35-.34,2,0-.45,0-.82,0-.88-.22-1.75-1.69-5-3.63-5.35a2.33,2.33,0,0,0-2.69,2.2,4.84,4.84,0,0,0,1.87,3.65A14.72,14.72,0,0,0,77,376.24c-.14.68-.29,1.37-.46,2-.12.44-.21.88-.37,1.32s-.28.87-.41,1.29c-.3.82-.6,1.66-.91,2.45-.21.55-.42,1.07-.63,1.59.1-.67.28-2,.29-2.12a9.13,9.13,0,0,0-1.22-4.41,4.67,4.67,0,0,0,0-.52,2.35,2.35,0,0,0-2.86-2c-1.91.51-3.12,3.86-3.21,5.62,0,.1.06,1.24.12,1.95-.1-.41-.19-.82-.29-1.24-.2-.85-.42-1.68-.66-2.58-.13-.44-.26-.87-.4-1.31s-.31-.89-.46-1.33c-.38-1-.81-2.06-1.27-3.09a15.19,15.19,0,0,0,4.4-1.65,4.87,4.87,0,0,0,2.15-3.5,2.34,2.34,0,0,0-2.53-2.4c-2,.22-3.66,3.34-4,5.07,0,.11-.14,1.38-.19,2.07-.28-.61-.56-1.22-.86-1.84-.88-1.76-1.82-3.52-2.75-5.28-.29-.54-.57-1.08-.85-1.63a16.09,16.09,0,0,0,4.56-1.68,4.89,4.89,0,0,0,2.15-3.51,2.34,2.34,0,0,0-2.53-2.39c-2,.21-3.66,3.34-4,5.07,0,.13-.19,1.95-.21,2.42-.62-1.19-1.22-2.39-1.77-3.58a42.53,42.53,0,0,1-1.93-5c.12,0,3.39-.77,4.59-1.69a4.89,4.89,0,0,0,2.14-3.51,2.33,2.33,0,0,0-2.52-2.39c-2,.21-3.67,3.34-4,5.06,0,.12-.15,1.51-.2,2.17h-.11a29.37,29.37,0,0,1-1-5.27c-.11-1-.16-1.92-.19-2.84a15.87,15.87,0,0,0,4.63-1.17,4.86,4.86,0,0,0,2.52-3.25,2.33,2.33,0,0,0-2.25-2.65c-2,0-4,2.91-4.55,4.59,0,.09-.23,1.05-.36,1.75,0-.41,0-.84,0-1.24,0-1.49.1-2.86.19-4.07.06-.68.12-1.31.19-1.89a15.55,15.55,0,0,0,3.56-3.15,4.85,4.85,0,0,0,.73-4.05A2.34,2.34,0,0,0,56,331.18c-1.76.91-2.22,4.44-1.93,6.18C54.09,337.51,54.75,339.81,54.78,339.79Z" style="fill:#92E3A9"></path><path d="M107.23,366.8s.63-2.3.65-2.45c.25-1.75-.31-5.26-2.09-6.12a2.33,2.33,0,0,0-3.18,1.41,4.89,4.89,0,0,0,.85,4C104.3,365,107.23,366.8,107.23,366.8Z" style="fill:#92E3A9"></path><path d="M72.18,366c1.42.62,4.88.54,4.88.54s-.74-2.27-.81-2.4c-.76-1.59-3.16-4.22-5.12-4a2.34,2.34,0,0,0-1.87,2.93A4.85,4.85,0,0,0,72.18,366Z" style="fill:#92E3A9"></path><path d="M77.56,359l0,0c-.08.56-.15,1.15-.22,1.81-.12,1.21-.25,2.58-.28,4.08a42.27,42.27,0,0,0,.11,4.84,30.72,30.72,0,0,0,.9,5.34s0,0,0,.06c-.31-.49-1.22-1.82-1.31-1.92-1.15-1.33-4.16-3.23-6-2.46a2.35,2.35,0,0,0-1,3.32,4.88,4.88,0,0,0,3.59,2,16,16,0,0,0,4.8-.76,40.47,40.47,0,0,0,1.88,5.19c.43,1,.88,2,1.36,2.94-.28-.41-.54-.78-.58-.82-1.15-1.34-4.17-3.24-6-2.46a2.33,2.33,0,0,0-1,3.32,4.88,4.88,0,0,0,3.58,2,15.55,15.55,0,0,0,4.68-.72c.18.38.36.75.55,1.12.89,1.78,1.8,3.56,2.63,5.33.29.62.55,1.25.82,1.87l-.5-.72c-1.15-1.33-4.17-3.23-6-2.46a2.34,2.34,0,0,0-1,3.32,4.89,4.89,0,0,0,3.58,2,15.08,15.08,0,0,0,4.55-.68c.26.64.51,1.29.73,1.93.14.44.3.85.42,1.3s.25.88.37,1.32c.2.84.41,1.71.59,2.54.13.57.24,1.12.35,1.68-.28-.63-.87-1.84-.93-1.93-.94-1.5-3.63-3.83-5.54-3.34a2.33,2.33,0,0,0-1.52,3.12,4.87,4.87,0,0,0,3.23,2.54,16.16,16.16,0,0,0,4.84,0c.18.92.35,1.81.5,2.66.47,2.66.77,4.93,1,6.61H92c-.24-1.71-.6-4.06-1.15-6.82-.18-.94-.4-1.93-.63-2.95A24.81,24.81,0,0,0,93,402a16.73,16.73,0,0,0,3.94,2.54c-.35.87-.7,1.71-1,2.5-1.06,2.45-2,4.49-2.81,6h1.45c.69-1.47,1.54-3.35,2.44-5.55.36-.88.73-1.82,1.1-2.8a16,16,0,0,0,4.83.38,4.9,4.9,0,0,0,3.41-2.29A2.34,2.34,0,0,0,105,399.5c-1.87-.63-4.73,1.5-5.77,2.92-.07.08-.63,1.06-1,1.69l.44-1.2c.3-.81.58-1.63.87-2.52l.39-1.3c.14-.44.24-.91.36-1.37.25-1.07.46-2.17.64-3.27a15.4,15.4,0,0,0,4.58,1.05,4.87,4.87,0,0,0,3.72-1.74,2.34,2.34,0,0,0-.78-3.39c-1.76-.9-4.9.76-6.15,2-.08.07-.88,1.07-1.3,1.62.1-.67.21-1.33.29-2,.24-2,.43-3.95.62-5.93.06-.61.13-1.21.19-1.82a15.88,15.88,0,0,0,4.74,1.11,4.87,4.87,0,0,0,3.72-1.74,2.34,2.34,0,0,0-.79-3.39c-1.75-.9-4.9.77-6.15,2-.09.09-1.23,1.52-1.51,1.9.14-1.33.3-2.66.5-4a40.9,40.9,0,0,1,1.14-5.22c.12.05,3.25,1.23,4.76,1.12a4.87,4.87,0,0,0,3.72-1.74,2.34,2.34,0,0,0-.78-3.39c-1.76-.9-4.9.77-6.15,2-.08.08-1,1.17-1.36,1.7l-.1,0a29.52,29.52,0,0,1,2.07-5c.45-.88.93-1.7,1.41-2.48a15.89,15.89,0,0,0,4.51,1.59,4.88,4.88,0,0,0,3.89-1.33,2.33,2.33,0,0,0-.41-3.45c-1.64-1.09-5,.22-6.33,1.32-.07.06-.77.75-1.27,1.26.23-.35.45-.71.67-1,.83-1.25,1.66-2.33,2.4-3.29.43-.54.83-1,1.21-1.47a15.71,15.71,0,0,0,4.71-.67,4.88,4.88,0,0,0,2.84-3,2.33,2.33,0,0,0-2-2.87c-2-.22-4.3,2.47-5,4.08-.06.14-.78,2.43-.74,2.43h0c-.37.42-.77.88-1.18,1.39-.77.94-1.63,2-2.49,3.24a39.92,39.92,0,0,0-2.57,4.11,29.87,29.87,0,0,0-2.2,4.95l0,.06c0-.58,0-2.2,0-2.32-.23-1.75-1.69-5-3.63-5.35A2.33,2.33,0,0,0,97,369a4.88,4.88,0,0,0,1.88,3.66,16,16,0,0,0,4.42,2,43.4,43.4,0,0,0-1.3,5.37c-.18,1.05-.34,2.12-.48,3.2,0-.5,0-.95,0-1-.23-1.75-1.69-5-3.63-5.36a2.35,2.35,0,0,0-2.7,2.2,4.88,4.88,0,0,0,1.88,3.66,15.39,15.39,0,0,0,4.29,2c-.05.41-.11.82-.16,1.24-.23,2-.46,4-.74,5.89-.1.68-.23,1.35-.35,2,0-.45,0-.82,0-.88-.23-1.75-1.69-5-3.63-5.35a2.34,2.34,0,0,0-2.7,2.2,4.88,4.88,0,0,0,1.88,3.65,14.72,14.72,0,0,0,4.17,1.94c-.15.68-.29,1.37-.46,2-.13.44-.22.88-.37,1.32s-.28.87-.42,1.29c-.29.82-.6,1.66-.91,2.45-.21.55-.42,1.07-.63,1.59.11-.67.29-2,.29-2.12a9.11,9.11,0,0,0-1.21-4.41,3,3,0,0,0,0-.52,2.34,2.34,0,0,0-2.85-2c-1.91.51-3.12,3.86-3.21,5.62,0,.1.06,1.24.12,1.95-.1-.41-.19-.82-.29-1.24-.2-.85-.43-1.68-.67-2.59l-.39-1.3c-.12-.44-.31-.89-.46-1.34-.38-1-.81-2.05-1.27-3.08a15.29,15.29,0,0,0,4.4-1.65,4.86,4.86,0,0,0,2.14-3.5,2.34,2.34,0,0,0-2.52-2.4c-2,.22-3.67,3.34-4,5.07,0,.11-.14,1.38-.19,2.07-.28-.61-.56-1.23-.86-1.84-.88-1.76-1.82-3.53-2.76-5.29L82.4,384c.26-.06,3.39-.78,4.56-1.68a4.87,4.87,0,0,0,2.14-3.51,2.33,2.33,0,0,0-2.52-2.39c-2,.21-3.67,3.34-4,5.06,0,.14-.19,2-.21,2.43-.62-1.19-1.23-2.39-1.77-3.59a40.08,40.08,0,0,1-1.93-5c.12,0,3.38-.77,4.59-1.7a4.89,4.89,0,0,0,2.14-3.5,2.33,2.33,0,0,0-2.52-2.39c-2,.21-3.67,3.34-4,5.06,0,.12-.16,1.51-.2,2.17h-.11a30.32,30.32,0,0,1-1-5.27c-.11-1-.16-1.93-.19-2.84A15.85,15.85,0,0,0,82,365.68a4.89,4.89,0,0,0,2.52-3.25,2.35,2.35,0,0,0-2.25-2.66c-2,0-4,2.92-4.55,4.6,0,.09-.23,1.05-.37,1.75,0-.41,0-.84,0-1.24,0-1.49.1-2.86.2-4.07,0-.69.12-1.31.19-1.89a15.76,15.76,0,0,0,3.56-3.15,4.92,4.92,0,0,0,.73-4,2.34,2.34,0,0,0-3.22-1.32c-1.75.91-2.21,4.44-1.92,6.18C76.86,356.73,77.53,359,77.56,359Z" style="fill:#92E3A9"></path><path d="M268,358.75s.83-3,.86-3.22c.31-2.29-.41-6.9-2.75-8a3.06,3.06,0,0,0-4.16,1.85c-.63,1.72.16,3.83,1.1,5.27C264.15,356.33,268,358.75,268,358.75Z" style="fill:#92E3A9"></path><path d="M222,357.75c1.86.81,6.4.71,6.4.71s-1-3-1.06-3.16c-1-2.08-4.15-5.53-6.71-5.18a3.06,3.06,0,0,0-2.46,3.84C218.63,355.74,220.46,357.06,222,357.75Z" style="fill:#92E3A9"></path><path d="M229.09,348.53l0,0c-.1.73-.2,1.52-.29,2.38-.16,1.58-.32,3.38-.37,5.34a53.17,53.17,0,0,0,.16,6.35,39.91,39.91,0,0,0,1.17,7l0,.08c-.41-.64-1.61-2.39-1.72-2.52-1.51-1.74-5.46-4.23-7.84-3.22a3.06,3.06,0,0,0-1.36,4.35c.88,1.6,3,2.39,4.7,2.64,1.92.28,6-.89,6.3-1a54.13,54.13,0,0,0,2.46,6.81c.56,1.29,1.16,2.57,1.78,3.85-.37-.54-.7-1-.76-1.08-1.51-1.75-5.46-4.24-7.84-3.23a3.06,3.06,0,0,0-1.36,4.35c.88,1.61,3,2.4,4.7,2.65s5.21-.68,6.12-.94c.25.49.48,1,.73,1.46,1.17,2.34,2.36,4.67,3.44,7,.39.82.74,1.64,1.09,2.45-.33-.48-.61-.88-.66-.94-1.51-1.75-5.46-4.23-7.85-3.22a3.06,3.06,0,0,0-1.35,4.35c.88,1.6,3,2.39,4.69,2.64s4.87-.59,6-.89c.33.85.67,1.7,1,2.53.19.58.4,1.12.55,1.71l.48,1.72c.27,1.11.55,2.25.78,3.34.17.75.31,1.47.46,2.2-.37-.82-1.14-2.41-1.21-2.53-1.23-2-4.76-5-7.27-4.38a3.06,3.06,0,0,0-2,4.1c.63,1.71,2.59,2.82,4.24,3.32,1.82.56,5.84.05,6.35,0,.24,1.21.46,2.38.65,3.49.62,3.49,1,6.46,1.28,8.67h1.74c-.31-2.25-.79-5.33-1.51-9-.24-1.22-.52-2.52-.82-3.85a33.9,33.9,0,0,0,3.54-1.67c1.32,1.44,4.72,3.12,5.16,3.33-.46,1.14-.92,2.24-1.37,3.27-1.4,3.22-2.7,5.89-3.69,7.88h1.9c.91-1.94,2-4.4,3.2-7.28.47-1.16,1-2.4,1.44-3.67.49.1,4.47.91,6.33.49,1.68-.38,3.72-1.34,4.48-3a3.06,3.06,0,0,0-1.69-4.23c-2.46-.83-6.2,2-7.58,3.82-.08.11-.82,1.4-1.28,2.22l.59-1.57c.39-1.07.75-2.15,1.14-3.3l.51-1.72c.18-.57.3-1.19.46-1.79.33-1.4.6-2.84.84-4.29.94.34,4.28,1.5,6,1.38s3.88-.75,4.88-2.29a3.06,3.06,0,0,0-1-4.44c-2.3-1.18-6.42,1-8.06,2.63-.11.11-1.15,1.41-1.71,2.13.14-.87.28-1.74.39-2.63.32-2.57.56-5.18.81-7.78.08-.79.17-1.59.25-2.38.33.12,4.27,1.59,6.21,1.45,1.72-.12,3.88-.75,4.88-2.28a3.06,3.06,0,0,0-1-4.44c-2.3-1.19-6.42,1-8.06,2.63-.13.12-1.62,2-2,2.49.18-1.75.38-3.49.65-5.19a52.42,52.42,0,0,1,1.49-6.84c.16.06,4.26,1.61,6.25,1.47,1.72-.12,3.88-.76,4.88-2.29a3.06,3.06,0,0,0-1-4.44c-2.3-1.19-6.43,1-8.07,2.63-.1.11-1.25,1.54-1.78,2.23l-.13-.07a39.61,39.61,0,0,1,2.72-6.49c.59-1.15,1.21-2.22,1.85-3.25.73.37,4.11,2,5.91,2.08s3.94-.32,5.1-1.73a3.06,3.06,0,0,0-.53-4.53c-2.16-1.43-6.5.29-8.31,1.73-.1.08-1,1-1.66,1.65.29-.45.58-.93.87-1.37,1.09-1.63,2.18-3.05,3.16-4.31.56-.71,1.08-1.34,1.58-1.93.9,0,4.57-.12,6.17-.87s3.35-2.11,3.73-3.9a3.06,3.06,0,0,0-2.56-3.77c-2.58-.27-5.64,3.25-6.58,5.36-.08.19-1,3.19-1,3.19h.05c-.49.55-1,1.15-1.55,1.81-1,1.24-2.14,2.65-3.26,4.26a53.17,53.17,0,0,0-3.37,5.38,40.07,40.07,0,0,0-2.89,6.49s0,.06,0,.08c0-.75,0-2.88,0-3-.3-2.29-2.22-6.55-4.77-7a3.06,3.06,0,0,0-3.53,2.88c-.15,1.83,1.17,3.65,2.46,4.8,1.45,1.3,5.48,2.55,5.8,2.65a54.23,54.23,0,0,0-1.7,7c-.25,1.39-.45,2.79-.64,4.2,0-.65,0-1.24,0-1.32-.29-2.3-2.22-6.55-4.76-7a3.06,3.06,0,0,0-3.53,2.88c-.15,1.82,1.17,3.64,2.45,4.79s4.73,2.31,5.63,2.6c-.06.54-.13,1.08-.2,1.62-.31,2.6-.61,5.2-1,7.73-.13.9-.29,1.77-.45,2.65,0-.59,0-1.08,0-1.15-.3-2.29-2.22-6.55-4.76-7a3.07,3.07,0,0,0-3.54,2.88c-.15,1.82,1.17,3.65,2.46,4.8s4.39,2.19,5.47,2.54c-.19.89-.38,1.79-.6,2.64-.17.58-.29,1.16-.48,1.73s-.37,1.14-.55,1.7c-.39,1.07-.79,2.18-1.19,3.21-.28.72-.56,1.4-.83,2.09.14-.89.37-2.63.38-2.78a11.93,11.93,0,0,0-1.6-5.79,3,3,0,0,0,0-.67,3.06,3.06,0,0,0-3.75-2.6c-2.5.66-4.09,5.05-4.2,7.36,0,.14.08,1.63.15,2.56-.13-.54-.24-1.07-.38-1.63-.26-1.11-.56-2.2-.87-3.38-.17-.57-.34-1.14-.52-1.72s-.4-1.16-.6-1.75c-.49-1.35-1.06-2.7-1.66-4,1-.23,4.39-1.11,5.77-2.16s2.82-2.77,2.81-4.6a3.07,3.07,0,0,0-3.31-3.14c-2.58.28-4.81,4.38-5.28,6.65,0,.14-.18,1.8-.24,2.72-.37-.81-.73-1.62-1.13-2.42-1.15-2.32-2.39-4.62-3.61-6.93-.38-.71-.74-1.42-1.11-2.13.34-.08,4.44-1,6-2.21,1.37-1.05,2.82-2.77,2.81-4.6a3.06,3.06,0,0,0-3.31-3.14c-2.57.28-4.81,4.38-5.27,6.65,0,.17-.25,2.56-.28,3.17-.81-1.56-1.6-3.12-2.32-4.69a52.56,52.56,0,0,1-2.53-6.53c.16,0,4.44-1,6-2.22,1.37-1.05,2.82-2.77,2.81-4.6A3.06,3.06,0,0,0,236,360c-2.57.28-4.81,4.38-5.27,6.64,0,.15-.2,2-.26,2.84l-.15,0a39.44,39.44,0,0,1-1.31-6.92c-.15-1.28-.22-2.52-.25-3.73.81-.1,4.54-.59,6.08-1.52s3.11-2.45,3.29-4.27a3.06,3.06,0,0,0-2.94-3.48c-2.59,0-5.26,3.83-6,6,0,.12-.3,1.38-.48,2.3,0-.55,0-1.11,0-1.63,0-2,.13-3.75.25-5.34.08-.9.16-1.71.25-2.47.75-.52,3.75-2.63,4.67-4.14s1.63-3.61,1-5.31a3.07,3.07,0,0,0-4.22-1.73c-2.3,1.19-2.9,5.82-2.52,8.1C228.18,345.54,229.05,348.56,229.09,348.53Z" style="fill:#92E3A9"></path><path d="M317.29,372.33s.63-2.31.65-2.46c.25-1.74-.31-5.26-2.09-6.12a2.34,2.34,0,0,0-3.18,1.41,4.89,4.89,0,0,0,.85,4C314.36,370.48,317.29,372.33,317.29,372.33Z" style="fill:#92E3A9"></path><path d="M282.24,371.57c1.42.61,4.88.54,4.89.54s-.75-2.27-.82-2.41c-.76-1.59-3.16-4.22-5.12-3.95a2.33,2.33,0,0,0-1.87,2.93A4.88,4.88,0,0,0,282.24,371.57Z" style="fill:#92E3A9"></path><path d="M287.62,364.54l0,0c-.08.56-.15,1.16-.22,1.81-.12,1.21-.25,2.58-.28,4.08a42.18,42.18,0,0,0,.11,4.84,30.72,30.72,0,0,0,.9,5.34.64.64,0,0,0,0,.07c-.31-.49-1.22-1.83-1.31-1.92-1.15-1.33-4.16-3.23-6-2.46a2.34,2.34,0,0,0-1,3.32,4.9,4.9,0,0,0,3.59,2c1.47.22,4.56-.68,4.8-.75a41,41,0,0,0,1.88,5.19c.43,1,.88,2,1.36,2.94-.28-.42-.54-.78-.58-.83-1.15-1.33-4.17-3.23-6-2.46a2.34,2.34,0,0,0-1,3.32,4.88,4.88,0,0,0,3.58,2,15.27,15.27,0,0,0,4.68-.71l.55,1.12c.89,1.78,1.8,3.55,2.63,5.32.29.63.55,1.25.82,1.88-.25-.37-.46-.68-.5-.72-1.15-1.34-4.17-3.23-6-2.46a2.33,2.33,0,0,0-1,3.32,4.88,4.88,0,0,0,3.58,2,14.77,14.77,0,0,0,4.55-.68c.26.65.51,1.3.73,1.93.14.44.3.86.42,1.31s.25.88.37,1.31c.2.84.41,1.71.59,2.54.13.58.24,1.13.35,1.68-.28-.62-.87-1.83-.93-1.93-.93-1.49-3.62-3.82-5.54-3.34a2.34,2.34,0,0,0-1.52,3.13,4.83,4.83,0,0,0,3.23,2.53,15.9,15.9,0,0,0,4.84,0c.18.91.35,1.81.5,2.65.47,2.67.78,4.93,1,6.62h1.33c-.25-1.72-.61-4.06-1.16-6.83-.18-.93-.4-1.92-.63-2.94a24.81,24.81,0,0,0,2.7-1.27A17.42,17.42,0,0,0,307,410c-.35.86-.7,1.7-1.05,2.49-1.06,2.45-2,4.5-2.81,6h1.45c.69-1.48,1.54-3.35,2.44-5.56.36-.87.73-1.82,1.1-2.79a16.35,16.35,0,0,0,4.83.37,4.88,4.88,0,0,0,3.41-2.29A2.34,2.34,0,0,0,315,405c-1.87-.62-4.73,1.5-5.77,2.92-.07.08-.63,1.07-1,1.69.15-.4.3-.78.44-1.19.3-.82.58-1.64.87-2.52l.39-1.31c.14-.43.24-.91.36-1.37.25-1.07.46-2.16.64-3.27a15.1,15.1,0,0,0,4.58,1,4.87,4.87,0,0,0,3.72-1.74,2.34,2.34,0,0,0-.78-3.39c-1.76-.9-4.9.77-6.15,2-.08.08-.88,1.07-1.3,1.63.1-.67.21-1.34.29-2,.25-2,.43-3.95.62-5.93.06-.61.13-1.22.19-1.82.26.09,3.26,1.21,4.74,1.11a4.88,4.88,0,0,0,3.72-1.75,2.33,2.33,0,0,0-.79-3.38c-1.75-.91-4.9.76-6.15,2-.09.1-1.23,1.53-1.51,1.91.14-1.34.3-2.66.5-4a41.12,41.12,0,0,1,1.14-5.21c.12,0,3.25,1.23,4.76,1.12a4.89,4.89,0,0,0,3.72-1.74,2.34,2.34,0,0,0-.78-3.39c-1.76-.91-4.9.76-6.15,2-.08.08-1,1.17-1.36,1.69l-.1-.05a29.87,29.87,0,0,1,2.07-4.95c.45-.88.93-1.69,1.41-2.47a15.61,15.61,0,0,0,4.51,1.58,4.87,4.87,0,0,0,3.89-1.32,2.33,2.33,0,0,0-.41-3.45c-1.64-1.1-4.95.22-6.33,1.31l-1.27,1.27c.23-.35.45-.72.67-1,.83-1.24,1.66-2.33,2.4-3.29.43-.54.83-1,1.21-1.47a15.4,15.4,0,0,0,4.71-.67,4.89,4.89,0,0,0,2.84-3,2.34,2.34,0,0,0-1.95-2.88c-2-.21-4.3,2.48-5,4.09-.06.14-.78,2.43-.74,2.43h0c-.37.42-.76.87-1.18,1.38-.77.94-1.63,2-2.49,3.25a41.52,41.52,0,0,0-2.57,4.1,30.63,30.63,0,0,0-2.2,5s0,0,0,.06c0-.58,0-2.19,0-2.32-.23-1.75-1.69-5-3.63-5.35a2.34,2.34,0,0,0-2.7,2.2,4.85,4.85,0,0,0,1.88,3.65c1.1,1,4.18,2,4.42,2a42.81,42.81,0,0,0-1.3,5.36c-.18,1.06-.34,2.13-.48,3.2,0-.5,0-.95,0-1-.23-1.75-1.69-5-3.63-5.35a2.34,2.34,0,0,0-2.7,2.2,4.85,4.85,0,0,0,1.88,3.65,15.39,15.39,0,0,0,4.29,2c-.05.42-.11.83-.16,1.24-.23,2-.46,4-.74,5.89-.1.69-.22,1.35-.35,2,0-.44,0-.82,0-.87-.23-1.75-1.69-5-3.63-5.36a2.34,2.34,0,0,0-2.7,2.2,4.92,4.92,0,0,0,1.88,3.66,15,15,0,0,0,4.17,1.94c-.15.68-.29,1.36-.46,2-.13.45-.22.88-.37,1.32l-.42,1.3c-.29.81-.6,1.66-.9,2.44l-.64,1.6c.11-.68.29-2,.29-2.12a9.14,9.14,0,0,0-1.21-4.42,2.92,2.92,0,0,0,0-.51,2.32,2.32,0,0,0-2.85-2c-1.91.5-3.12,3.85-3.21,5.61,0,.11.06,1.24.12,1.95-.1-.41-.19-.81-.29-1.24-.2-.84-.43-1.68-.67-2.58l-.39-1.31c-.12-.43-.31-.88-.46-1.33-.38-1-.81-2.06-1.27-3.08a15.59,15.59,0,0,0,4.4-1.65,4.87,4.87,0,0,0,2.14-3.51,2.33,2.33,0,0,0-2.52-2.39c-2,.21-3.67,3.34-4,5.06,0,.11-.14,1.38-.19,2.08-.28-.62-.56-1.23-.86-1.84-.88-1.77-1.82-3.53-2.76-5.29l-.84-1.62A16.3,16.3,0,0,0,297,387.8a4.86,4.86,0,0,0,2.14-3.51,2.34,2.34,0,0,0-2.52-2.39c-2,.22-3.67,3.34-4,5.07,0,.13-.19,1.95-.21,2.42-.62-1.19-1.23-2.38-1.77-3.58a40.21,40.21,0,0,1-1.93-5c.12,0,3.38-.77,4.59-1.69a4.89,4.89,0,0,0,2.14-3.51,2.34,2.34,0,0,0-2.52-2.39c-2,.21-3.67,3.34-4,5.07,0,.11-.16,1.5-.2,2.16h-.11a30.15,30.15,0,0,1-1-5.27c-.11-1-.16-1.92-.19-2.84A15.54,15.54,0,0,0,292,371.2a4.89,4.89,0,0,0,2.52-3.25,2.34,2.34,0,0,0-2.25-2.65c-2,0-4,2.92-4.55,4.59,0,.09-.23,1.05-.37,1.76,0-.42,0-.85,0-1.24,0-1.5.1-2.86.2-4.07.05-.69.12-1.31.19-1.89a16.08,16.08,0,0,0,3.56-3.16,4.9,4.9,0,0,0,.73-4,2.33,2.33,0,0,0-3.22-1.32c-1.75.9-2.21,4.43-1.92,6.17C286.92,362.25,287.59,364.56,287.62,364.54Z" style="fill:#92E3A9"></path><path d="M330.25,376.85s-.63-2.3-.65-2.45c-.24-1.75.31-5.26,2.09-6.12a2.34,2.34,0,0,1,3.18,1.4,4.91,4.91,0,0,1-.84,4C333.19,375,330.25,376.85,330.25,376.85Z" style="fill:#92E3A9"></path><path d="M365.3,376.09c-1.41.62-4.88.54-4.88.54s.74-2.27.81-2.41c.76-1.59,3.16-4.21,5.12-4a2.34,2.34,0,0,1,1.88,2.93A4.9,4.9,0,0,1,365.3,376.09Z" style="fill:#92E3A9"></path><path d="M359.93,369.06l0,0c.08.55.16,1.15.23,1.81.12,1.21.24,2.58.28,4.08a42.39,42.39,0,0,1-.12,4.84,29.8,29.8,0,0,1-.9,5.34.14.14,0,0,1,0,.06c.31-.49,1.23-1.82,1.31-1.92,1.15-1.33,4.17-3.23,6-2.46a2.34,2.34,0,0,1,1,3.32,4.89,4.89,0,0,1-3.58,2,16.14,16.14,0,0,1-4.81-.76,41,41,0,0,1-1.88,5.19c-.42,1-.88,2-1.35,2.94.28-.41.53-.78.58-.83,1.15-1.33,4.16-3.23,6-2.46a2.34,2.34,0,0,1,1,3.32,4.84,4.84,0,0,1-3.58,2,15.48,15.48,0,0,1-4.67-.72c-.19.37-.37.75-.55,1.12-.9,1.78-1.8,3.56-2.63,5.33-.3.62-.56,1.25-.83,1.87l.5-.72c1.16-1.33,4.17-3.23,6-2.46a2.34,2.34,0,0,1,1,3.32,4.89,4.89,0,0,1-3.58,2,15.13,15.13,0,0,1-4.55-.68c-.25.64-.51,1.29-.73,1.93-.14.44-.3.85-.42,1.3l-.36,1.31c-.2.85-.42,1.72-.6,2.54-.12.58-.23,1.13-.35,1.68.29-.62.87-1.83.93-1.92.94-1.5,3.63-3.83,5.54-3.34a2.33,2.33,0,0,1,1.53,3.12,4.91,4.91,0,0,1-3.24,2.54,16.18,16.18,0,0,1-4.84,0c-.18.92-.35,1.81-.5,2.66-.47,2.66-.77,4.93-1,6.61h-1.33c.24-1.71.6-4.06,1.15-6.83.19-.93.4-1.92.63-2.94a24.81,24.81,0,0,1-2.7-1.27,16.93,16.93,0,0,1-3.93,2.54c.35.87.7,1.71,1,2.49,1.07,2.46,2.06,4.5,2.81,6H343c-.69-1.47-1.53-3.35-2.43-5.55-.37-.88-.74-1.83-1.1-2.8a16.05,16.05,0,0,1-4.83.37,4.88,4.88,0,0,1-3.42-2.28,2.34,2.34,0,0,1,1.29-3.23c1.87-.63,4.73,1.5,5.78,2.91.06.09.63,1.07,1,1.7l-.45-1.2c-.3-.81-.57-1.64-.87-2.52l-.39-1.31c-.14-.43-.23-.9-.35-1.36-.26-1.07-.46-2.17-.65-3.27a15.72,15.72,0,0,1-4.58,1.05,4.9,4.9,0,0,1-3.72-1.74,2.34,2.34,0,0,1,.79-3.39c1.75-.91,4.9.76,6.15,2,.08.07.87,1.07,1.3,1.62-.11-.67-.21-1.33-.3-2-.24-2-.43-4-.62-5.93-.06-.61-.12-1.21-.19-1.82a15.88,15.88,0,0,1-4.73,1.11,4.87,4.87,0,0,1-3.73-1.74,2.35,2.35,0,0,1,.79-3.39c1.75-.9,4.9.77,6.15,2,.09.09,1.24,1.52,1.51,1.9-.14-1.33-.29-2.66-.5-4a40.9,40.9,0,0,0-1.14-5.22,16,16,0,0,1-4.76,1.12,4.87,4.87,0,0,1-3.72-1.74,2.34,2.34,0,0,1,.79-3.39c1.75-.9,4.9.77,6.15,2,.08.08.95,1.17,1.35,1.7l.1-.05a29.52,29.52,0,0,0-2.07-4.95c-.45-.88-.92-1.7-1.41-2.48a15.78,15.78,0,0,1-4.51,1.59,4.9,4.9,0,0,1-3.89-1.33,2.34,2.34,0,0,1,.41-3.45c1.64-1.09,4.95.22,6.33,1.32.08.06.77.75,1.27,1.26-.22-.35-.45-.71-.67-1-.82-1.25-1.66-2.34-2.4-3.29q-.65-.81-1.2-1.47a15.63,15.63,0,0,1-4.71-.67,4.92,4.92,0,0,1-2.85-3,2.35,2.35,0,0,1,2-2.88c2-.21,4.29,2.48,5,4.09.06.14.78,2.43.75,2.43h-.05c.38.42.77.88,1.19,1.39.77.94,1.63,2,2.48,3.24a42.74,42.74,0,0,1,2.58,4.1,31.52,31.52,0,0,1,2.2,4.95s0,.05,0,.07c0-.58,0-2.2,0-2.32.23-1.75,1.7-5,3.64-5.36a2.34,2.34,0,0,1,2.69,2.2,4.87,4.87,0,0,1-1.87,3.66,16,16,0,0,1-4.43,2,41.52,41.52,0,0,1,1.3,5.36c.19,1.06.34,2.13.49,3.21,0-.5,0-.95,0-1,.23-1.75,1.7-5,3.64-5.36a2.33,2.33,0,0,1,2.69,2.2,4.87,4.87,0,0,1-1.87,3.66,15.44,15.44,0,0,1-4.3,2c.05.41.11.82.16,1.23.24,2,.46,4,.75,5.9.1.68.22,1.35.34,2,0-.45,0-.82,0-.88.23-1.75,1.7-5,3.64-5.35a2.33,2.33,0,0,1,2.69,2.19,4.87,4.87,0,0,1-1.87,3.66,14.72,14.72,0,0,1-4.17,1.94c.14.68.28,1.36.45,2,.13.44.22.88.37,1.31l.42,1.3c.3.82.6,1.66.91,2.45.21.55.42,1.07.63,1.59-.1-.68-.29-2-.29-2.12a9,9,0,0,1,1.22-4.41,2.27,2.27,0,0,1,0-.52,2.33,2.33,0,0,1,2.86-2c1.91.51,3.12,3.86,3.21,5.62,0,.1-.07,1.23-.12,2,.09-.42.18-.82.29-1.25.2-.84.42-1.68.66-2.58l.39-1.3c.13-.44.31-.89.47-1.34.37-1,.81-2.06,1.26-3.08a15.4,15.4,0,0,1-4.4-1.65,4.89,4.89,0,0,1-2.14-3.51,2.34,2.34,0,0,1,2.52-2.39c2,.22,3.67,3.34,4,5.07,0,.11.13,1.37.19,2.07.28-.61.55-1.23.86-1.84.87-1.77,1.82-3.53,2.75-5.29.29-.54.56-1.08.85-1.62a16.23,16.23,0,0,1-4.57-1.68,4.92,4.92,0,0,1-2.14-3.51,2.33,2.33,0,0,1,2.52-2.39c2,.21,3.67,3.34,4,5.06,0,.13.19,2,.21,2.42.61-1.19,1.22-2.38,1.77-3.58a41.72,41.72,0,0,0,1.93-5c-.13,0-3.39-.77-4.59-1.7a4.87,4.87,0,0,1-2.15-3.5,2.34,2.34,0,0,1,2.53-2.4c2,.22,3.66,3.34,4,5.07,0,.11.15,1.5.19,2.17H359a30.45,30.45,0,0,0,1-5.27c.11-1,.16-1.93.19-2.85a15.62,15.62,0,0,1-4.64-1.16,4.9,4.9,0,0,1-2.51-3.25,2.34,2.34,0,0,1,2.24-2.66c2,0,4,2.92,4.56,4.6,0,.09.23,1.05.36,1.75,0-.41,0-.84,0-1.24,0-1.49-.1-2.86-.19-4.07-.06-.69-.13-1.31-.2-1.89a15.52,15.52,0,0,1-3.55-3.15,4.89,4.89,0,0,1-.74-4.05,2.34,2.34,0,0,1,3.22-1.32c1.75.91,2.21,4.44,1.92,6.18C360.62,366.78,360,369.08,359.93,369.06Z" style="fill:#92E3A9"></path><path d="M377,373.36s-.45-1.64-.47-1.75c-.17-1.24.22-3.75,1.49-4.36a1.67,1.67,0,0,1,2.27,1,3.47,3.47,0,0,1-.6,2.86A11.79,11.79,0,0,1,377,373.36Z" style="fill:#92E3A9"></path><path d="M402,372.82a11.9,11.9,0,0,1-3.48.38s.53-1.61.58-1.71c.54-1.13,2.25-3,3.64-2.82a1.67,1.67,0,0,1,1.34,2.09A3.47,3.47,0,0,1,402,372.82Z" style="fill:#92E3A9"></path><path d="M398.13,367.81h0c.06.39.11.82.16,1.28.09.87.18,1.84.2,2.91a29.08,29.08,0,0,1-.08,3.45,22.3,22.3,0,0,1-.64,3.81s0,0,0,0c.22-.35.87-1.3.93-1.37.82-.95,3-2.3,4.26-1.75a1.67,1.67,0,0,1,.74,2.37,3.47,3.47,0,0,1-2.55,1.43,11.75,11.75,0,0,1-3.43-.54,28.39,28.39,0,0,1-1.34,3.7c-.3.7-.63,1.4-1,2.1.2-.3.38-.56.41-.59.82-.95,3-2.31,4.26-1.76a1.67,1.67,0,0,1,.74,2.37,3.45,3.45,0,0,1-2.55,1.43,11,11,0,0,1-3.33-.51l-.4.8c-.63,1.27-1.28,2.53-1.87,3.79-.21.45-.4.89-.59,1.34.18-.26.33-.48.36-.51.82-.95,3-2.3,4.26-1.75a1.65,1.65,0,0,1,.74,2.36,3.5,3.5,0,0,1-2.55,1.44,10.77,10.77,0,0,1-3.24-.49c-.18.46-.36.92-.52,1.38s-.22.61-.3.92-.17.63-.26.94c-.14.6-.3,1.22-.42,1.81-.09.41-.17.8-.25,1.2.2-.45.62-1.31.66-1.38.67-1.06,2.58-2.72,4-2.37a1.65,1.65,0,0,1,1.08,2.22,3.49,3.49,0,0,1-2.3,1.81,11.72,11.72,0,0,1-3.45,0c-.13.65-.25,1.29-.36,1.89-.33,1.9-.55,3.51-.69,4.71h-.95c.17-1.22.43-2.89.83-4.86.13-.67.28-1.37.44-2.1a16.94,16.94,0,0,1-1.92-.9,11.86,11.86,0,0,1-2.81,1.8l.75,1.78c.76,1.75,1.46,3.2,2,4.28h-1c-.49-1-1.1-2.39-1.74-3.95-.25-.63-.52-1.3-.78-2a11.23,11.23,0,0,1-3.44.27,3.51,3.51,0,0,1-2.43-1.63,1.66,1.66,0,0,1,.92-2.3c1.33-.45,3.37,1.06,4.11,2.08,0,.06.45.76.7,1.2-.11-.28-.21-.56-.32-.85-.21-.58-.41-1.17-.62-1.8-.09-.3-.18-.61-.28-.93s-.16-.64-.25-1c-.18-.76-.33-1.54-.46-2.33a11.28,11.28,0,0,1-3.26.75,3.49,3.49,0,0,1-2.65-1.24,1.67,1.67,0,0,1,.56-2.42c1.25-.64,3.49.55,4.38,1.43l.93,1.16c-.08-.48-.16-.95-.22-1.43-.17-1.4-.3-2.81-.44-4.23,0-.43-.09-.86-.13-1.29a11.62,11.62,0,0,1-3.38.79,3.5,3.5,0,0,1-2.65-1.24,1.67,1.67,0,0,1,.56-2.42c1.25-.64,3.49.55,4.38,1.43.07.07.88,1.09,1.08,1.36-.1-.95-.21-1.9-.36-2.83a27.42,27.42,0,0,0-.81-3.71,11.92,11.92,0,0,1-3.39.8,3.49,3.49,0,0,1-2.65-1.24,1.67,1.67,0,0,1,.56-2.42c1.25-.64,3.49.55,4.38,1.43.06.06.68.84,1,1.21l.07,0a21.24,21.24,0,0,0-1.48-3.53c-.32-.63-.66-1.21-1-1.77a11,11,0,0,1-3.21,1.13,3.47,3.47,0,0,1-2.78-.94,1.67,1.67,0,0,1,.29-2.46c1.18-.78,3.53.16,4.52.94.05,0,.54.54.9.9-.16-.25-.32-.51-.48-.74-.58-.89-1.18-1.67-1.71-2.35-.3-.38-.59-.73-.86-1a11.12,11.12,0,0,1-3.35-.48,3.49,3.49,0,0,1-2-2.12,1.66,1.66,0,0,1,1.4-2c1.39-.16,3.06,1.76,3.57,2.91,0,.1.55,1.73.53,1.73h0c.26.3.54.62.84,1,.55.67,1.16,1.43,1.77,2.31a30.79,30.79,0,0,1,1.84,2.92,21.88,21.88,0,0,1,1.56,3.53.06.06,0,0,1,0,0c0-.41,0-1.56,0-1.65.16-1.25,1.2-3.56,2.59-3.81a1.66,1.66,0,0,1,1.92,1.56,3.5,3.5,0,0,1-1.34,2.61,12,12,0,0,1-3.15,1.44,28.79,28.79,0,0,1,.92,3.82c.14.75.25,1.51.35,2.28,0-.36,0-.68,0-.72.16-1.25,1.2-3.56,2.59-3.81a1.66,1.66,0,0,1,1.92,1.56,3.5,3.5,0,0,1-1.34,2.61,11.14,11.14,0,0,1-3.06,1.41c0,.29.08.59.11.88.17,1.41.33,2.82.54,4.2q.1.72.24,1.44a6.24,6.24,0,0,1,0-.63c.16-1.24,1.2-3.56,2.59-3.81a1.65,1.65,0,0,1,1.91,1.56,3.46,3.46,0,0,1-1.33,2.61,10.87,10.87,0,0,1-3,1.38c.1.49.2,1,.32,1.44.09.31.16.62.27.94l.3.92c.21.58.42,1.18.64,1.74q.22.58.45,1.14c-.07-.48-.2-1.43-.2-1.51a6.46,6.46,0,0,1,.86-3.15,2.19,2.19,0,0,1,0-.36,1.66,1.66,0,0,1,2-1.42c1.36.37,2.22,2.75,2.29,4,0,.07-.05.88-.09,1.39.07-.3.13-.59.21-.89.14-.6.3-1.2.47-1.84.09-.31.19-.62.28-.93s.22-.63.33-.95c.27-.73.58-1.47.9-2.2a10.9,10.9,0,0,1-3.13-1.17,3.49,3.49,0,0,1-1.53-2.5,1.66,1.66,0,0,1,1.8-1.7c1.4.15,2.61,2.38,2.87,3.61,0,.07.09,1,.13,1.47.2-.44.4-.87.61-1.31.63-1.26,1.3-2.51,2-3.77l.6-1.15a11.54,11.54,0,0,1-3.25-1.2,3.46,3.46,0,0,1-1.53-2.5,1.67,1.67,0,0,1,1.8-1.71c1.4.16,2.61,2.38,2.86,3.61,0,.1.14,1.4.16,1.73.44-.85.87-1.7,1.26-2.55a30.46,30.46,0,0,0,1.37-3.55,12,12,0,0,1-3.27-1.2,3.55,3.55,0,0,1-1.53-2.5,1.67,1.67,0,0,1,1.8-1.71c1.4.15,2.61,2.38,2.87,3.61,0,.08.1,1.07.14,1.55h.08a21.83,21.83,0,0,0,.71-3.75c.08-.7.12-1.37.14-2a11,11,0,0,1-3.31-.83,3.47,3.47,0,0,1-1.79-2.31,1.68,1.68,0,0,1,1.6-1.9c1.41,0,2.86,2.08,3.25,3.28,0,.06.16.75.25,1.25,0-.3,0-.6,0-.89,0-1.06-.07-2-.14-2.9,0-.49-.09-.93-.14-1.34a11.3,11.3,0,0,1-2.53-2.25,3.45,3.45,0,0,1-.52-2.88,1.65,1.65,0,0,1,2.29-.94c1.25.64,1.58,3.16,1.37,4.4C398.62,366.18,398.15,367.83,398.13,367.81Z" style="fill:#92E3A9"></path><path d="M341.61,366.68s-.63-2.3-.65-2.46c-.25-1.74.31-5.26,2.09-6.12a2.34,2.34,0,0,1,3.18,1.41,4.89,4.89,0,0,1-.85,4C344.54,364.83,341.61,366.68,341.61,366.68Z" style="fill:#92E3A9"></path><path d="M376.66,365.92c-1.42.61-4.88.54-4.89.54s.75-2.27.81-2.41c.76-1.59,3.17-4.22,5.13-3.95a2.33,2.33,0,0,1,1.87,2.93A4.88,4.88,0,0,1,376.66,365.92Z" style="fill:#92E3A9"></path><path d="M371.28,358.89l0,0c.07.56.15,1.16.22,1.81.12,1.21.25,2.58.28,4.08a42.18,42.18,0,0,1-.11,4.84,31.7,31.7,0,0,1-.9,5.34.25.25,0,0,0,0,.07c.31-.49,1.22-1.83,1.31-1.92,1.15-1.33,4.16-3.23,6-2.46a2.33,2.33,0,0,1,1,3.32,4.86,4.86,0,0,1-3.58,2c-1.47.22-4.56-.68-4.81-.75a41,41,0,0,1-1.87,5.19c-.43,1-.89,2-1.36,2.94l.58-.83c1.15-1.33,4.17-3.23,6-2.46a2.34,2.34,0,0,1,1,3.32,4.89,4.89,0,0,1-3.58,2,15.55,15.55,0,0,1-4.68-.72l-.55,1.12c-.89,1.78-1.8,3.55-2.63,5.32-.29.63-.56,1.25-.82,1.88.25-.37.46-.68.5-.72,1.15-1.34,4.16-3.23,6-2.46a2.33,2.33,0,0,1,1,3.32,4.88,4.88,0,0,1-3.58,2,14.72,14.72,0,0,1-4.55-.68c-.26.65-.51,1.3-.73,1.93-.14.44-.31.86-.42,1.31s-.25.88-.37,1.31c-.2.84-.41,1.71-.59,2.54-.13.58-.24,1.13-.35,1.68.28-.62.87-1.83.93-1.93.93-1.49,3.62-3.82,5.54-3.34a2.34,2.34,0,0,1,1.52,3.13,4.85,4.85,0,0,1-3.23,2.53,15.9,15.9,0,0,1-4.84,0c-.18.91-.35,1.81-.5,2.65-.47,2.67-.78,4.93-1,6.62H356.8c.24-1.72.61-4.06,1.16-6.83.18-.93.4-1.92.63-2.94a23.93,23.93,0,0,1-2.7-1.27,17.65,17.65,0,0,1-3.94,2.54c.35.86.7,1.7,1.05,2.49,1.06,2.45,2.05,4.5,2.81,6h-1.45c-.69-1.48-1.54-3.35-2.44-5.56-.36-.87-.73-1.82-1.1-2.79a16.35,16.35,0,0,1-4.83.37,4.88,4.88,0,0,1-3.41-2.29,2.33,2.33,0,0,1,1.29-3.22c1.87-.63,4.73,1.49,5.77,2.91.07.08.63,1.07,1,1.69-.15-.4-.3-.78-.44-1.19-.3-.82-.58-1.64-.87-2.52-.13-.43-.26-.87-.4-1.31s-.23-.91-.35-1.37c-.25-1.07-.46-2.16-.64-3.27a15.1,15.1,0,0,1-4.58,1.05,4.87,4.87,0,0,1-3.72-1.74,2.34,2.34,0,0,1,.78-3.39c1.76-.9,4.9.77,6.15,2,.08.08.88,1.07,1.3,1.63-.1-.67-.21-1.34-.29-2-.25-2-.43-3.95-.62-5.93-.06-.61-.13-1.22-.19-1.82-.26.09-3.26,1.21-4.74,1.11a4.9,4.9,0,0,1-3.72-1.74,2.34,2.34,0,0,1,.78-3.39c1.76-.91,4.91.76,6.15,2,.1.1,1.24,1.53,1.52,1.91-.15-1.34-.3-2.66-.5-4a41.12,41.12,0,0,0-1.14-5.21c-.12,0-3.25,1.23-4.76,1.12a4.89,4.89,0,0,1-3.72-1.74,2.34,2.34,0,0,1,.78-3.39c1.76-.91,4.9.76,6.15,2,.08.08.95,1.17,1.36,1.69l.1,0a29.87,29.87,0,0,0-2.07-5c-.45-.88-.93-1.69-1.41-2.47a15.61,15.61,0,0,1-4.51,1.58,4.87,4.87,0,0,1-3.89-1.32,2.33,2.33,0,0,1,.4-3.45c1.65-1.1,5,.22,6.34,1.31l1.27,1.27c-.23-.35-.45-.72-.67-1.05-.83-1.24-1.66-2.33-2.41-3.29-.42-.54-.82-1-1.2-1.47a15.36,15.36,0,0,1-4.71-.67,4.89,4.89,0,0,1-2.84-3,2.34,2.34,0,0,1,1.95-2.88c2-.21,4.3,2.48,5,4.09.06.14.78,2.43.74,2.43h0c.37.42.76.87,1.18,1.38.77,1,1.63,2,2.49,3.25a41.52,41.52,0,0,1,2.57,4.1,30.63,30.63,0,0,1,2.2,4.95s0,0,0,.06c0-.58,0-2.19,0-2.32.23-1.75,1.69-5,3.63-5.35a2.34,2.34,0,0,1,2.7,2.2,4.88,4.88,0,0,1-1.88,3.65c-1.1,1-4.18,1.95-4.42,2a41.12,41.12,0,0,1,1.29,5.36c.19,1.06.35,2.13.49,3.2,0-.5,0-.95,0-1,.23-1.75,1.69-5,3.63-5.35a2.34,2.34,0,0,1,2.7,2.2,4.88,4.88,0,0,1-1.88,3.65,15.39,15.39,0,0,1-4.29,2c0,.42.11.83.15,1.24.24,2,.47,4,.75,5.89.1.69.22,1.35.34,2,0-.44,0-.82,0-.87.23-1.75,1.69-5,3.63-5.36a2.34,2.34,0,0,1,2.7,2.2,4.92,4.92,0,0,1-1.88,3.66,15,15,0,0,1-4.17,1.94c.15.68.29,1.36.46,2,.13.45.22.88.37,1.32l.42,1.3c.29.81.59,1.66.9,2.44.21.55.43,1.07.64,1.6-.11-.68-.29-2-.29-2.12a9.14,9.14,0,0,1,1.21-4.42,2.92,2.92,0,0,1,0-.51,2.32,2.32,0,0,1,2.85-2c1.91.5,3.12,3.85,3.21,5.61,0,.11-.06,1.24-.12,2,.1-.41.19-.81.29-1.24.2-.84.43-1.68.66-2.58.14-.43.27-.87.4-1.31s.31-.88.46-1.33c.38-1,.81-2.06,1.27-3.08a15.59,15.59,0,0,1-4.4-1.65,4.87,4.87,0,0,1-2.14-3.51,2.33,2.33,0,0,1,2.52-2.39c2,.21,3.67,3.34,4,5.06,0,.11.14,1.38.19,2.08.28-.62.56-1.23.86-1.84.88-1.77,1.82-3.53,2.75-5.29.29-.54.57-1.08.85-1.62a16.3,16.3,0,0,1-4.56-1.69,4.86,4.86,0,0,1-2.14-3.51,2.33,2.33,0,0,1,2.52-2.39c2,.22,3.66,3.34,4,5.07,0,.13.19,1.95.21,2.42.62-1.19,1.23-2.38,1.77-3.58a40.21,40.21,0,0,0,1.93-5c-.12,0-3.39-.77-4.59-1.69a4.89,4.89,0,0,1-2.14-3.51,2.34,2.34,0,0,1,2.52-2.39c2,.21,3.67,3.34,4,5.07,0,.11.15,1.5.2,2.16h.11a30.15,30.15,0,0,0,1-5.27c.11-1,.16-1.92.18-2.84a15.56,15.56,0,0,1-4.63-1.17,4.89,4.89,0,0,1-2.52-3.25,2.34,2.34,0,0,1,2.25-2.65c2,0,4,2.92,4.55,4.59,0,.09.23,1.06.37,1.76,0-.42,0-.85,0-1.24,0-1.5-.09-2.86-.19-4.07,0-.69-.12-1.31-.19-1.89a16.08,16.08,0,0,1-3.56-3.16,4.9,4.9,0,0,1-.73-4,2.32,2.32,0,0,1,3.21-1.32c1.76.9,2.22,4.43,1.93,6.17C372,356.6,371.31,358.91,371.28,358.89Z" style="fill:#92E3A9"></path><path d="M430.33,168.33s-39.33,17.34-32.66,18S415,181.67,415,181.67,391.67,197,397,199s10.67-5.33,10.67-5.33-20,30.66-9.34,29.33S419,198.33,419,198.33s0,17.34,4.67,12.67,8.66-15.33,8.66-15.33-.66,10,4.67,6.66,10-24,10-30S433,163,430.33,168.33Z" style="fill:#92E3A9"></path><path d="M453.67,227.67s-61.34,20-60,24.66,14,.67,14,.67S378.33,267,383,271.67s20.67-4,20.67-4S371,297.67,378.33,299,400,293,400,293s-21,24-16.33,28.67,16.66-10,16.66-10-2,16,4.67,13.33a47.45,47.45,0,0,0,12-7.33s-7.33,16,0,16.66,30-37.33,42.67-56.66S482.33,207,453.67,227.67Z" style="fill:#92E3A9"></path></g></g><g id="freepik--Rock--inject-9"><path d="M235.61,412c-2-2.68-6-8.15-6.38-9-.57-1.13-4.24-7.63-4.81-10.17s-4.8-8.2-5.65-9.61-4.24-5.65-4.24-5.65-3.67-8.76-4.52-13-5.09-5.37-9-7.91-7.91-6.22-8.95-6.7-6.31-.37-7.44-.37-12.15-2-12.15-2-9.05-3.68-10.74-3.68h-9.61c-1.41,0-4.8,2.83-4.8,2.83l-12.72,11.87s-11.58,3.95-13.85,4.52-4.52,7.06-5.65,10.17S93.3,392.23,93,393.08c-.22.67-4.4,13.42-6.2,18.89Z" style="fill:#263238"></path><path d="M201.5,408l-5.63,4h39.74c-2-2.68-6-8.15-6.38-9-.57-1.13-4.24-7.63-4.81-10.17s-4.8-8.2-5.65-9.61-4.24-5.65-4.24-5.65-3.67-8.76-4.52-13-5.09-5.37-9-7.91a79,79,0,0,1-6.57-4.93l1.08,1.47,8.55,7.6.32,7,1.9,4.75s4.11,5.7,5.69,7.6-8.23,3.48-8.23,3.48l3.17,8.87,8.23,8.23-5.7,1.59Z" style="fill:#fff;opacity:0.18"></path></g><g id="freepik--Character--inject-9"><path d="M156,335.37s-.18,5.67,1.83,7.68,7.31,1.09,8.77.91a4.85,4.85,0,0,0,3.47-4.75,50.57,50.57,0,0,0-1.28-6.58S166,336.11,156,335.37Z" style="fill:#fff;stroke:#263238;stroke-linecap:round;stroke-linejoin:round"></path><path d="M169.53,341.45c-8.11,1.93-12.47.32-12.47.32H157a4.28,4.28,0,0,0,.82,1.27c2,2,7.31,1.09,8.77.91A4.62,4.62,0,0,0,169.53,341.45Z" style="fill:#fff;stroke:#263238;stroke-linecap:round;stroke-linejoin:round;stroke-width:0.75px"></path><path d="M150.81,242.75s5.51,26.7,6.36,32.21-.43,11.45-1.7,15.68-2.33,17-1.69,22.26,1.48,11.87,1.48,13.77-.42,4,0,6.79l.42,2.75a38.48,38.48,0,0,0,7.42.64c2.76-.21,5.09-1.27,5.94-2.76s1.27-5.08,1.27-7-1.7-11.45-1.7-17,4-18.22,4.88-24.16a216.74,216.74,0,0,0,1.69-22c0-4.66-.42-10.81,0-11.44s.85-8.69.85-8.69a77.53,77.53,0,0,1-13.14-.85C156.53,241.9,153.78,241.05,150.81,242.75Z" style="fill:#263238"></path><path d="M172.8,276.47s2.63,4.68-2.64,11.71-13.47,16.4-13.76,23.72" style="fill:none;stroke:#fff;stroke-linecap:round;stroke-linejoin:round"></path><path d="M167.65,335.56s-3.65,7.49-2.55,9.13,7.85,4.93,12.05,5.66a95.47,95.47,0,0,0,13.15.92c2.38,0,1.83-2,1.1-2.93s-6.39-5.29-7.67-6.39A26.7,26.7,0,0,1,181,339S169.85,335.37,167.65,335.56Z" style="fill:#fff;stroke:#263238;stroke-linecap:round;stroke-linejoin:round"></path><path d="M177.52,349.08a35.2,35.2,0,0,1-12.59-5.88,2.32,2.32,0,0,0,.17,1.49c1.09,1.65,7.85,4.93,12.05,5.66a95.47,95.47,0,0,0,13.15.92c1.33,0,1.74-.63,1.72-1.34A36.87,36.87,0,0,1,177.52,349.08Z" style="fill:#fff;stroke:#263238;stroke-linecap:round;stroke-linejoin:round;stroke-width:0.75px"></path><path d="M167.13,245.5s14.41,27.77,16.32,32.43a10.6,10.6,0,0,1-.85,10,49.84,49.84,0,0,0-4.87,13.35,103.15,103.15,0,0,1-5.09,17.8c-1.91,4.46-6.15,11.66-5.72,13.14a32.12,32.12,0,0,1,.63,4.67s7,3.18,10,3.18,4.67,0,5.09-1.06,2.12-3.82,2.12-6.57-.64-4-.42-6.36,11.23-21.62,11.65-28,5.09-13.14,4.24-18.44-3.6-31.36-6.36-34.33S167.13,245.5,167.13,245.5Z" style="fill:#263238"></path><line x1="172.8" y1="258.02" x2="168.7" y2="251.87" style="fill:none;stroke:#fff;stroke-linecap:round;stroke-linejoin:round;stroke-width:0.75px"></line><path d="M186.27,278.22s1.76,5,5.56,5.86a11,11,0,0,0,6.45-.29" style="fill:none;stroke:#fff;stroke-linecap:round;stroke-linejoin:round;stroke-width:0.75px"></path><path d="M187.15,285s4.39,2.93,8.78,1.75" style="fill:none;stroke:#fff;stroke-linecap:round;stroke-linejoin:round;stroke-width:0.75px"></path><path d="M180.71,329.76s-11.43,1.47-10,2.93,12.59-.58,12.59-.58" style="fill:none;stroke:#fff;stroke-linecap:round;stroke-linejoin:round;stroke-width:0.75px"></path><path d="M150.81,234.9s0,.33-.1.87c-.33,2.89-1.35,12.1-1.17,12.28s4.24-4.46,9.11-2.34a37.72,37.72,0,0,0,16.74,3.61c7.42,0,12.51-2.55,15.9-2.55a37.78,37.78,0,0,1,8.05,1.28s-4.87-5.73-6.14-8.48a42.09,42.09,0,0,1-1.91-4.88s-18.23,0-27.55.43S150.81,234.9,150.81,234.9Z" style="fill:#fff"></path><g style="clip-path:url(#freepik--clip-path-2--inject-9)"><path d="M194.79,247.09c-.75-1.19-2-3.11-3.08-4.72a26.77,26.77,0,0,1,3-.35,22,22,0,0,1-1.2-1.91,27.75,27.75,0,0,0-3.07.46.76.76,0,0,0-.11-.14,6.79,6.79,0,0,1-1.08-5.73h-2a8.71,8.71,0,0,0,1.15,6.38c-.65.18-1.26.36-1.86.55a24.25,24.25,0,0,1-5.13,1.14c.07-.29.15-.58.23-.88.51-2,1.15-4.49,1.66-7.16h-2c-.49,2.47-1.08,4.77-1.56,6.65l-.36,1.4a23.48,23.48,0,0,1-5.24-1c-.54-.17-1.11-.3-1.68-.43a57.4,57.4,0,0,0,.37-6.51l-2,0a58.27,58.27,0,0,1-.34,6.11,44.33,44.33,0,0,0-8.94-.26,29.79,29.79,0,0,0,1-5.58l-2,.06a22.93,22.93,0,0,1-1.2,5.7,81.07,81.07,0,0,0-9.26,1.49c-.08.73-.15,1.44-.21,2.11a83,83,0,0,1,8.56-1.47c-.37.82-.73,1.56-1.08,2.23a6.88,6.88,0,0,1,1.39.42l.53.23c.46-.92.95-1.94,1.45-3.11A43.39,43.39,0,0,1,170,243c-.47,2.26-1,4.2-1.46,5.82q1,.15,2,.27c.47-1.62,1-3.52,1.42-5.74.49.11,1,.23,1.46.37a25.23,25.23,0,0,0,5.36,1,6,6,0,0,0-.12,1v3.4c.69-.07,1.36-.15,2-.25v-3.15a5.48,5.48,0,0,1,.15-1,23.26,23.26,0,0,0,6.19-1.25c.8-.24,1.63-.49,2.53-.72.85,1.19,1.84,2.72,2.66,4A25.15,25.15,0,0,1,194.79,247.09Z" style="fill:#92E3A9"></path></g><path d="M150.81,234.9s0,.33-.1.87c-.33,2.89-1.35,12.1-1.17,12.28s4.24-4.46,9.11-2.34a37.72,37.72,0,0,0,16.74,3.61c7.42,0,12.51-2.55,15.9-2.55a37.78,37.78,0,0,1,8.05,1.28s-4.87-5.73-6.14-8.48a42.09,42.09,0,0,1-1.91-4.88s-18.23,0-27.55.43S150.81,234.9,150.81,234.9Z" style="fill:none;stroke:#263238;stroke-linecap:round;stroke-linejoin:round"></path><path d="M187.26,178.53s10-.42,11.66.63,2.12,7.42,3.81,12.09a62.57,62.57,0,0,1,2.55,10s2.54-.85,3.6,6.14-1.06,11.66-3,14.41-4.87,4.67-12.5.85c0,0,1.91,4,1.91,5.94s-2.76,4-2.76,4a261.46,261.46,0,0,1-26.28,1.91c-13.35.21-15.68-1.06-16.32-3s-1.06-31.58-.42-39.63,6.36-14,10.6-15.47S187.26,178.53,187.26,178.53Z" style="fill:#fff"></path><g style="clip-path:url(#freepik--clip-path-3--inject-9)"><path d="M206.64,216.63a2,2,0,0,1-.6-.16,27.8,27.8,0,0,0,3.11-6.17,24.49,24.49,0,0,0-.27-3h0l-1-.12a21.29,21.29,0,0,1-3.27,7.72,11.18,11.18,0,0,1-.91-2.73,18.78,18.78,0,0,0,2.86-3.91l-1.75-1a15.78,15.78,0,0,1-1.54,2.29c-.18-1.55-.29-3.22-.34-4.88,1.4-.76,2.88-1.55,4.38-2.34-.88-1.33-1.76-1.26-2-1.22-.83.44-1.66.88-2.46,1.32,0-1.29,0-2.52,0-3.63a16.66,16.66,0,0,0-.09-1.72,16.28,16.28,0,0,1,1.58-.44c-.15-.62-.31-1.26-.5-1.93q-.69.15-1.38.36a36.85,36.85,0,0,0-2.19-7.14c.45-.17.9-.34,1.38-.5-.09-.37-.18-.73-.26-1.1l-.27-.83c-.57.18-1.11.38-1.64.59-.8-1.76-1.57-3.22-2.09-4.15a11,11,0,0,1,2-.46l-.22-2a16.49,16.49,0,0,0-7.33,3.14l0-.13-2.34-.64a17.43,17.43,0,0,1,2.73-2.64l-.59-.85h-1.54a23.82,23.82,0,0,0-2.74,2.9l-5.1-1.4a6.66,6.66,0,0,1,2.1-1.84l-2.75-.39a9.78,9.78,0,0,0-1.39,1.68l-4-1.07.55-1.23-2.1-.25c-.13.31-.27.62-.41,1-1.6-.43-3.08-.81-4.3-1.12l.16-.29a48.12,48.12,0,0,0-9.16-.2c2.14.66,4.24,1.28,6,1.78-.5,1-1,2.07-1.54,3.26a69.26,69.26,0,0,1-10.24-1.61,19.8,19.8,0,0,0-1.54,1.71,81.21,81.21,0,0,0,11,1.85,58.26,58.26,0,0,0-2.72,8.59c-4.13-.81-8.45-1.86-12-2.78-.15.65-.26,1.31-.35,2,3.55.91,7.82,1.94,11.94,2.76a46,46,0,0,0-.71,5.73l-.94-.26c-3.44-.95-6.42-1.76-8.33-1.76a17.64,17.64,0,0,1-2.29-.23c0,.64,0,1.31,0,2a17.5,17.5,0,0,0,2.33.22c1.64,0,4.63.82,7.8,1.69l1.41.38c0,.64,0,1.28,0,1.93-3.58-1.22-6.7-2.17-9.17-2.17-.76,0-1.55,0-2.35-.07,0,.65,0,1.32,0,2,.8,0,1.6.07,2.37.07,2.29,0,5.6,1.06,9.16,2.28,0,1.29,0,2.6,0,3.92-1.8-.7-3.57-1.42-5.25-2.1-2.34-.95-4.45-1.8-6.29-2.48,0,.7,0,1.41,0,2.13,1.71.64,3.61,1.41,5.55,2.2s3.95,1.61,6,2.41c0,1.15,0,2.31.05,3.45,0,.29,0,.58,0,.87l-11.58-2.54c0,.69,0,1.38,0,2L160.88,218c.05,3.14.07,6.25,0,9.18a102,102,0,0,1-11.37-1.92c0,.75.05,1.44.08,2.07a104.52,104.52,0,0,0,11.24,1.84c-.06,1.88-.16,3.65-.31,5.27l2,0c.14-1.58.24-3.29.3-5.1,2.71.24,5.33.38,7.86.44,0,1.59,0,3.1,0,4.52l2-.09c0-1.38,0-2.85,0-4.39,3.23,0,6.31,0,9.25-.14-.14,1.34-.35,2.67-.58,4l2.06-.17c.22-1.27.41-2.56.54-3.87,1.7,0,3.29-.07,4.76,0a5.76,5.76,0,0,1-.55,2,12.48,12.48,0,0,0-.61,1.48l2.25-.24c0-.12.09-.23.15-.35a7.75,7.75,0,0,0,.77-2.89c1.58.05,3,.13,4.18.23a3,3,0,0,0,.39-1.34,5.24,5.24,0,0,0-.06-.65c-1.3-.11-2.82-.2-4.54-.25a21.85,21.85,0,0,0-1-4.4,7.19,7.19,0,0,0,4.23-1.58c.36.6.74,1.16,1.13,1.7a17.6,17.6,0,0,0,3.74,1.19c.86-.74,1.67-1.49,2.41-2.22a9,9,0,0,0,2,1.89,5.13,5.13,0,0,0,.65-.36l.7-1.14a6.73,6.73,0,0,1-1.92-1.86,34.92,34.92,0,0,0,2.27-2.74,4,4,0,0,0,1.59.49,4.35,4.35,0,0,0,.51,0c.24,0,.47,0,.7,0a17.77,17.77,0,0,0,.78-2.24A4,4,0,0,1,206.64,216.63Zm-5.12-5.09a19.34,19.34,0,0,1-2,1.61,55.83,55.83,0,0,1-.94-6l2.34-1.3A45,45,0,0,0,201.52,211.54Zm-.66-12.66c0,1.53,0,3.12,0,4.71L198.44,205c-.14-1.82-.22-3.77-.25-5.81.86-.45,1.74-.88,2.63-1.25C200.84,198.22,200.86,198.56,200.86,198.88Zm-.29-3c-.82.32-1.63.68-2.42,1.07a21.81,21.81,0,0,0-1.44-7.19c.54-.32,1.11-.62,1.72-.92A35.23,35.23,0,0,1,200.57,195.83Zm-5.06-13.08c.49.86,1.28,2.36,2.13,4.21-.61.28-1.2.58-1.75.89a20.29,20.29,0,0,0-2.48-3.85A14.3,14.3,0,0,1,195.51,182.75Zm.7,17.51c0,1.89.14,3.84.3,5.77-1.47.83-2.79,1.58-3.89,2.22,0-1.71-.16-3.53-.34-5.38C193.39,202.07,194.73,201.15,196.21,200.26Zm-4.17.31c-.24-2.18-.54-4.34-.85-6.32a21.47,21.47,0,0,1,3.79-3.43,19.75,19.75,0,0,1,1.2,6.78V198C194.66,198.82,193.25,199.73,192,200.57Zm-.16-15.25a18.73,18.73,0,0,1,2.29,3.6,23.94,23.94,0,0,0-3.39,2.79c-.26-1.58-.51-2.94-.71-4A11.69,11.69,0,0,1,191.88,185.32Zm-3.64-1.68,2,.55a14.53,14.53,0,0,0-1.15,1.4l-1.4.29.08.42-1-.34A24.51,24.51,0,0,1,188.24,183.64Zm.21,9c.06-.46.14-.91.23-1.33.13.73.26,1.5.38,2.32q-.44.57-.78,1.08c0-.58.05-1.13.11-1.66l.18-.06Zm-.47-5.25a15.08,15.08,0,0,0-1.37,4.1c-.55.15-1.26.32-2.12.51l0-.15a24.63,24.63,0,0,1,1.38-4.1l1.57.55.45-1.24C187.94,187.19,188,187.29,188,187.41Zm-6.75-5.68,4.94,1.35c-.45.68-.89,1.42-1.32,2.23-1.26-.41-2.8-.9-4.49-1.39A16.11,16.11,0,0,1,181.23,181.73Zm-1.87,8.1a30.52,30.52,0,0,1,.51-4c1.53.44,2.94.89,4.12,1.27a27,27,0,0,0-1.42,4.27c-.07.33-.13.67-.19,1-.93.16-2,.3-3.09.43C179.28,191.83,179.3,190.82,179.36,189.83ZM182,201.22l-2,.11c-.32-2.17-.55-4.34-.66-6.47,1-.1,1.87-.22,2.71-.35A37.44,37.44,0,0,0,182,201.22Zm.17,2c.15,1.42.36,2.82.6,4.19l-1.66.15c-.27-1.4-.52-2.81-.76-4.23Zm-6.6-23,3.73,1a17.49,17.49,0,0,0-.83,2.18c-1.22-.33-2.48-.65-3.74-.94C175,181.64,175.27,180.89,175.55,180.2Zm2.4,5.12a30,30,0,0,0-.59,4.38c-.07,1.09-.08,2.21-.06,3.33-1.37.1-2.83.17-4.4.17l-.86,0a50.31,50.31,0,0,1,2-8.83C175.37,184.64,176.68,185,178,185.32Zm-8.87-6.81.17,0,4.34,1.13c-.29.73-.58,1.51-.87,2.33a40,40,0,0,0-5-.7C168.19,180.29,168.65,179.35,169.08,178.51Zm-5.52,15.61c2.23.41,4.38.73,6.28.91,0,.42-.05.84-.07,1.26-.06,1.48-.06,3.24,0,5.2a60.51,60.51,0,0,1-6.89-1.48A40.68,40.68,0,0,1,163.56,194.12Zm-.76,7.95a58.26,58.26,0,0,0,7,1.45c0,.93.05,1.9.08,2.89-2.4-.66-4.81-1.48-7.1-2.27C162.77,203.43,162.78,202.75,162.8,202.07Zm0,4.18c2.32.8,4.74,1.61,7.18,2.25.05,1.39.11,2.82.17,4.27-2.41-.71-4.89-1.58-7.33-2.5C162.76,208.92,162.76,207.58,162.76,206.25Zm.08,8.82c0-.88,0-1.77,0-2.66,2.47.92,5,1.78,7.4,2.47V215c0,1,.09,2.06.13,3.1l-7.47-1.69C162.85,216,162.85,215.52,162.84,215.07Zm.06,12.34c0-2.82,0-5.83,0-8.93,2.57.57,5.12,1.14,7.52,1.7.11,2.6.2,5.19.26,7.68C168.15,227.79,165.57,227.65,162.9,227.41ZM170,193c-1.82-.17-3.89-.49-6.06-.88a57.86,57.86,0,0,1,2.89-8.88,31.7,31.7,0,0,1,5.22.65A51.81,51.81,0,0,0,170,193Zm1.73,3.32c0-.39,0-.79.07-1.19l1.06,0c1.59,0,3.08-.07,4.46-.17.12,2.13.34,4.28.65,6.42l-4.32.27a16,16,0,0,1-1.95,0C171.71,199.68,171.71,197.87,171.77,196.36Zm0,7.34c.36,0,.71,0,1.06,0s.65,0,1,0l4.51-.27c.24,1.44.49,2.86.77,4.27a25.53,25.53,0,0,1-7.21-.79C171.84,205.81,171.81,204.74,171.78,203.7ZM172,209a29.14,29.14,0,0,0,6.17.76c.45,0,.9,0,1.35-.06l.65,3.19c.12.54.23,1.08.34,1.61h-.76a31.24,31.24,0,0,1-7.58-1.16C172.07,211.86,172,210.4,172,209Zm.26,6.43a32.16,32.16,0,0,0,7.49,1.07h1.16c.29,1.47.56,2.89.77,4.22-.91-.17-1.9-.38-3-.64-1.88-.46-4-1-6.32-1.49C172.31,217.52,172.26,216.47,172.22,215.42Zm9.88,12.31c-3,.12-6.18.19-9.43.16-.06-2.33-.14-4.77-.24-7.25,2.09.48,4,.94,5.77,1.36,1.35.33,2.59.59,3.73.79.09.74.16,1.46.19,2.12A26.57,26.57,0,0,1,182.1,227.73Zm0-15.26c-.2-1-.4-1.95-.61-2.95l1.65-.15c.38,1.8.8,3.49,1.24,5l-1.87.08C182.37,213.8,182.23,213.14,182.09,212.47Zm1.63,8.58c-.22-1.45-.5-3-.82-4.61.77,0,1.45-.06,2.07-.1.37,1.15.73,2.16,1.06,2.95s.57,1.38.84,2.06C186,221.31,184.91,221.22,183.72,221.05Zm.39,6.62c0-1,.06-1.92,0-2.86,0-.54-.08-1.12-.14-1.71a30.12,30.12,0,0,0,3.63.26,21.75,21.75,0,0,1,1.08,4.25C187.28,227.6,185.74,227.62,184.11,227.67Zm8.72-7.83s-.6,1.2-3.83,1.47c-.35-.91-.73-1.84-1.12-2.79-.27-.64-.56-1.45-.87-2.37,3.22-.41,3.54-1.1,3.74-1.54a1.24,1.24,0,0,0-.2-1.35L189,214.57a.78.78,0,0,1-.18-.56.61.61,0,0,1,.18-.38,6.57,6.57,0,0,1-2.63.58c-.44-1.5-.87-3.2-1.26-5l2.36-.22c.46-.05.84-.09,1.15-.14.74-.13,1-.36,1-1l-1-.95v1h0l-.15-1c-.07,0-.56.07-3.72.37-.25-1.34-.45-2.72-.61-4.11l4.13-.24-.11-2-4.2.24a35.57,35.57,0,0,1,.14-6.95c.86-.17,1.59-.34,2.21-.5,0,.6-.07,1.2-.07,1.84h1.53a11.83,11.83,0,0,0-.91,1.76l1.86.73a11.48,11.48,0,0,1,.76-1.43c.25,1.74.48,3.57.68,5.39-1.26.95-2.07,1.64-2.18,1.73l1.31,1.52s.42-.36,1.09-.89c.14,1.79.23,3.53.24,5.12l-1.64,1,1,1.71.71-.42a23.55,23.55,0,0,0,1,5.14c-.67.17-1.09.25-1.11.25l.33,2c.1,0,.64-.11,1.47-.34.17.4.34.8.53,1.17Zm.81-3.63a22.22,22.22,0,0,1-1-5.68c1.09-.63,2.46-1.42,4.06-2.32a51.68,51.68,0,0,0,1,6.1A25,25,0,0,1,193.64,216.21Zm3.74,6.93a21.19,21.19,0,0,1-3-5,27.47,27.47,0,0,0,4-1.77,21.73,21.73,0,0,0,1.76,4.28C199.26,221.45,198.36,222.29,197.38,223.14Zm4.14-4.08a22.78,22.78,0,0,1-1.42-3.81,21.27,21.27,0,0,0,1.93-1.46,9.89,9.89,0,0,0,1.35,3Q202.56,217.88,201.52,219.06Z" style="fill:#92E3A9"></path><path d="M205.28,201.21s1.27,8.26,1.27,10.81" style="fill:none;stroke:#263238;stroke-linecap:round;stroke-linejoin:round"></path></g><path d="M187.26,178.53s10-.42,11.66.63,2.12,7.42,3.81,12.09a62.57,62.57,0,0,1,2.55,10s2.54-.85,3.6,6.14-1.06,11.66-3,14.41-4.87,4.67-12.5.85c0,0,1.91,4,1.91,5.94s-2.76,4-2.76,4a261.46,261.46,0,0,1-26.28,1.91c-13.35.21-15.68-1.06-16.32-3s-1.06-31.58-.42-39.63,6.36-14,10.6-15.47S187.26,178.53,187.26,178.53Z" style="fill:none;stroke:#263238;stroke-linecap:round;stroke-linejoin:round"></path><path d="M192.88,159.37s3.77-.61,4,1.09c.29,2.39.5,3.74-1.9,4.09S192,161.26,192.88,159.37Z" style="fill:#263238;stroke:#263238;stroke-linecap:round;stroke-linejoin:round"></path><path d="M193.76,156.85s-.86,2.75-.17,4.3,1.55,6,.86,8.24-2.75,6-4.47,6.53-5-1.21-5.49-1.55,3.09-4.29,1.2-5.15-2.58-6.7-1-8.59a11.67,11.67,0,0,1,4.29-2.92Z" style="fill:#fff;stroke:#263238;stroke-linecap:round;stroke-linejoin:round"></path><path d="M171.09,163.21a.73.73,0,0,1,.32.6c0,.43-.23,1.11-1.35,2.14-2.23,2.07-4.47,3.44-4.47,6s1.38,2.4,8.76,4.46,15-1.89,15.46-5.49-3.78-5-3.09-7.39a18.46,18.46,0,0,1,1.89-4.29s-7.21,2.06-10.48,2.06S170.77,162.6,171.09,163.21Z" style="fill:#263238;stroke:#263238;stroke-linecap:round;stroke-linejoin:round"></path><path d="M169.2,149.64s-1.2,4-.51,5.32,2.06,7.39,2.4,8.25,6.7-.69,11.51-1,16-6.19,17.52-8.08,1.72-1.71-.69-1.71-6.7.34-6.7.34-2.75-5.67-5.49-7.73-7.9-2.4-10.48-1.72-7.56,4.12-8.07,5.33S169.2,149.64,169.2,149.64Z" style="fill:#92E3A9;stroke:#263238;stroke-linecap:round;stroke-linejoin:round"></path><path d="M184.67,161.81c5.38-1.38,14.1-6.05,15.45-7.71,1.54-1.89,1.72-1.71-.69-1.71s-6.7.34-6.7.34S188.53,159.67,184.67,161.81Z" style="fill:#fff;stroke:#263238;stroke-linecap:round;stroke-linejoin:round"></path><path d="M169.2,149.64a12.75,12.75,0,0,0,5.15-.17" style="fill:none;stroke:#263238;stroke-linecap:round;stroke-linejoin:round"></path><line x1="186.21" y1="162" x2="196.84" y2="159.92" style="fill:none;stroke:#263238;stroke-linecap:round;stroke-linejoin:round"></line><path d="M162.68,173.87a16,16,0,0,1,8.26-.64c4.67.85,15.05,3.6,18.65,4s2.12,1.06-.63,2.12-8.05,4.24-11,5.3-15.47-2.55-18.23-4.46S159.76,175.77,162.68,173.87Z" style="fill:#92E3A9;stroke:#263238;stroke-linecap:round;stroke-linejoin:round"></path><path d="M193.41,222.61a20,20,0,0,1-3.6-8.69c-.64-4.87-2.33-15.89-2.55-18.44s-.63-5.08,1.06-6.35" style="fill:none;stroke:#263238;stroke-linecap:round;stroke-linejoin:round"></path><path d="M194.25,231.75s-.2,3.37-1.26,4.85-6.79,1.27-16.11,1.7a161,161,0,0,1-24.59-.85c-4.24-.64-1.69-5.94-1.27-7.63s6.15,1.06,18.44.63S194.25,231,194.25,231.75Z" style="fill:#263238;stroke:#263238;stroke-linecap:round;stroke-linejoin:round"></path><polygon points="178.66 182.3 190.5 178.38 191.73 178.48 179.9 185.76 178.66 182.3" style="fill:#263238;stroke:#263238;stroke-linecap:round;stroke-linejoin:round"></polygon><path d="M177.09,179.8s-3.39-4.45-12.72-4.45-19.07,3.6-22,8.05a10,10,0,0,0-1.06,8.91s-4.66,22.25-7,28.61.21,11.87,7.63,16.32,22.68,8.26,29.25,5.29,9.75-9.74,9.32-14.83-1.69-14.62-1.91-20.77,4.67-13.35,3.39-19.29S177.09,179.8,177.09,179.8Z" style="fill:#92E3A9;stroke:#263238;stroke-linecap:round;stroke-linejoin:round"></path><path d="M165.92,236.8c-9.73,0-17.47-3.74-24.71-6-6-1.86-5,1.25-4.44,2.37a23.28,23.28,0,0,0,5.14,4.06c7.42,4.45,22.68,8.26,29.25,5.29a16.16,16.16,0,0,0,8.86-10.4A21.86,21.86,0,0,1,165.92,236.8Z" style="fill:#263238;stroke:#263238;stroke-linecap:round;stroke-linejoin:round"></path><path d="M163.1,187.85s-8.9,26.07-3.81,32.43,17.16,10.6,18.65,7.21-4.88-18-2.55-25.22,4.88-9.33,3-12.51S166.07,183.19,163.1,187.85Z" style="fill:#fff"></path><path d="M156.53,192.94s-4.66,22.89-6.78,27.55-12.5,4.24-12.93-1.48,6.36-26.49,6.57-27.34S156.53,192.94,156.53,192.94Z" style="fill:#fff"></path><path d="M146.67,191.82s3,2.13,1,4.54-5.53,2.55-6.8,4.67,4.82,5.82,4.11,7.52-7.37,3.54-7.37,5.81,11.48,5.39,12.9,3.54-3.55-6.94-3.26-9.49,5.67-2.41,6.8-5.82-3.83-4.11-3.83-5.81,3.41-4.25,3.41-4.25" style="fill:none;stroke:#000;stroke-linecap:round;stroke-linejoin:round;opacity:0.35000000000000003"></path><path d="M177.09,179.8s-3.39-4.45-12.72-4.45-19.07,3.6-22,8.05a10,10,0,0,0-1.06,8.91,13.16,13.16,0,0,0,10,4c6.36-.21,11.24-3.81,14.63-5.08s9.32,1.48,13.14,1.48a5.09,5.09,0,0,0,3-1.18,11.37,11.37,0,0,0-.08-3.91C180.69,181.71,177.09,179.8,177.09,179.8Z" style="fill:#263238;stroke:#263238;stroke-linecap:round;stroke-linejoin:round"></path></g></svg>