<svg xmlns="http://www.w3.org/2000/svg" viewBox="0 0 750 500"><g id="freepik--background-complete--inject-4"><polygon points="659.36 380.34 672.24 382.45 672.24 403.22 659.36 405.72 659.36 380.34" style="fill:#f5f5f5"></polygon><rect x="671.78" y="379.96" width="3.27" height="25.38" rx="1.07" style="fill:#f5f5f5"></rect><path d="M674.39,386.77h2.21a3.21,3.21,0,0,1,3.21,3.21v3.38a3.21,3.21,0,0,1-3.21,3.21h-2.21a0,0,0,0,1,0,0v-9.81A0,0,0,0,1,674.39,386.77Z" style="fill:#f5f5f5"></path><path d="M671.69,403.31c-.18,0-.33-4.66-.33-10.41s.15-10.4.33-10.4.32,4.65.32,10.4S671.86,403.31,671.69,403.31Z" style="fill:#e0e0e0"></path><path d="M674.87,403.45c-.17,0-.32-4.66-.32-10.41s.15-10.4.32-10.4.32,4.66.32,10.4S675.05,403.45,674.87,403.45Z" style="fill:#e0e0e0"></path><path d="M613.12,461.39V356a23.12,23.12,0,0,1,23.12-23.12h0A23.12,23.12,0,0,1,659.36,356V461.39Z" style="fill:#f5f5f5"></path><rect x="605.83" y="358.47" width="61.27" height="12.78" rx="4.19" style="fill:#f5f5f5"></rect><path d="M629.1,334.5l-.05-.91a6.63,6.63,0,0,1,6.23-7l1.8-.09a6.62,6.62,0,0,1,6.89,6.34l.08,1.58Z" style="fill:#f5f5f5"></path><path d="M635.79,323.93h1.51a1.44,1.44,0,0,1,1.44,1.44v2.27a0,0,0,0,1,0,0h-4.39a0,0,0,0,1,0,0v-2.27A1.44,1.44,0,0,1,635.79,323.93Z" style="fill:#f5f5f5"></path><path d="M659.36,358.27c0,.18-10.34.32-23.08.32s-23.07-.14-23.07-.32,10.33-.32,23.07-.32S659.36,358.09,659.36,358.27Z" style="fill:#e0e0e0"></path><path d="M629.74,335.36c0,.1-1.33.65-3.41,1.78a23.23,23.23,0,0,0-7.09,5.71,20.43,20.43,0,0,0-3.8,8.25c-.49,2.3-.39,3.79-.5,3.79a2.83,2.83,0,0,1-.14-1A13.68,13.68,0,0,1,615,351a19,19,0,0,1,3.73-8.57,21.54,21.54,0,0,1,7.4-5.72,25.8,25.8,0,0,1,2.61-1.1A3.1,3.1,0,0,1,629.74,335.36Z" style="fill:#fafafa"></path><path d="M644.05,334c-.06.23-3.34-1.09-7.55-1.16S629,334.19,629,334A6.34,6.34,0,0,1,631,333a17.8,17.8,0,0,1,5.46-.82,18.69,18.69,0,0,1,5.45.9A6.49,6.49,0,0,1,644.05,334Z" style="fill:#e0e0e0"></path><path d="M639.2,326.9a16.27,16.27,0,0,1-2.48-.16c-1.34-.05-2.42.22-2.48,0s1-.73,2.5-.68S639.28,326.75,639.2,326.9Z" style="fill:#e0e0e0"></path><path d="M652.63,395.8a16,16,0,1,1-16-16A16,16,0,0,1,652.63,395.8Z" style="fill:#e0e0e0"></path><path d="M652.63,393a16,16,0,1,1-16-16A16,16,0,0,1,652.63,393Z" style="fill:#f5f5f5"></path><path d="M652.63,393a31.39,31.39,0,0,0-.62-3.87,15.94,15.94,0,0,0-5.83-8.65,15.73,15.73,0,0,0-14.87-2.21,15,15,0,0,0-4,2.14,14.73,14.73,0,0,0-3.31,3.33,15.61,15.61,0,0,0,0,18.51,15.75,15.75,0,0,0,7.27,5.47,15.79,15.79,0,0,0,8.24.71,15.58,15.58,0,0,0,6.63-2.91A15.94,15.94,0,0,0,652,396.9a31.72,31.72,0,0,0,.62-3.87,7.2,7.2,0,0,1,0,1,7.42,7.42,0,0,1-.09,1.24,12.68,12.68,0,0,1-.3,1.67,16.06,16.06,0,0,1-12.6,12,16.18,16.18,0,0,1-8.54-.67,16.34,16.34,0,0,1-7.58-5.65,16.19,16.19,0,0,1,0-19.26,16.25,16.25,0,0,1,7.57-5.65,16.08,16.08,0,0,1,15.35,2.4,15.88,15.88,0,0,1,5.79,9,12.4,12.4,0,0,1,.3,1.67,7.35,7.35,0,0,1,.09,1.24A7.2,7.2,0,0,1,652.63,393Z" style="fill:#e0e0e0"></path><path d="M643.21,389.67a7.37,7.37,0,1,1-9.92-3.2A7.35,7.35,0,0,1,643.21,389.67Z" style="fill:#e0e0e0"></path><path d="M641.69,393a5,5,0,1,1-5-5A5,5,0,0,1,641.69,393Z" style="fill:#f5f5f5"></path><path d="M641.69,393c-.06,0-.06-.45-.28-1.2a5,5,0,0,0-1.85-2.62,4.76,4.76,0,1,0,0,7.64,5.06,5.06,0,0,0,1.85-2.62c.22-.75.22-1.2.28-1.2a2.52,2.52,0,0,1,0,1.26,5,5,0,0,1-1.81,2.92,5.24,5.24,0,0,1-5,.82,5.31,5.31,0,0,1,0-10,5.24,5.24,0,0,1,5,.83,5,5,0,0,1,1.81,2.92A2.52,2.52,0,0,1,641.69,393Z" style="fill:#e0e0e0"></path><path d="M659.36,371.42c0,.18-10.44.32-23.31.32s-23.32-.14-23.32-.32,10.44-.32,23.32-.32S659.36,371.25,659.36,371.42Z" style="fill:#e0e0e0"></path><path d="M612.73,359.92a14.19,14.19,0,0,1-1.5.4,5.68,5.68,0,0,0-4,5.45,12,12,0,0,1,.06,1.56c-.07,0-.4-.52-.51-1.54a5.48,5.48,0,0,1,4.36-5.9C612.12,359.69,612.74,359.85,612.73,359.92Z" style="fill:#fafafa"></path><path d="M629.26,380.94c0,.1-1.06.64-2.5,2a13.66,13.66,0,0,0-4.08,13.79c.5,1.88,1.13,2.95,1,3s-.23-.22-.51-.7a11,11,0,0,1-1-2.18,13.17,13.17,0,0,1,4.21-14.26,11.59,11.59,0,0,1,2-1.3C628.94,381,629.24,380.9,629.26,380.94Z" style="fill:#fafafa"></path><path d="M659.36,414.91c-.18,0-.33-9.8-.33-21.88s.15-21.88.33-21.88.32,9.79.32,21.88S659.53,414.91,659.36,414.91Z" style="fill:#e0e0e0"></path><path d="M598.11,474.31V469.2a3.82,3.82,0,0,1,3.83-3.83h0v-1.64a7.3,7.3,0,0,1,7.3-7.3h51.82c4,0,7.24,4.55,7.24,8.59h1.85c2.11,0,3.83.42,3.83,2.54v6.75Z" style="fill:#e0e0e0"></path><path d="M670.15,465c0,.17-15.32.32-34.2.32s-34.2-.15-34.2-.32,15.31-.32,34.2-.32S670.15,464.84,670.15,465Z" style="fill:#f5f5f5"></path><polygon points="613.21 405.15 600.33 403.04 600.33 382.27 613.21 379.77 613.21 405.15" style="fill:#f5f5f5"></polygon><rect x="597.52" y="380.15" width="3.27" height="25.38" rx="1.07" transform="translate(1198.3 785.68) rotate(180)" style="fill:#f5f5f5"></rect><path d="M592.75,388.91H595a3.21,3.21,0,0,1,3.21,3.21v3.38a3.21,3.21,0,0,1-3.21,3.21h-2.21a0,0,0,0,1,0,0v-9.81A0,0,0,0,1,592.75,388.91Z" transform="translate(1190.93 787.63) rotate(180)" style="fill:#f5f5f5"></path><path d="M600.88,382.18c.18,0,.32,4.66.32,10.41s-.14,10.4-.32,10.4-.32-4.65-.32-10.4S600.7,382.18,600.88,382.18Z" style="fill:#e0e0e0"></path><path d="M597.69,382c.18,0,.32,4.66.32,10.41s-.14,10.4-.32,10.4-.32-4.66-.32-10.4S597.51,382,597.69,382Z" style="fill:#e0e0e0"></path><path d="M613.21,427.81c-.17,0-.32-12.38-.32-27.65s.15-27.65.32-27.65.32,12.38.32,27.65S613.39,427.81,613.21,427.81Z" style="fill:#e0e0e0"></path><polygon points="308.29 379.55 287.11 474.57 296.06 474.55 317.3 380.44 308.29 379.55" style="fill:#e0e0e0"></polygon><polygon points="346.94 379.55 368.2 474.57 376.71 474.57 356.14 379.55 346.94 379.55" style="fill:#e0e0e0"></polygon><polygon points="293.99 308.17 306.05 373.6 319.76 373.6 306.88 308.17 293.99 308.17" style="fill:#e0e0e0"></polygon><polygon points="83.88 379.55 66.6 474.57 75.4 474.57 93.45 379.55 83.88 379.55" style="fill:#e0e0e0"></polygon><polygon points="120.22 379.55 139.98 474.06 148.67 474.06 129.59 379.55 120.22 379.55" style="fill:#e0e0e0"></polygon><polygon points="69.58 308.17 81.65 373.6 95.36 373.6 82.47 308.17 69.58 308.17" style="fill:#e0e0e0"></polygon><polygon points="42.44 302.23 44.91 314.12 320.17 314.12 316.96 302.23 42.44 302.23" style="fill:#ebebeb"></polygon><polygon points="47.7 325.33 50.61 337.22 324.01 337.22 321.52 325.33 47.7 325.33" style="fill:#ebebeb"></polygon><polygon points="53.13 349.24 55.84 361.14 328.39 361.14 325.82 349.24 53.13 349.24" style="fill:#ebebeb"></polygon><rect x="73.97" y="373.6" width="293.9" height="11.9" style="fill:#ebebeb"></rect><path d="M311.6,74.19c.72-3.63-4.26-6.93-8.12-7.47-1.84-.25-3.77-.08-5.49-.8-3.71-1.54-4.94-6.52-8.55-8.3-2.7-1.33-5.95-.47-8.71.72s-5.5,2.74-8.51,2.76c-2.62,0-5.39-1.12-7.74,0-1.76.85-2.76,2.76-4.39,3.82a9.92,9.92,0,0,1-5.52,1.16,15.27,15.27,0,0,0-5.65.59c-1.78.69-3.32,2.44-3.07,4.33Z" style="fill:#f5f5f5"></path><path d="M128.5,191.57c.51-3.66-4.66-6.67-8.54-7-1.85-.15-3.77.13-5.52-.48-3.8-1.32-5.32-6.23-9-7.79-2.78-1.17-6-.13-8.65,1.22s-5.34,3.06-8.34,3.25c-2.61.17-5.45-.8-7.73.47-1.7,1-2.59,2.91-4.16,4.07a10,10,0,0,1-5.44,1.48,15.3,15.3,0,0,0-5.61.91c-1.74.8-3.17,2.63-2.81,4.5Z" style="fill:#f5f5f5"></path><path d="M642.65,218.22c.5-3.66-4.66-6.67-8.54-7-1.85-.15-3.77.13-5.53-.48-3.79-1.32-5.31-6.23-9-7.79-2.77-1.17-6-.13-8.64,1.22s-5.34,3.05-8.34,3.24c-2.62.17-5.45-.8-7.73.48-1.71,1-2.6,2.91-4.17,4.07a9.88,9.88,0,0,1-5.44,1.47,15.29,15.29,0,0,0-5.6.92c-1.74.79-3.17,2.63-2.81,4.5Z" style="fill:#f5f5f5"></path><path d="M701.19,118.59c.74-5.39-6.87-9.83-12.59-10.29-2.73-.22-5.56.2-8.15-.71-5.6-2-7.84-9.18-13.3-11.49-4.09-1.72-8.79-.19-12.75,1.81s-7.87,4.5-12.3,4.78c-3.85.25-8-1.18-11.39.7-2.51,1.4-3.83,4.29-6.14,6s-5.21,2-8,2.17-5.71.19-8.27,1.36-4.67,3.87-4.14,6.63Z" style="fill:#f5f5f5"></path><path d="M228.94,128.63c.73-5.35-6.82-9.75-12.49-10.21-2.71-.22-5.52.19-8.08-.7-5.56-1.94-7.78-9.11-13.2-11.4-4-1.71-8.71-.18-12.64,1.79s-7.81,4.47-12.2,4.75c-3.81.24-8-1.17-11.3.69-2.49,1.39-3.79,4.26-6.09,6s-5.17,2-7.95,2.16-5.67.18-8.2,1.34-4.64,3.84-4.11,6.58Z" style="fill:#ebebeb"></path></g><g id="freepik--Plant--inject-4"><path d="M153.32,425a9.24,9.24,0,0,1,5.1,5.18,16.44,16.44,0,0,1,1,7.33c-.29,4.81-2.74,9.79-5.46,13.77-4.22-3.3-5.48-9.38-5.92-12.5-.7-4.94,1-14.3,5.24-13.78" style="fill:#DE9EA5"></path><path d="M159.1,458.88a7.94,7.94,0,0,1,2.15-7.66,10.49,10.49,0,0,1,7.62-2.83,4.42,4.42,0,0,1,3.48,1.34,3.4,3.4,0,0,1,.24,3.42,6.79,6.79,0,0,1-2.41,2.64c-3.37,2.38-7.07,4.06-11.08,3.09" style="fill:#DE9EA5"></path><path d="M154.73,473.82a6,6,0,0,1,.09-1c.09-.7.21-1.6.35-2.68a27.59,27.59,0,0,1,2.28-8.63,16.91,16.91,0,0,1,5.74-6.8,11.43,11.43,0,0,1,2.42-1.23,5.14,5.14,0,0,1,.71-.22c.16,0,.25-.07.25,0a15.76,15.76,0,0,0-8.81,8.45,29.89,29.89,0,0,0-2.35,8.52c-.18,1.12-.33,2-.45,2.66A4.45,4.45,0,0,1,154.73,473.82Z" style="fill:#263238"></path><path d="M152.64,432.2a2.47,2.47,0,0,1,.07.42c0,.32.08.73.14,1.23.11,1.07.26,2.62.42,4.53.34,3.82.72,9.11,1,15s.43,11.15.48,15c0,1.92,0,3.48,0,4.55,0,.51,0,.92,0,1.24a2.43,2.43,0,0,1,0,.43,1.84,1.84,0,0,1,0-.43c0-.32,0-.73,0-1.24,0-1.12-.08-2.66-.13-4.54-.12-3.84-.3-9.14-.59-15s-.63-11.13-.9-15c-.13-1.88-.24-3.42-.32-4.54,0-.5-.05-.91-.07-1.23A1.19,1.19,0,0,1,152.64,432.2Z" style="fill:#263238"></path><path d="M152.29,462.17a18.52,18.52,0,0,0-10.83-13c-1.38-.57-3.16-.89-4.21.17s-.71,2.84-.09,4.21a15.82,15.82,0,0,0,15.06,9" style="fill:#DE9EA5"></path><path d="M142.36,453.66a5.28,5.28,0,0,1,.87.33,10,10,0,0,1,1,.46c.37.21.82.41,1.27.71a14.92,14.92,0,0,1,1.46,1,17.33,17.33,0,0,1,1.57,1.28,19.92,19.92,0,0,1,3,3.5,20.19,20.19,0,0,1,2.11,4.13,16.91,16.91,0,0,1,.58,1.95,14.07,14.07,0,0,1,.33,1.73,12,12,0,0,1,.15,1.44,8.41,8.41,0,0,1,0,1.1,5.27,5.27,0,0,1,0,.93c-.08,0,0-1.33-.36-3.43a15.93,15.93,0,0,0-.37-1.7,18.7,18.7,0,0,0-.6-1.9,21.2,21.2,0,0,0-2.09-4.06,21.88,21.88,0,0,0-3-3.45c-.53-.47-1-.92-1.53-1.29a16.42,16.42,0,0,0-1.42-1C143.57,454.22,142.33,453.73,142.36,453.66Z" style="fill:#263238"></path></g><g id="freepik--Device--inject-4"><rect x="363.57" y="30.47" width="187.14" height="443.77" rx="20.91" style="fill:#263238"></rect><rect x="348.43" y="30.65" width="187.14" height="443.77" rx="22.55" style="fill:#455a64"></rect><path d="M507.36,37.73l-25.42,0c-3.41,0-6.17,3.41-6.17,7.63V50.8c0,4.22-2.76,7.64-6.17,7.63L420,58.36c-3.41,0-6.17-3.43-6.17-7.65V45.24c0-4.22-2.76-7.65-6.17-7.65l-8.95,0-22.25,0c-11.05,0-20,10.59-20,23.68l.18,380.17c0,13.08,9,23.7,20,23.72l130.87.19c11.05,0,20-10.59,20-23.68l-.18-380.17C527.36,48.37,518.41,37.75,507.36,37.73Z" style="fill:#fafafa"></path><polygon points="469.42 348.13 494.17 357.27 494.17 353.05 469.42 344.04 469.42 348.13" style="fill:#f5f5f5"></polygon><polygon points="494.79 344.04 469.42 353.9 469.42 358.31 494.79 347.73 494.79 344.04" style="fill:#ebebeb"></polygon><polygon points="494.63 348.13 519.38 357.27 519.38 353.05 494.63 344.04 494.63 348.13" style="fill:#f5f5f5"></polygon><polygon points="520 344.04 494.63 353.9 494.63 358.31 520 347.73 520 344.04" style="fill:#ebebeb"></polygon><polygon points="441.89 348.13 466.64 357.27 466.64 353.05 441.89 344.04 441.89 348.13" style="fill:#f5f5f5"></polygon><polygon points="467.25 344.04 441.89 353.9 441.89 358.31 467.25 347.73 467.25 344.04" style="fill:#ebebeb"></polygon><polygon points="458.3 299.9 463.92 335.42 517.42 335.42 517.42 300.8 526.86 300.8 526.86 296.98 441.22 292.71 441.22 297.21 458.3 299.9" style="fill:#ebebeb"></polygon><polygon points="381.39 361.77 432.1 342.39 522.79 342.39 522.79 335.42 431.3 335.42 365.29 361.77 381.39 361.77" style="fill:#e0e0e0"></polygon><rect x="440.46" y="342.39" width="3.9" height="18.41" style="fill:#e0e0e0"></rect><rect x="466.6" y="342.39" width="3.9" height="18.41" style="fill:#e0e0e0"></rect><rect x="492.73" y="342.39" width="3.9" height="18.41" style="fill:#e0e0e0"></rect><rect x="518.3" y="342.39" width="3.9" height="18.41" style="fill:#e0e0e0"></rect><rect x="464.64" y="302.61" width="15.25" height="18.2" style="fill:#f5f5f5"></rect><rect x="482.74" y="302.84" width="15.25" height="18.2" style="fill:#f5f5f5"></rect><polygon points="492.73 264.66 490.36 264.66 490.36 295.15 492.73 295.82 492.73 264.66" style="fill:#e0e0e0"></polygon><path d="M492.73,264.66s6.43-.77,9.86,4c4.55,6.33,13.53,4.06,13.53,4.06v11.66s-8.55,2.92-15,0c-4.11-1.85-4.76-6.48-8.4-5.09Z" style="fill:#ebebeb"></path><rect x="438.3" y="320.81" width="1.47" height="16.26" style="fill:#e0e0e0"></rect><rect x="417.15" y="325.83" width="1.47" height="16.26" transform="matrix(0.93, -0.36, 0.36, 0.93, -91.52, 170.68)" style="fill:#e0e0e0"></rect><rect x="398.58" y="332.97" width="1.47" height="17.24" transform="matrix(0.93, -0.36, 0.36, 0.93, -95.44, 164.52)" style="fill:#e0e0e0"></rect><rect x="380.05" y="340.36" width="1.47" height="17.97" transform="translate(-99.42 158.45) rotate(-20.85)" style="fill:#e0e0e0"></rect><rect x="453.53" y="320.81" width="1.47" height="16.26" style="fill:#e0e0e0"></rect><rect x="468.75" y="320.81" width="1.47" height="16.26" style="fill:#e0e0e0"></rect><rect x="483.97" y="320.81" width="1.47" height="16.26" style="fill:#e0e0e0"></rect><rect x="499.19" y="320.81" width="1.47" height="16.26" style="fill:#e0e0e0"></rect><polygon points="358.97 348.6 426.58 322.12 502.18 322.12 502.18 319.92 426.58 319.92 357.9 346.84 358.97 348.6" style="fill:#e0e0e0"></polygon><rect x="502.18" y="302.84" width="12.02" height="32.57" style="fill:#f5f5f5"></rect><path d="M522,363.89c0,.14-22.07.26-49.29.26s-49.29-.12-49.29-.26,22.07-.26,49.29-.26S522,363.74,522,363.89Z" style="fill:#e0e0e0"></path><path d="M527.08,386.64a3.75,3.75,0,0,1,0,.5,1.62,1.62,0,0,1-.1.6c0,.12-.07.24-.11.38l-.2.4a4.22,4.22,0,0,1-1.7,1.65,7.7,7.7,0,0,1-3.11.86,9.64,9.64,0,0,1-4-.56,18.18,18.18,0,0,1-4.11-2.5,37.8,37.8,0,0,0-4.54-3.06,10,10,0,0,0-2.77-1,6.46,6.46,0,0,0-1.52-.12h-.78l-.78.14a15.47,15.47,0,0,0-6,2.93c-1.91,1.37-3.79,3-6,4.31a14,14,0,0,1-3.6,1.57,8.74,8.74,0,0,1-4.07.05c-2.75-.67-4.93-2.63-7.15-4.38A22.62,22.62,0,0,0,473,386a7.16,7.16,0,0,0-1-.44,5.28,5.28,0,0,0-1-.33c-.18,0-.35-.1-.53-.13l-.53-.05c-.36,0-.72-.09-1.09-.09a11.62,11.62,0,0,0-4.28,1,27.57,27.57,0,0,0-4,2.28c-2.58,1.72-5.08,3.73-8.05,5.1a11.59,11.59,0,0,1-4.81,1.05l-1.26-.13a10.46,10.46,0,0,1-1.23-.29c-.39-.15-.78-.3-1.17-.47s-.76-.37-1.11-.6c-2.89-1.72-5.12-4.21-7.93-5.66a7.72,7.72,0,0,0-4.47-.88,11.09,11.09,0,0,0-4.24,1.71c-1.32.8-2.58,1.7-3.93,2.46A10.52,10.52,0,0,1,418,392a11.6,11.6,0,0,1-4.47-.67,28.71,28.71,0,0,1-4-1.82,44.84,44.84,0,0,0-7.47-3.61,11.18,11.18,0,0,0-3.87-.5,10.83,10.83,0,0,0-3.65,1,42.6,42.6,0,0,0-6.16,3.94,17.85,17.85,0,0,1-6.07,3.1l-.8.17-.82.06a4.26,4.26,0,0,1-.8,0,7,7,0,0,1-.79-.06,11.23,11.23,0,0,1-2.93-.81,29.72,29.72,0,0,1-4.78-2.77,32.47,32.47,0,0,0-4.07-2.48,13.43,13.43,0,0,0-3.81-1.14,7.26,7.26,0,0,0-5.29,1,7.12,7.12,0,0,0-1.35,1.36s.08-.14.27-.41a2.19,2.19,0,0,1,.39-.47,3.58,3.58,0,0,1,.63-.57,7.3,7.3,0,0,1,5.38-1.1,13.18,13.18,0,0,1,3.88,1.11,32.34,32.34,0,0,1,4.13,2.47,29.9,29.9,0,0,0,4.75,2.7,10.7,10.7,0,0,0,2.85.77,6.32,6.32,0,0,0,.75.06,3.94,3.94,0,0,0,.77,0l.78-.06.77-.17a17.49,17.49,0,0,0,5.93-3.06,41.66,41.66,0,0,1,6.21-4,11.14,11.14,0,0,1,3.8-1,11.87,11.87,0,0,1,4,.5,45.91,45.91,0,0,1,7.56,3.63,28.74,28.74,0,0,0,3.91,1.78,11.06,11.06,0,0,0,4.27.63,10,10,0,0,0,4.17-1.36c1.32-.74,2.57-1.64,3.91-2.46a11.69,11.69,0,0,1,4.44-1.78,8.32,8.32,0,0,1,4.77.92c2.93,1.53,5.17,4,8,5.68.34.22.71.38,1.06.58s.74.3,1.12.44a9.18,9.18,0,0,0,1.15.28l1.18.12a10.92,10.92,0,0,0,4.59-1c2.89-1.32,5.38-3.31,8-5a27.16,27.16,0,0,1,4.05-2.32,12.06,12.06,0,0,1,4.48-1.07,11.15,11.15,0,0,1,1.15.1l.57.05.55.14a6.49,6.49,0,0,1,1.08.35,8,8,0,0,1,1,.47,21.94,21.94,0,0,1,3.62,2.46c2.22,1.77,4.36,3.68,7,4.32a8.39,8.39,0,0,0,3.86,0,13.35,13.35,0,0,0,3.48-1.51c2.16-1.3,4-2.9,6-4.26a15.52,15.52,0,0,1,6.13-3l.81-.14h.82a7,7,0,0,1,1.59.14,10,10,0,0,1,2.85,1.05,36.67,36.67,0,0,1,4.56,3.12,18.31,18.31,0,0,0,4,2.5,9.59,9.59,0,0,0,3.91.59c2.4-.13,4.15-1.23,4.72-2.36l.22-.39.11-.36a1.92,1.92,0,0,0,.13-.59C527.05,386.81,527.08,386.64,527.08,386.64Z" style="fill:#263238"></path><path d="M488.31,172.33s26.07,122.58,1.89,219.26h0a8.16,8.16,0,0,1-9.93.15L473,386.35a8.77,8.77,0,0,0-8.89-.3l-3.26,1.77S484.19,291.15,481.71,231l-2.49-60.11Z" style="fill:#263238"></path><path d="M414.31,188.25c5-13.48,16.82-24.65,30.95-27.34s30,4.12,36.45,17l-1.4.37a71.59,71.59,0,0,1-36,11.24c.82-1.84,1.65-3.69,2.48-5.53A58.6,58.6,0,0,1,414.31,188.25Z" style="fill:#455a64"></path><path d="M527.51,152c-9.48-1.58-19.62,0-27.71,5.13s-13.87,14.18-14.26,23.78l2.72-3.17c14,3.6,26.07,3.06,39.29-2.8Z" style="fill:#455a64"></path><path d="M527.44,211.06c-2.71-2.35-3.38-6.44-3-10a26.76,26.76,0,0,0-2.42,8.67l-33-23c-3.12-2.17-4.27-3.12-7.29-4.06l4.59-6c10.7-5.73,23.36-2.38,34.22,3l7,3.94Z" style="fill:#455a64"></path><path d="M447.22,203.51c2.55-5.24,6.93-9.34,11.35-13.13a49.18,49.18,0,0,1,11.34-7.84c4.19-1.92,9-2.76,13.46-1.45l-.9.38c3.64,14.21-6.32,30.67-17,40.77a8.14,8.14,0,0,1-4.68-3.49l3.93,6.14A129.46,129.46,0,0,1,450,238.39c-2.22-5.58-4.26-11.3-5.07-17.26S444.58,208.91,447.22,203.51Z" style="fill:#455a64"></path><path d="M474.17,179.64l6.76-.77c12.87,2.54,23.41,13.22,27.13,25.8s1.09,26.58-5.73,37.79c-4.91-5.55-9.84-11.13-13.75-17.42a15.17,15.17,0,0,1-2.5-6,6.6,6.6,0,0,1,1.23-4.87c-1.52,1.33-3.41,2.38-5.08,1.44a5.34,5.34,0,0,1-1.7-1.86c-3.32-5.12-6.45-10.47-8-16.37S471.13,184.93,474.17,179.64Z" style="fill:#455a64"></path><path d="M474.48,143.82A50.48,50.48,0,0,1,494.21,114a2.48,2.48,0,0,1,4.39,1,53.48,53.48,0,0,1,4.46,34.15c-2.33,11.46-10.81,27.19-19.69,34.8l-5-3C472.35,170.27,471.84,155.73,474.48,143.82Z" style="fill:#455a64"></path><path d="M481.88,180.87l.18,0,.53.06c.23,0,.52.06.86.12a11.36,11.36,0,0,1,1.15.24,18.23,18.23,0,0,1,6.72,3.27,22,22,0,0,1,3.72,3.6,26.94,26.94,0,0,1,3.22,5,49.7,49.7,0,0,1,4.08,13A91.16,91.16,0,0,1,503.69,231c-.27,3.18-.63,5.74-.92,7.5-.13.88-.27,1.56-.34,2,0,.21-.06.39-.09.52a.69.69,0,0,0,0,.19s0-.06.05-.18l.12-.52c.09-.46.25-1.14.4-2,.33-1.75.73-4.31,1-7.5a88.6,88.6,0,0,0-1.26-24.88,49,49,0,0,0-4.14-13.09,26.93,26.93,0,0,0-3.27-5.05,22.36,22.36,0,0,0-3.8-3.61,17.78,17.78,0,0,0-6.83-3.21A11.91,11.91,0,0,0,481.88,180.87Z" style="fill:#263238"></path><path d="M480.31,178.26a4.8,4.8,0,0,0,.54.13c.35.08.88.15,1.54.32a29.13,29.13,0,0,1,5.48,1.86,31.38,31.38,0,0,1,3.53,1.87,34,34,0,0,1,3.71,2.7,36.85,36.85,0,0,1,6.94,7.85,50.87,50.87,0,0,1,4.93,9.29,40.3,40.3,0,0,1,1.44,4.36,32.36,32.36,0,0,1,.73,3.92,26.6,26.6,0,0,1,.09,5.79c0,.68-.16,1.2-.19,1.56a2.08,2.08,0,0,0-.05.55,3.51,3.51,0,0,0,.12-.53c.05-.36.19-.88.25-1.57a24.48,24.48,0,0,0,0-5.82,32.67,32.67,0,0,0-.7-4,39.28,39.28,0,0,0-1.42-4.41,49.53,49.53,0,0,0-4.94-9.35,36.51,36.51,0,0,0-7-7.91,35.4,35.4,0,0,0-3.76-2.7,31.53,31.53,0,0,0-3.58-1.85,28,28,0,0,0-5.55-1.77c-.67-.15-1.21-.2-1.56-.26A3.75,3.75,0,0,0,480.31,178.26Z" style="fill:#263238"></path><path d="M473.5,184a5.68,5.68,0,0,0-.3,1c-.08.32-.18.71-.26,1.18s-.2,1-.26,1.59-.15,1.24-.18,1.94,0,1.45,0,2.23a30.84,30.84,0,0,0,.57,5.1,31.25,31.25,0,0,0,1.46,4.91c.31.73.59,1.42.92,2s.62,1.2.92,1.72.6,1,.86,1.36a11.8,11.8,0,0,0,.7,1,6.45,6.45,0,0,0,.66.8A5.88,5.88,0,0,0,478,208a11.67,11.67,0,0,1-.65-1c-.24-.4-.54-.84-.81-1.37s-.6-1.09-.88-1.72-.58-1.31-.88-2a32.21,32.21,0,0,1-1.42-4.87,32.59,32.59,0,0,1-.59-5c0-.78,0-1.53,0-2.22s.08-1.34.14-1.93.14-1.11.21-1.58.13-.86.2-1.18A6.66,6.66,0,0,0,473.5,184Z" style="fill:#263238"></path><path d="M451,237.24s0-.05,0-.15l-.1-.43c-.09-.38-.26-.93-.4-1.66a46.26,46.26,0,0,1-1-6.18,45.7,45.7,0,0,1,.05-9.27,46.24,46.24,0,0,1,13.72-28.21,47.85,47.85,0,0,1,4.76-4.07c.58-.45,1.07-.76,1.38-1l.36-.26.11-.1-.13.07-.38.23c-.32.22-.82.51-1.42,1a43.47,43.47,0,0,0-4.84,4,45.09,45.09,0,0,0-13.87,28.35,45,45,0,0,0,0,9.32,41.46,41.46,0,0,0,1.1,6.19c.17.73.36,1.27.46,1.65.06.17.1.31.14.42A.57.57,0,0,0,451,237.24Z" style="fill:#263238"></path><path d="M415.54,187.37l.13-.14.35-.43c.31-.37.74-.94,1.34-1.64a73.77,73.77,0,0,1,5.28-5.7c1.17-1.15,2.53-2.34,4-3.57a57.45,57.45,0,0,1,5-3.6,44.69,44.69,0,0,1,12.84-5.67,38,38,0,0,1,7.2-1,36.44,36.44,0,0,1,6.77.36,32.3,32.3,0,0,1,10.86,3.61A28.12,28.12,0,0,1,473,172c.5.42,1,.79,1.41,1.15l1.1,1.06a9.47,9.47,0,0,1,.84.88l.59.67c.15.17.28.3.37.41l.14.13a.79.79,0,0,0-.11-.15c-.09-.11-.2-.26-.35-.43l-.57-.7a8.94,8.94,0,0,0-.82-.9L474.51,173c-.41-.38-.89-.76-1.39-1.18a27.11,27.11,0,0,0-3.69-2.49,32.11,32.11,0,0,0-10.93-3.71,36.21,36.21,0,0,0-6.83-.38,37.26,37.26,0,0,0-7.27,1A44.29,44.29,0,0,0,431.47,172a54.37,54.37,0,0,0-5,3.65c-1.48,1.24-2.83,2.45-4,3.61a65.82,65.82,0,0,0-5.22,5.79c-.59.71-1,1.3-1.29,1.68l-.33.45A.81.81,0,0,0,415.54,187.37Z" style="fill:#263238"></path><path d="M496.81,112.61s0,0-.09.14-.16.25-.26.43l-.95,1.69c-.42.73-.92,1.63-1.45,2.7s-1.19,2.26-1.82,3.63l-1,2.13c-.35.74-.67,1.53-1,2.34-.73,1.62-1.41,3.38-2.14,5.23-1.41,3.72-2.82,7.86-4.06,12.28s-2.15,8.71-2.85,12.63c-.32,2-.65,3.82-.86,5.58-.11.88-.23,1.72-.32,2.54s-.16,1.6-.23,2.35c-.17,1.49-.23,2.85-.32,4s-.13,2.22-.15,3.06,0,1.47,0,1.94v.5c0,.12,0,.18,0,.18s0-.06,0-.18,0-.29,0-.5c0-.46.07-1.11.11-1.93s.1-1.86.21-3,.18-2.55.36-4c.08-.75.17-1.53.26-2.34s.22-1.66.34-2.53c.22-1.75.55-3.61.88-5.57.72-3.9,1.66-8.17,2.87-12.59s2.63-8.55,4-12.26c.72-1.85,1.39-3.61,2.11-5.23.35-.81.67-1.6,1-2.34s.67-1.46,1-2.14c.61-1.37,1.24-2.58,1.76-3.65s1-2,1.4-2.72l.9-1.72.23-.45C496.79,112.66,496.82,112.61,496.81,112.61Z" style="fill:#263238"></path><path d="M505.85,154.37a1.55,1.55,0,0,0-.34.12l-1,.39c-.83.35-2,.88-3.46,1.58a91.11,91.11,0,0,0-10.89,6.27,49.09,49.09,0,0,0-5.52,4.18,18.35,18.35,0,0,0-3.65,4.33,10.48,10.48,0,0,0-1.34,3.57,6.2,6.2,0,0,0-.11,1,1.67,1.67,0,0,0,0,.36,1.31,1.31,0,0,0,.07-.36,7.48,7.48,0,0,1,.17-1,10.92,10.92,0,0,1,1.42-3.48,18.85,18.85,0,0,1,3.64-4.22,51.32,51.32,0,0,1,5.51-4.13,106.2,106.2,0,0,1,10.8-6.34c1.43-.73,2.61-1.28,3.41-1.67l.94-.45A1.34,1.34,0,0,0,505.85,154.37Z" style="fill:#263238"></path><path d="M459.84,189.51a3.81,3.81,0,0,0,.71-.53c.44-.35,1.07-.86,1.87-1.48a74.71,74.71,0,0,1,6.45-4.52,76.94,76.94,0,0,1,6.9-3.8l2.17-1a3.93,3.93,0,0,0,.78-.4,4.57,4.57,0,0,0-.84.28c-.53.2-1.28.52-2.21.93a60.13,60.13,0,0,0-13.4,8.35c-.78.65-1.4,1.19-1.81,1.58A4.71,4.71,0,0,0,459.84,189.51Z" style="fill:#263238"></path><path d="M526.9,158.84a1.89,1.89,0,0,1-.52,0l-1.49,0c-.64,0-1.43,0-2.35,0s-2,0-3.12.12-2.41.16-3.76.35-2.78.41-4.28.66a69.1,69.1,0,0,0-9.57,2.62,67.64,67.64,0,0,0-9.06,4.07c-1.32.75-2.6,1.45-3.72,2.21s-2.19,1.44-3.13,2.12-1.75,1.32-2.48,1.89-1.33,1.07-1.81,1.5l-1.13,1a4.9,4.9,0,0,1-.41.33,48.66,48.66,0,0,1,5.7-4.87c.93-.69,2-1.44,3.12-2.16s2.4-1.48,3.73-2.25a61.93,61.93,0,0,1,18.7-6.71c1.52-.25,2.95-.51,4.31-.64s2.62-.25,3.78-.31A50.61,50.61,0,0,1,526.9,158.84Z" style="fill:#263238"></path><path d="M528.34,184a2.48,2.48,0,0,1-.44-.23l-1.22-.71c-.53-.32-1.18-.69-2-1.08s-1.64-.89-2.64-1.32-2.09-1-3.3-1.4-2.5-.91-3.87-1.37a64.67,64.67,0,0,0-9.19-2.05,63.27,63.27,0,0,0-9.39-.52c-1.45.07-2.82.11-4.1.27s-2.47.28-3.56.46-2.05.38-2.9.54-1.58.35-2.17.52l-1.37.34a3.25,3.25,0,0,1-.49.11,44.38,44.38,0,0,1,6.9-1.73c1.08-.19,2.27-.39,3.56-.5s2.67-.22,4.12-.29A55.34,55.34,0,0,1,515,177.57c1.38.47,2.7.89,3.89,1.4s2.3,1,3.29,1.44A44.73,44.73,0,0,1,528.34,184Z" style="fill:#263238"></path><path d="M522.65,195.24a1.83,1.83,0,0,1-.34-.32l-.91-.95c-.39-.42-.87-.92-1.46-1.48s-1.24-1.22-2-1.87-1.61-1.4-2.57-2.12-2-1.48-3.1-2.25a60.73,60.73,0,0,0-7.65-4.28,59.54,59.54,0,0,0-8.24-3c-1.31-.33-2.55-.68-3.73-.88s-2.28-.43-3.29-.57-1.93-.23-2.74-.31-1.5-.13-2.07-.15L483.2,177a2.43,2.43,0,0,1-.46,0,41.48,41.48,0,0,1,6.62.36c1,.13,2.13.28,3.31.53s2.44.53,3.75.86a53,53,0,0,1,16,7.33c1.1.79,2.17,1.51,3.1,2.28s1.8,1.48,2.56,2.17A42.08,42.08,0,0,1,522.65,195.24Z" style="fill:#263238"></path><path d="M507.36,37.73l.78,0a13.37,13.37,0,0,1,2.28.24,18.56,18.56,0,0,1,8.13,3.72A23.57,23.57,0,0,1,523,46.62a24.58,24.58,0,0,1,3.36,7.26,27.79,27.79,0,0,1,.87,4.43,42.44,42.44,0,0,1,.2,4.84c0,3.34,0,6.89,0,10.65,0,30.1.08,73.64.14,127.45s.09,117.87.14,189q0,13.33,0,27,0,6.84,0,13.74v6.93a58.32,58.32,0,0,1-.21,7,25.62,25.62,0,0,1-1.7,6.83,28.48,28.48,0,0,1-1.51,3.21,25.48,25.48,0,0,1-2,2.95,21.83,21.83,0,0,1-5.24,4.81,18,18,0,0,1-6.68,2.57,46.57,46.57,0,0,1-7.17.26H496.1l-14.45,0-59-.08-30.2,0-15.25,0a18.38,18.38,0,0,1-7.55-1.53,20,20,0,0,1-6.31-4.47,25.19,25.19,0,0,1-6.57-13.78,46.87,46.87,0,0,1-.33-7.66q0-3.81,0-7.61,0-15.21,0-30.21,0-30,0-59.05c0-38.72,0-76.07,0-111.64s0-69.38,0-101q0-23.73,0-45.78,0-11,0-21.58a27.63,27.63,0,0,1,2-10.25,22.92,22.92,0,0,1,5.77-8.41,18.55,18.55,0,0,1,8.8-4.63,15.5,15.5,0,0,1,2.45-.32c.82-.07,1.64-.07,2.45-.06h4.83l18.69,0h4.51c.75,0,1.48,0,2.24,0a5.28,5.28,0,0,1,2.17.66,7,7,0,0,1,2.93,3.29,9.57,9.57,0,0,1,.83,4.26v4.25a10,10,0,0,0,.6,4,7,7,0,0,0,2.35,3.2,5.29,5.29,0,0,0,1.76.88,6.73,6.73,0,0,0,2,.19l29.78.06,13.13,0h6.11a5.74,5.74,0,0,0,4.65-2.86,8.92,8.92,0,0,0,1.31-5.18c0-1.78,0-3.5,0-5.17a8.79,8.79,0,0,1,1.38-4.62,6.27,6.27,0,0,1,3.55-2.7,8.25,8.25,0,0,1,2.14-.17h5.88l6.64,0,9,0,3.07,0s-1,0-3.07,0l-9,0H482.76a7.85,7.85,0,0,0-2.1.17,6.14,6.14,0,0,0-3.45,2.64,8.57,8.57,0,0,0-1.34,4.54v5.16a9.27,9.27,0,0,1-1.33,5.29,6,6,0,0,1-4.83,3H450.47l-29.78,0a7.11,7.11,0,0,1-2-.2,5.44,5.44,0,0,1-1.85-.92,7.31,7.31,0,0,1-2.46-3.33,10.29,10.29,0,0,1-.63-4.15V45.66a9.43,9.43,0,0,0-.8-4.13,6.83,6.83,0,0,0-2.8-3.14,5.26,5.26,0,0,0-2-.62c-.72,0-1.48,0-2.22,0h-28c-.82,0-1.63,0-2.43.07a13.06,13.06,0,0,0-2.4.32,18.13,18.13,0,0,0-8.62,4.54,22.72,22.72,0,0,0-5.67,8.28,27.28,27.28,0,0,0-2,10.11q0,10.56,0,21.58,0,22,0,45.78c0,31.64,0,65.44.07,101s0,72.92.07,111.64q0,29,0,59.05,0,15,0,30.21v7.61a48,48,0,0,0,.32,7.59A24.77,24.77,0,0,0,363.68,459a19.67,19.67,0,0,0,6.15,4.35,17.76,17.76,0,0,0,7.34,1.49l15.25,0,30.2.05,59,.08,14.46,0h7.17a46.15,46.15,0,0,0,7.08-.26,17.47,17.47,0,0,0,6.5-2.49,21.42,21.42,0,0,0,5.12-4.7,28.08,28.08,0,0,0,2-2.88,29.09,29.09,0,0,0,1.48-3.15,25.49,25.49,0,0,0,1.67-6.71,59,59,0,0,0,.21-6.92V431q0-6.9,0-13.74,0-13.65,0-27c0-71.14,0-135.21,0-189s0-97.35,0-127.45V63.15a39.8,39.8,0,0,0-.19-4.82,27.33,27.33,0,0,0-.85-4.41,24.84,24.84,0,0,0-3.32-7.23,23.36,23.36,0,0,0-4.44-4.88,18.5,18.5,0,0,0-8.07-3.74,13.08,13.08,0,0,0-2.28-.28Z" style="fill:#263238"></path><path d="M501.48,454.2s0,.07-.12.19a3.67,3.67,0,0,1-.41.53,6.59,6.59,0,0,1-2,1.53c-2,1-5.41,1.39-9.24.25-1.91-.54-3.93-1.33-6.15-1.94a17.7,17.7,0,0,0-3.48-.64,14.88,14.88,0,0,0-3.74.23c-2.54.43-5.16,1.37-8.05,1.54a24.62,24.62,0,0,1-8.68-1.6c-1.44-.45-2.85-.9-4.26-1.23a27.08,27.08,0,0,0-4.24-.61,28.25,28.25,0,0,0-8,.81c-5,1.24-9.4,3.05-13.16,4.25a87.9,87.9,0,0,1-9,2.52c-1.08.23-1.93.37-2.5.47a7.53,7.53,0,0,1-.88.13,5.31,5.31,0,0,1,.86-.23l2.48-.57c2.13-.53,5.2-1.38,8.93-2.67s8.07-3.09,13.16-4.36a25.82,25.82,0,0,1,12.51-.25c1.44.34,2.86.8,4.29,1.25a24.57,24.57,0,0,0,8.5,1.58c2.8-.15,5.41-1.07,8-1.5a15.24,15.24,0,0,1,3.85-.22,19.13,19.13,0,0,1,3.57.68c2.25.65,4.25,1.45,6.14,2,3.74,1.17,7.08.86,9-.07A7.66,7.66,0,0,0,501.48,454.2Z" style="fill:#263238"></path><path d="M519.6,78.06c.31-2.28-2.91-4.15-5.32-4.35a13.65,13.65,0,0,1-3.45-.3c-2.36-.82-3.31-3.88-5.62-4.85-1.72-.73-3.71-.08-5.38.76s-3.33,1.9-5.2,2c-1.63.11-3.39-.5-4.82.3-1.06.59-1.61,1.81-2.59,2.53a6.11,6.11,0,0,1-3.39.92,9.72,9.72,0,0,0-3.49.57,2.76,2.76,0,0,0-1.75,2.81Z" style="fill:#e0e0e0"></path><path d="M417.68,89c.32-2.28-2.9-4.15-5.32-4.35a13.57,13.57,0,0,1-3.44-.3c-2.37-.82-3.31-3.88-5.62-4.85-1.73-.73-3.72-.08-5.39.76s-3.33,1.9-5.2,2c-1.62.11-3.39-.5-4.81.3-1.06.59-1.62,1.81-2.59,2.53a6.13,6.13,0,0,1-3.39.92,9.78,9.78,0,0,0-3.5.57,2.78,2.78,0,0,0-1.75,2.81Z" style="fill:#ebebeb"></path><path d="M445.43,155.42c.27-2-2.53-3.61-4.63-3.78a11.9,11.9,0,0,1-3-.26c-2.06-.72-2.88-3.38-4.89-4.23-1.5-.63-3.23-.07-4.69.67s-2.89,1.65-4.52,1.76c-1.41.09-2.95-.44-4.19.25-.92.52-1.4,1.58-2.25,2.21a5.47,5.47,0,0,1-2.95.8,8.15,8.15,0,0,0-3,.49,2.42,2.42,0,0,0-1.53,2.44Z" style="fill:#ebebeb"></path><circle cx="444.6" cy="108.78" r="13.18" style="fill:#e0e0e0"></circle><path d="M442.72,138.26a52.14,52.14,0,0,1-.14-5.44,52,52,0,0,1,.14-5.44,52,52,0,0,1,.14,5.44A52.14,52.14,0,0,1,442.72,138.26Z" style="fill:#e0e0e0"></path><path d="M435.12,124.31c.07,0-1.17,2.31-2.76,5.08s-2.95,5-3,4.93a57.17,57.17,0,0,1,2.77-5.07C433.71,126.49,435.06,124.28,435.12,124.31Z" style="fill:#e0e0e0"></path><path d="M427.33,119.46a28.15,28.15,0,0,1-3.08,2.62,31,31,0,0,1-3.25,2.41,29.51,29.51,0,0,1,3.08-2.62A28.71,28.71,0,0,1,427.33,119.46Z" style="fill:#e0e0e0"></path><path d="M455.87,132.9a8.21,8.21,0,0,1-.34-1.34c-.19-.83-.46-2-.8-3.23s-.68-2.37-.93-3.19a7.46,7.46,0,0,1-.37-1.33,6.38,6.38,0,0,1,.56,1.27c.3.8.67,1.92,1,3.18s.58,2.42.72,3.26A5.76,5.76,0,0,1,455.87,132.9Z" style="fill:#e0e0e0"></path><path d="M469.25,123.41a42.58,42.58,0,0,1-3.9-3.22,47.61,47.61,0,0,1-3.72-3.43,44.22,44.22,0,0,1,3.9,3.22A47.61,47.61,0,0,1,469.25,123.41Z" style="fill:#e0e0e0"></path><path d="M474.37,110.37a11.27,11.27,0,0,1-1.59-.23c-1-.16-2.33-.37-3.83-.54s-2.86-.28-3.85-.34a8.89,8.89,0,0,1-1.6-.14,8.39,8.39,0,0,1,1.61-.05c1,0,2.36.08,3.87.25s2.86.42,3.83.63A8.81,8.81,0,0,1,474.37,110.37Z" style="fill:#e0e0e0"></path><path d="M474.38,97.55c0,.07-2.83.83-6.37,1.69s-6.42,1.5-6.44,1.43,2.83-.83,6.37-1.7S474.37,97.47,474.38,97.55Z" style="fill:#e0e0e0"></path><path d="M459.49,82.61c.06,0-1.31,2.22-3.05,4.86s-3.22,4.76-3.28,4.72a56.21,56.21,0,0,1,3-4.87A56.63,56.63,0,0,1,459.49,82.61Z" style="fill:#e0e0e0"></path><path d="M444.7,79.49a11.87,11.87,0,0,1,0,1.81c0,1.11,0,2.66,0,4.36s0,3.24,0,4.36a13,13,0,0,1,0,1.81,9.54,9.54,0,0,1-.18-1.8c-.07-1.12-.13-2.66-.13-4.37s0-3.25.12-4.37A11.36,11.36,0,0,1,444.7,79.49Z" style="fill:#e0e0e0"></path><path d="M433.51,93.43a56.38,56.38,0,0,1-3.11-4.81c-1.64-2.69-2.93-4.91-2.86-5s1.45,2.11,3.1,4.81S433.57,93.39,433.51,93.43Z" style="fill:#e0e0e0"></path><path d="M426.82,99.12a7.5,7.5,0,0,1-1.4-.23c-.86-.18-2-.46-3.32-.84s-2.43-.78-3.24-1.09a6.9,6.9,0,0,1-1.3-.57,7.67,7.67,0,0,1,1.36.38c.83.27,2,.64,3.26,1s2.44.69,3.28.92A7.37,7.37,0,0,1,426.82,99.12Z" style="fill:#e0e0e0"></path><path d="M423.9,109.24a32.64,32.64,0,0,1-4.21.55,35.21,35.21,0,0,1-4.23.27,32,32,0,0,1,4.2-.55A35.22,35.22,0,0,1,423.9,109.24Z" style="fill:#e0e0e0"></path><path d="M469.4,272.56s-.67-.24-1.92-.51a15.49,15.49,0,0,0-5.35-.21,14.45,14.45,0,0,0-7.21,3.11,15,15,0,0,0-5.08,8.08l0,.09-.14.58-.23-.55a16,16,0,0,0-6.09-7.36,15.65,15.65,0,0,0-7.44-2.48,16.32,16.32,0,0,0-5.31.49c-1.23.32-1.88.61-1.89.57a2.19,2.19,0,0,1,.46-.22,10.56,10.56,0,0,1,1.39-.5,15.94,15.94,0,0,1,13,1.84A16.25,16.25,0,0,1,449.8,283l-.37,0,0-.09a15.15,15.15,0,0,1,5.24-8.27,14.85,14.85,0,0,1,12.82-2.77,11.41,11.41,0,0,1,1.41.45A2,2,0,0,1,469.4,272.56Z" style="fill:#263238"></path><path d="M520.74,97.8s-.38-.1-1.06-.24a8.66,8.66,0,0,0-2.93-.09,7.91,7.91,0,0,0-3.92,1.71,8.17,8.17,0,0,0-2.76,4.4l0,0-.14.58-.23-.55a8.72,8.72,0,0,0-3.31-4,8.5,8.5,0,0,0-4.05-1.37,9.2,9.2,0,0,0-2.91.24c-.68.17-1,.31-1.05.28s.08-.06.25-.14a6.61,6.61,0,0,1,.76-.29,8.39,8.39,0,0,1,3-.36,8.54,8.54,0,0,1,4.23,1.34,8.92,8.92,0,0,1,3.47,4.17l-.37,0,0-.06a8.41,8.41,0,0,1,2.92-4.59,8,8,0,0,1,4.11-1.7,7.79,7.79,0,0,1,3,.21,5.79,5.79,0,0,1,.78.26C520.66,97.75,520.75,97.79,520.74,97.8Z" style="fill:#263238"></path><path d="M435.91,219.17s-.37.42-1,1.17a25.64,25.64,0,0,0-2.51,3.38,24.75,24.75,0,0,0-3.72,13.19v.17l-.38,0a21.87,21.87,0,0,0-2.41-7.14,22.69,22.69,0,0,0-6.86-7.66,14.89,14.89,0,0,1-1.26-.88,1.82,1.82,0,0,1,.36.18c.22.13.57.29,1,.57a20.32,20.32,0,0,1,3.3,2.63,22.13,22.13,0,0,1,3.79,5,21.62,21.62,0,0,1,2.48,7.26l-.38,0v-.17a24.19,24.19,0,0,1,3.88-13.34,22.21,22.21,0,0,1,2.63-3.35c.34-.37.64-.62.83-.8A1.41,1.41,0,0,1,435.91,219.17Z" style="fill:#263238"></path></g><g id="freepik--Character--inject-4"><path d="M372.43,182.77s-.09,40.31.19,49.21,24.05,58.79,24.05,58.79l12.93-3.09-15-53.59-1.76-28.52Z" style="fill:#ffbe9d"></path><path d="M409.36,286.63l8.36,12.48,2.29,13s-3.29,1.7-4.7-3.51c0,0-.34,2.74-1.55,3a1.65,1.65,0,0,1-1.83-.68s-.51,2.17-2.29,1.71-2-1.2-2.1-1.5-1.1.47-2.36,0a1.85,1.85,0,0,1-1.27-1.64s-1.93.54-2.58.06a5.43,5.43,0,0,1-1.21-1.8s-1.41-3.23-1.08-3.79,1.39-.64,1.39-.64l-.69-2.44s-2.29-3.28-2.63-4.76-.7-8.06-.7-8.06Z" style="fill:#ffbe9d"></path><path d="M420,312.14s-.08.06-.26.11a4.48,4.48,0,0,1-.78.16,3.73,3.73,0,0,1-1.29-.09,2.15,2.15,0,0,1-1.39-1.1v0c-.64-1.18-1.24-2.71-2-4.35a10.37,10.37,0,0,0-3.56-4.53c-1.67-1-3.66-1.51-5.08-2.7a9,9,0,0,1-2.77-3.86,8.49,8.49,0,0,1-.52-3.15,6.49,6.49,0,0,1,.09-.87c0-.19.07-.29.09-.29a10.53,10.53,0,0,0,.69,4.18,8.7,8.7,0,0,0,2.72,3.61c1.33,1.1,3.27,1.53,5.06,2.64a10.55,10.55,0,0,1,3.71,4.77c.75,1.68,1.31,3.2,1.89,4.39v0a1.85,1.85,0,0,0,1.13.95,3.37,3.37,0,0,0,1.2.16C419.63,312.19,420,312.1,420,312.14Z" style="fill:#eb996e"></path><path d="M412.25,311.14a7.5,7.5,0,0,1-1.39-1.61c-.39-.53-.84-1.18-1.3-1.92-.23-.37-.46-.76-.69-1.18a2.06,2.06,0,0,1-.36-1.57,1.49,1.49,0,0,1,1.37-.95,2.31,2.31,0,0,1,1.42.44,5.11,5.11,0,0,1,1.49,1.85c.59,1.17,1.11,1.76,1.08,1.81s-.72-.49-1.39-1.62a5,5,0,0,0-1.45-1.64,1.78,1.78,0,0,0-1.12-.33,1,1,0,0,0-.9.59,1.62,1.62,0,0,0,.31,1.18l.65,1.17c.43.75.84,1.41,1.19,2A10.59,10.59,0,0,1,412.25,311.14Z" style="fill:#eb996e"></path><path d="M407.73,311.25a30.23,30.23,0,0,1-2.46-5.38,1.61,1.61,0,0,1,.15-1.35,1.58,1.58,0,0,1,1.1-.65,2.12,2.12,0,0,1,1.82.82,3,3,0,0,1,.75,1.6c-.09,0-.34-.61-1-1.35a1.78,1.78,0,0,0-1.48-.59,1.07,1.07,0,0,0-.74.45,1.11,1.11,0,0,0-.08.94A37.2,37.2,0,0,1,407.73,311.25Z" style="fill:#eb996e"></path><path d="M405.39,305.53c-.09,0-.27-.61-.88-1.34a1.77,1.77,0,0,0-1.38-.64.94.94,0,0,0-.88,1.21,33.93,33.93,0,0,1,1.84,5.25,26.6,26.6,0,0,1-2.35-5.12,1.37,1.37,0,0,1,.27-1.29,1.54,1.54,0,0,1,1.1-.53,2.09,2.09,0,0,1,1.69.89A2.55,2.55,0,0,1,405.39,305.53Z" style="fill:#eb996e"></path><path d="M400.18,303.74c-.06,0,0-.23.24-.37a1,1,0,0,1,1,.14,1.47,1.47,0,0,1,.51.83c0,.24,0,.39,0,.41s-.38-.49-.79-.83a1,1,0,0,0-.6-.2C400.36,303.72,400.24,303.79,400.18,303.74Z" style="fill:#eb996e"></path><rect x="283.43" y="295.95" width="2.04" height="93.33" transform="translate(376.56 778.28) rotate(-152.24)" style="fill:#263238"></rect><path d="M218.47,459.1a6.32,6.32,0,1,0,8.61-2.39A6.32,6.32,0,0,0,218.47,459.1Z" style="fill:#263238"></path><path d="M214.64,456.94a6.32,6.32,0,1,0,8.61-2.39A6.32,6.32,0,0,0,214.64,456.94Z" style="fill:#455a64"></path><rect x="234.27" y="342.38" width="36.75" height="121.28" rx="7.01" transform="translate(288.48 877.34) rotate(-152.24)" style="fill:#DE9EA5"></rect><rect x="250.04" y="380.99" width="8.07" height="42.64" rx="3.52" transform="translate(291.46 876.65) rotate(-152.23)" style="fill:#263238"></rect><path d="M224.3,456.88c-.13-.07,12.46-24.24,28.12-54s28.45-53.8,28.58-53.73-12.46,24.23-28.12,54S224.43,456.94,224.3,456.88Z" style="fill:#263238"></path><rect x="276.39" y="346.67" width="10.14" height="2.81" rx="1.22" transform="translate(368.37 787.18) rotate(-152.24)" style="fill:#263238"></rect><path d="M341.21,133.19a2.44,2.44,0,0,0,3.18-1.39,5.56,5.56,0,0,0-.12-3.81,15.63,15.63,0,0,1-1-3.76,5.54,5.54,0,0,1,3.71-5.45,5.18,5.18,0,0,1-.36-7.46,20.85,20.85,0,0,1,3.32-2.13,11.39,11.39,0,0,0,1.75-1.43,7.28,7.28,0,0,1-3,.1,4.89,4.89,0,0,1-3.54-3.1,4.45,4.45,0,0,1,1.07-4.53,4,4,0,0,1,4.55-.67c1.43.75,2.21,2.3,2.91,3.76l.64,1.35c2-2.66,3.9-5.41,7-6.35,2.81-.84,5.83.1,8.76-.11,2.13-.15,4.18-.92,6.31-1.16s4.54.22,5.8,2c.73,1,1,2.33,1.71,3.34,1.54,2.08,4.86,2.37,6.12,4.63,1,1.84.24,4.16.68,6.22.48,2.24,2.33,3.88,3.84,5.6s2.83,4.08,2,6.21c-.74,1.87-2.93,2.88-3.64,4.77-.52,1.37-.14,2.9-.12,4.37s-.56,3.21-2,3.55l-16.3,4.3c-5.62,2.28-11.41,4.61-17.47,4.6s-12.53-2.92-14.92-8.49a3.5,3.5,0,0,0,2.34-1.05A5.85,5.85,0,0,1,341.21,133.19Z" style="fill:#263238"></path><path d="M354.57,138.3a75.55,75.55,0,0,1-3.28-12.6,26.34,26.34,0,0,1,1-12.87c.23-.62,2.19-4.76,2.84-4.7.47.05-.73,3.91-.5,4.32a22.33,22.33,0,0,1,2.52,13,58.52,58.52,0,0,1-2.61,12.81" style="fill:#263238"></path><path d="M369,174.43c-6.74-.14-14.39-14.87-14.39-14.87l-.44-37.85c-.35-10.9,5.7-20.19,16.6-20.24l1,.06a19.48,19.48,0,0,1,18.44,18.93c.26,9.45.42,19.89.09,24.94-.69,10.44-11.23,11.5-11.23,11.5s-.06,2.43-.09,5.5c-.07,6.9-7.29,12.27-10,12Z" style="fill:#ffbe9d"></path><path d="M379.05,156.9a25.21,25.21,0,0,1-13.39-4.75s2.91,7.78,13.39,7.4Z" style="fill:#eb996e"></path><path d="M387.44,127.6a1.49,1.49,0,0,1-1.52,1.43,1.42,1.42,0,0,1-1.46-1.43,1.5,1.5,0,0,1,1.52-1.43A1.42,1.42,0,0,1,387.44,127.6Z" style="fill:#263238"></path><path d="M387.73,124.68c-.2.19-1.28-.71-2.89-.79s-2.82.65-3,.45.13-.43.66-.78a4.15,4.15,0,0,1,2.41-.6,3.94,3.94,0,0,1,2.28.87C387.68,124.24,387.82,124.6,387.73,124.68Z" style="fill:#263238"></path><path d="M372.71,128.07a1.49,1.49,0,0,1-1.52,1.43,1.42,1.42,0,0,1-1.46-1.42,1.49,1.49,0,0,1,1.52-1.43A1.42,1.42,0,0,1,372.71,128.07Z" style="fill:#263238"></path><path d="M372,124.49c-.2.18-1.29-.71-2.89-.8s-2.83.66-3,.46.13-.44.66-.78a4.14,4.14,0,0,1,2.41-.61,3.94,3.94,0,0,1,2.28.88C371.91,124,372.06,124.41,372,124.49Z" style="fill:#263238"></path><path d="M377.06,137.13a10.88,10.88,0,0,1,2.64-.33c.41,0,.8-.08.89-.35a2.12,2.12,0,0,0-.21-1.23c-.33-1-.68-2.08-1.05-3.19-1.44-4.54-2.47-8.26-2.28-8.31s1.5,3.57,2.95,8.11c.34,1.11.67,2.18,1,3.2a2.39,2.39,0,0,1,.13,1.62,1,1,0,0,1-.71.56,2.58,2.58,0,0,1-.7.06A10.66,10.66,0,0,1,377.06,137.13Z" style="fill:#263238"></path><path d="M372.28,138c.26,0,.17,1.74,1.6,3.06s3.29,1.22,3.29,1.47-.43.31-1.22.29a4.33,4.33,0,0,1-2.75-1.12,3.79,3.79,0,0,1-1.23-2.56C371.94,138.4,372.16,138,372.28,138Z" style="fill:#263238"></path><path d="M372.23,118c-.18.43-1.78.13-3.67.26s-3.45.56-3.68.15c-.1-.19.19-.59.82-1a6.41,6.41,0,0,1,5.6-.31C372,117.4,372.31,117.76,372.23,118Z" style="fill:#263238"></path><path d="M387.35,119.31c-.3.35-1.39-.09-2.72-.18s-2.46.11-2.7-.28c-.11-.19.09-.55.6-.87a3.94,3.94,0,0,1,4.37.37C387.35,118.75,387.49,119.14,387.35,119.31Z" style="fill:#263238"></path><path d="M354.58,129.5c-.17-.09-7.06-2.51-7.22,4.64s7.06,5.84,7.08,5.63S354.58,129.5,354.58,129.5Z" style="fill:#ffbe9d"></path><path d="M352.31,137s-.13.09-.34.18a1.23,1.23,0,0,1-.93,0,3.09,3.09,0,0,1-1.37-2.8,4.23,4.23,0,0,1,.39-1.78,1.46,1.46,0,0,1,1-.93.63.63,0,0,1,.73.36c.09.2,0,.34.08.35s.15-.11.1-.41a.78.78,0,0,0-.27-.46.92.92,0,0,0-.68-.19,1.73,1.73,0,0,0-1.33,1.08,4.23,4.23,0,0,0-.48,2c0,1.45.73,2.81,1.76,3.13a1.32,1.32,0,0,0,1.14-.16C352.3,137.19,352.34,137,352.31,137Z" style="fill:#eb996e"></path><path d="M385.72,108.55c1.16-.62-2.27-4.42-5.09-5.75-4.28-2-10.83-3.29-14.81-2.22-4.8,1.3-8.79,3.62-11.25,7.94a28.12,28.12,0,0,0-3.34,14.33,8.53,8.53,0,0,0,.95,4.38c1,1.6,2.88,2.62,2.77,4.8a3,3,0,0,0,.72,2.19c1.29,1.41,2.91.13,3.66-1.18,1.61-2.78,1.83-6.12,2-9.33a20.72,20.72,0,0,0-.37-6.81c-.33-1.2-.88-2.34-1.15-3.55a4.33,4.33,0,0,1,.55-3.57,4.66,4.66,0,0,1,.59-.58,7.48,7.48,0,0,1,7.43-1.31c4,1.48,10.86,3.69,12.68,2.35a11,11,0,0,0,3.24-3.21Z" style="fill:#263238"></path><path d="M366.2,99.62a15.68,15.68,0,0,1,12.08.82,8.18,8.18,0,0,1,4.26,4.8c.56,2.13-.37,4.73-2.42,5.53l-.14.09c-3.07,1-5.05.55-8.08-.54-2.55-.92-4.81-2.53-7.36-3.44a14.61,14.61,0,0,0-8.51-.36A23.68,23.68,0,0,1,366.2,99.62Z" style="fill:#263238"></path><path d="M352.59,106.69c.06.06.64-.63,1.8-1.43a10.41,10.41,0,0,1,2.17-1.17,6.76,6.76,0,0,1,2.91-.48,9.74,9.74,0,0,1,5,2c1.11.88,1.62,1.62,1.69,1.57s-.07-.22-.31-.55a7.22,7.22,0,0,0-1.16-1.27,9.25,9.25,0,0,0-5.17-2.28,6.78,6.78,0,0,0-3.11.56,9.47,9.47,0,0,0-2.21,1.29A5.55,5.55,0,0,0,352.59,106.69Z" style="fill:#455a64"></path><path d="M351.88,109.23a6.1,6.1,0,0,0,.54,2,14.92,14.92,0,0,0,6.68,7.53,6.13,6.13,0,0,0,2,.78,22.16,22.16,0,0,1-5.6-4.28A22.56,22.56,0,0,1,351.88,109.23Z" style="fill:#455a64"></path><path d="M349,110.39a2.46,2.46,0,0,0,0,.81,13.06,13.06,0,0,0,.31,2.2,15,15,0,0,0,9.3,10.67,13.24,13.24,0,0,0,2.14.61,2.47,2.47,0,0,0,.81.08c0-.08-1.13-.28-2.82-1a15.72,15.72,0,0,1-9.1-10.43C349.09,111.54,349.05,110.38,349,110.39Z" style="fill:#455a64"></path><path d="M374.4,99c0,.07.74.25,1.89.71a15.47,15.47,0,0,1,7.34,6,19.5,19.5,0,0,0,1.07,1.72,5.52,5.52,0,0,0-.78-1.9,13.27,13.27,0,0,0-3.18-3.79,13.44,13.44,0,0,0-4.33-2.4A5.24,5.24,0,0,0,374.4,99Z" style="fill:#455a64"></path><path d="M346.72,99.86a8.21,8.21,0,0,0,5.43,6.46,19.92,19.92,0,0,1-3.25-2.78A20.63,20.63,0,0,1,346.72,99.86Z" style="fill:#455a64"></path><path d="M306.34,272.65s-12.74,5-21.3,1.84-10.85-9.36-10.85-9.36h0a131.48,131.48,0,0,1,7.39-52.06l5.84-16.35s17.51-26.53,29.06-32.48,22.41-2.85,21.38-1.79-16.67,97.18-16.67,97.18Z" style="fill:#455a64"></path><path d="M306.84,243.49a12.1,12.1,0,0,0-1.53-.2l-4.51-.5-16.36-1.69-.29,0,0,.28c-.48,3.52-1,7.37-1.56,11.45q-.41,3.06-.84,6.3a25.64,25.64,0,0,0-.36,6.71,6.42,6.42,0,0,0,2.31,4.38,7.74,7.74,0,0,0,4.61,1.36,39.91,39.91,0,0,0,4.55-.2,11.62,11.62,0,0,0,4.28-1.14,7.61,7.61,0,0,0,3-3,20.93,20.93,0,0,0,1.56-3.62c.83-2.38,1.46-4.63,2-6.69,1.09-4.12,1.86-7.48,2.4-9.8l.6-2.69a5.87,5.87,0,0,0,.16-.94s-.12.35-.3.92-.42,1.55-.72,2.64c-.62,2.3-1.47,5.64-2.62,9.74-.58,2-1.24,4.28-2.08,6.63a20,20,0,0,1-1.55,3.49,6.85,6.85,0,0,1-2.77,2.72,11.17,11.17,0,0,1-4.05,1.06,43.63,43.63,0,0,1-4.46.18,7.22,7.22,0,0,1-4.21-1.23,5.7,5.7,0,0,1-2-3.93,24.58,24.58,0,0,1,.35-6.52c.28-2.15.55-4.26.82-6.3.53-4.09,1-7.94,1.49-11.46l-.33.26,16.19,1.36,4.59.35,1.24.08A2.14,2.14,0,0,0,306.84,243.49Z" style="fill:#263238"></path><path d="M310.38,168.66c-.14.22,3.82,1.1,8.5,2.5a42,42,0,0,1,5.85,2.16c1.45.68,2.15,1.37,2.22,1.31s-.54-.93-2-1.75a29.13,29.13,0,0,0-5.89-2.39,62.29,62.29,0,0,0-6.14-1.51A9.8,9.8,0,0,0,310.38,168.66Z" style="fill:#263238"></path><path d="M295.84,227.25a16.09,16.09,0,0,0,.38-2.39c.08-.77.24-1.71.44-2.79s.41-2.32.73-3.67c.57-2.72,1.5-5.89,2.6-9.39s2.61-7.25,4.27-11.14A199.69,199.69,0,0,1,314,178.49c1.37-2.42,2.52-4.35,3.32-5.68a16.09,16.09,0,0,0,1.17-2.12,17.25,17.25,0,0,0-1.41,2c-.86,1.29-2.08,3.19-3.51,5.58a166.51,166.51,0,0,0-10,19.35c-1.68,3.91-3.1,7.71-4.24,11.22a87.51,87.51,0,0,0-2.47,9.49c-.3,1.36-.49,2.61-.64,3.71s-.28,2-.32,2.82-.09,1.3-.12,1.79A2.18,2.18,0,0,0,295.84,227.25Z" style="fill:#263238"></path><rect x="288.43" y="234.71" width="12.71" height="7.64" transform="translate(566.07 503.48) rotate(-174.65)" style="fill:#ebebeb"></rect><path d="M288.54,232.5c.31-1.34,5.72-2.48,5.72-2.48l.21-2.18,3.08.29-.2,2.18s4.09,2.3,4.56,3.08-.6,3.51-.6,3.51l-13.07-1.22A16.8,16.8,0,0,1,288.54,232.5Z" style="fill:#263238"></path><path d="M288.24,239.46c0,.19,2.82.61,6.34.94s6.39.44,6.41.25-2.82-.62-6.34-1S288.26,239.26,288.24,239.46Z" style="fill:#e0e0e0"></path><path d="M288.71,232.47c0,.18,2.91.9,6.63,1.27s6.75.25,6.75.06-3-.39-6.68-.76S288.74,232.27,288.71,232.47Z" style="fill:#455a64"></path><path d="M294.24,230c-.16.11.35.92,1.44,1.07s1.79-.52,1.67-.66-.78.07-1.58,0S294.38,229.82,294.24,230Z" style="fill:#455a64"></path><path d="M287.1,196.7c0,.2,3.47.81,7.71,1.85s7.64,2.08,7.71,1.89-3.25-1.54-7.54-2.57S287.12,196.51,287.1,196.7Z" style="fill:#263238"></path><path d="M278,223.14a46,46,0,0,0,3.29-3.7,118,118,0,0,1,8.27-8.58c3.4-3.18,6.68-5.83,9.11-7.68s4-2.93,3.92-3a4.92,4.92,0,0,0-1.18.63c-.73.43-1.77,1.12-3,2a87.58,87.58,0,0,0-9.3,7.57,85.94,85.94,0,0,0-8.17,8.77c-1,1.19-1.71,2.18-2.2,2.89A5,5,0,0,0,278,223.14Z" style="fill:#263238"></path><path d="M278.14,222.89c-.08.17,3.32,1.9,7.78,3.36s8.22,2.09,8.26,1.91-3.63-1.12-8-2.58S278.22,222.71,278.14,222.89Z" style="fill:#263238"></path><path d="M286.69,196.65a4.78,4.78,0,0,0-.22,1.28,32.94,32.94,0,0,0-.18,3.53,44.81,44.81,0,0,0,5.94,22.3,31.24,31.24,0,0,0,1.91,3,4.51,4.51,0,0,0,.82,1c.1-.06-.92-1.59-2.3-4.2a51.3,51.3,0,0,1-5.87-22.08C286.68,198.5,286.81,196.66,286.69,196.65Z" style="fill:#263238"></path><path d="M396.34,355.47l15.43,78.86-16.59,3.89s-18-46.85-20.28-54.28S370,356.51,370,356.51Z" style="fill:#ffbe9d"></path><path d="M412.24,433.73l3.81,17.58s18.81.77,19.83,3.95l-33.48,9.87-7.75-27Z" style="fill:#DE9EA5"></path><g style="opacity:0.6000000000000001"><path d="M405.22,452.51a1.41,1.41,0,0,0-.55,1.81,1.37,1.37,0,0,0,1.8.57A1.51,1.51,0,0,0,407,453a1.42,1.42,0,0,0-1.93-.38" style="fill:#fff"></path></g><path d="M402.4,465.13l-.71-2.74,32.66-8.4a2.39,2.39,0,0,1,1.77,1.46Z" style="fill:#263238"></path><path d="M416.56,451c0,.16-.77.45-1.45,1.19s-.93,1.54-1.1,1.51-.17-1,.67-1.92S416.55,450.84,416.56,451Z" style="fill:#263238"></path><path d="M420.48,451.56c.08.15-.57.61-1,1.45s-.36,1.63-.52,1.66-.51-.87,0-1.91S420.43,451.4,420.48,451.56Z" style="fill:#263238"></path><path d="M423.57,455.29c-.14.08-.58-.69-.38-1.7s.87-1.57,1-1.45-.25.72-.39,1.56S423.73,455.23,423.57,455.29Z" style="fill:#263238"></path><path d="M415.24,447.09c0,.16-.84.13-1.76.43s-1.57.78-1.69.66.43-.88,1.51-1.22S415.29,446.94,415.24,447.09Z" style="fill:#263238"></path><path d="M414.41,443.55a3.26,3.26,0,0,1-1.7.43,7.59,7.59,0,0,1-1.91-.1,8.27,8.27,0,0,1-1.1-.26,2.24,2.24,0,0,1-.61-.27.73.73,0,0,1-.3-.86.88.88,0,0,1,.62-.56,2,2,0,0,1,.66-.08,6.08,6.08,0,0,1,1.15.1,6.15,6.15,0,0,1,1.82.62c1,.53,1.39,1.08,1.35,1.12s-.58-.34-1.53-.74a7.21,7.21,0,0,0-1.73-.46,5.94,5.94,0,0,0-1.05-.06c-.38,0-.68.08-.73.26s0,.09.08.18a1.6,1.6,0,0,0,.45.19,8.41,8.41,0,0,0,1,.29,9.67,9.67,0,0,0,1.79.21A12.19,12.19,0,0,1,414.41,443.55Z" style="fill:#263238"></path><path d="M414.26,443.85c-.06,0-.54-.47-.87-1.53a5.76,5.76,0,0,1-.24-1.91,5.94,5.94,0,0,1,.17-1.14,1.45,1.45,0,0,1,.86-1.13.85.85,0,0,1,.83.29,2.71,2.71,0,0,1,.33.58,3.48,3.48,0,0,1,.29,1.14,4,4,0,0,1-.27,1.94c-.44,1-1.08,1.41-1.11,1.36A12.46,12.46,0,0,0,415,442a4,4,0,0,0,.13-1.73,3.55,3.55,0,0,0-.28-1c-.14-.35-.35-.6-.48-.53s-.38.38-.45.7a6.36,6.36,0,0,0-.18,1,6.21,6.21,0,0,0,.1,1.77C414,443.22,414.34,443.8,414.26,443.85Z" style="fill:#263238"></path><path d="M339.31,361.83l-30.49,88-15.14-1.74s2.94-52.52,6.81-62.05,11.1-26.8,11.1-26.8Z" style="fill:#ffbe9d"></path><path d="M311.49,444l-4,17.53s16.7,8.68,16.27,12l-34.5-5.27,4.43-27.71Z" style="fill:#DE9EA5"></path><g style="opacity:0.6000000000000001"><path d="M297.16,458a1.41,1.41,0,0,0-1.27,1.41,1.37,1.37,0,0,0,1.39,1.28,1.51,1.51,0,0,0,1.34-1.51A1.42,1.42,0,0,0,297,458" style="fill:#fff"></path></g><path d="M289.25,468.24l.52-2.78,33.13,6.25a2.44,2.44,0,0,1,1,2.08Z" style="fill:#263238"></path><path d="M308.07,461.45c0,.17-.89.09-1.82.47s-1.5,1-1.64.9.29-1,1.42-1.45S308.13,461.31,308.07,461.45Z" style="fill:#263238"></path><path d="M311.38,463.63c0,.17-.78.32-1.48.91s-1,1.32-1.18,1.28-.09-1,.8-1.73S311.4,463.47,311.38,463.63Z" style="fill:#263238"></path><path d="M312.59,468.32c-.15,0-.23-.87.38-1.71s1.45-1,1.5-.89-.53.55-1,1.24S312.76,468.34,312.59,468.32Z" style="fill:#263238"></path><path d="M308.54,457.36c-.1.14-.83-.24-1.78-.36s-1.76,0-1.82-.12.77-.62,1.89-.47S308.64,457.24,308.54,457.36Z" style="fill:#263238"></path><path d="M309.28,453.81a3.32,3.32,0,0,1-1.71-.34,7.38,7.38,0,0,1-1.69-.9,7.1,7.1,0,0,1-.89-.71,2,2,0,0,1-.44-.5.76.76,0,0,1,.09-.91,1,1,0,0,1,.81-.24,2.45,2.45,0,0,1,.63.21,6.74,6.74,0,0,1,1,.57,6.41,6.41,0,0,1,1.39,1.35,2.94,2.94,0,0,1,.74,1.58c-.09,0-.37-.55-1.07-1.32a6.72,6.72,0,0,0-1.36-1.15,8.2,8.2,0,0,0-.93-.5c-.34-.16-.65-.22-.78-.08s-.05.08,0,.2a1.76,1.76,0,0,0,.33.37,8.48,8.48,0,0,0,.81.69,9.74,9.74,0,0,0,1.53.95A12.85,12.85,0,0,1,309.28,453.81Z" style="fill:#263238"></path><path d="M309,454c-.07,0-.28-.64-.14-1.74a5.82,5.82,0,0,1,.6-1.83,5.66,5.66,0,0,1,.63-1,1.45,1.45,0,0,1,1.26-.66.82.82,0,0,1,.63.62,2.19,2.19,0,0,1,.05.66,3.68,3.68,0,0,1-.22,1.16,4,4,0,0,1-1.07,1.63c-.84.76-1.58.82-1.58.76s.61-.3,1.28-1.06a3.78,3.78,0,0,0,.85-1.51,3.21,3.21,0,0,0,.16-1c0-.38-.06-.7-.2-.69a1,1,0,0,0-.71.45,5.34,5.34,0,0,0-.61.85,6.37,6.37,0,0,0-.66,1.65C309.05,453.34,309.11,454,309,454Z" style="fill:#263238"></path><path d="M385.26,274.83l-44.91-1.74s-1.11,27.29-1,34.47,14.2,28.25,14.2,28.25l13.26,31.36,36.15-10.77L396,307.32s-9.11-26.34-10.52-31.65a2.91,2.91,0,0,1-.17-.91" style="fill:#263238"></path><path d="M361.81,320.13l-22.5,48.1-35.07-9.32L318.54,315s1.27-22.3,2.06-27.44.94-6.08.94-6.08l20.54-11.21,32.44,7S366.51,310,361.81,320.13Z" style="fill:#263238"></path><path d="M366.74,309.58a32.41,32.41,0,0,0-2.18,4.1c-1.26,2.58-3,6.15-4.82,10.11s-3.49,7.56-4.64,10.18a32.55,32.55,0,0,0-1.75,4.31,32.41,32.41,0,0,0,2.18-4.1c1.26-2.57,3-6.14,4.82-10.11s3.49-7.57,4.65-10.19A29.58,29.58,0,0,0,366.74,309.58Z" style="fill:#455a64"></path><path d="M315.62,324.05c-.07.17,3.63,1.83,8.35,3.46s8.65,2.62,8.7,2.45-3.78-1.46-8.48-3.09S315.69,323.88,315.62,324.05Z" style="fill:#455a64"></path><path d="M313.93,331.21a15.09,15.09,0,0,0,3.18,1.8,54.26,54.26,0,0,0,8.24,3.13c.83.25,1.64.46,2.43.65l1.17.27a2.29,2.29,0,0,0,1.3,0,1.8,1.8,0,0,0,.94-.85,6.24,6.24,0,0,0,.43-1,16.07,16.07,0,0,0,.55-1.78,9.52,9.52,0,0,0,.4-3.65c-.11,0-.21,1.39-.86,3.52a17.79,17.79,0,0,1-.61,1.7c-.24.59-.53,1.28-1.05,1.45a5.47,5.47,0,0,1-2.11-.33q-1.17-.3-2.4-.66a79,79,0,0,1-8.24-2.92A28.59,28.59,0,0,0,313.93,331.21Z" style="fill:#455a64"></path><path d="M308.09,350.08a3.94,3.94,0,0,0,.87.81,22.39,22.39,0,0,0,2.67,1.84,12.85,12.85,0,0,0,4.54,1.67,8.53,8.53,0,0,0,5.8-1.27,12.3,12.3,0,0,0,4-4.38,20.54,20.54,0,0,0,1.77-4.49c.36-1.31.57-2.4.7-3.14a4.48,4.48,0,0,0,.14-1.18c-.11,0-.5,1.61-1.3,4.19a22.32,22.32,0,0,1-1.85,4.31,12,12,0,0,1-3.83,4.11,8,8,0,0,1-5.36,1.23,13,13,0,0,1-4.39-1.47C309.49,351,308.16,350,308.09,350.08Z" style="fill:#455a64"></path><path d="M369.6,301.76a11.66,11.66,0,0,0,.92-2.95A61.32,61.32,0,0,0,372.2,284a12.09,12.09,0,0,0-.24-3.08,15.91,15.91,0,0,0-.24,3.07c-.09,1.9-.26,4.51-.58,7.38s-.75,5.46-1.08,7.32A18,18,0,0,0,369.6,301.76Z" style="fill:#263238"></path><path d="M324.23,284.82a4.49,4.49,0,0,0,.32,2.52,8.12,8.12,0,0,0,10.15,5.11,4.53,4.53,0,0,0,2.23-1.24c-.06-.1-.88.44-2.35.78a8.2,8.2,0,0,1-9.58-4.82C324.4,285.78,324.35,284.8,324.23,284.82Z" style="fill:#455a64"></path><path d="M381,280.94a10,10,0,0,0,.51,3.21,23.53,23.53,0,0,0,3.29,7.13,24.08,24.08,0,0,0,5.41,5.69,10.51,10.51,0,0,0,2.8,1.65c.15-.18-4.27-2.67-7.65-7.72S381.26,280.86,381,280.94Z" style="fill:#455a64"></path><path d="M367.12,282.06s-.18-.09-.5,0a1.92,1.92,0,0,0-1.16.74,2.14,2.14,0,0,0-.37,2.05,2.37,2.37,0,0,0,2.08,1.49,2.22,2.22,0,0,0,2-1.54,2,2,0,0,0-.42-2c-.85-.92-1.72-.73-1.67-.67s.72.15,1.29,1a1.6,1.6,0,0,1,.22,1.53,1.65,1.65,0,0,1-1.45,1.07,1.81,1.81,0,0,1-1.51-1,1.75,1.75,0,0,1,.18-1.55C366.37,282.19,367.15,282.18,367.12,282.06Z" style="fill:#455a64"></path><path d="M378.73,164.41s13,8.34,14.62,13.53,5.4,32.23,5.4,32.23l-18.92,6.26S378.3,163.67,378.73,164.41Z" style="fill:#DE9EA5"></path><path d="M378.73,164.41s6.07,22.28,6.46,30.77S384,237.67,384,237.67s-2.51,14.29-1.54,17,6.18,16.61,6,24.33h-18s-16.77-1.42-32.83-1.93c-9-.29-17.76,5.41-17.76,5.41a60.34,60.34,0,0,1,0-25.88c3.09-14.48,2.31-30.65,2.31-30.65-.14,6.52,1.94-18.45,4.93-53.58.79-9.26,2.64-18.35,11.71-18.93h15.26C363.11,162.08,372.84,167.93,378.73,164.41Z" style="fill:#DE9EA5"></path><path d="M381.93,166.59c5.11-2.28,7.67,1.55,8.05,2.38a7.61,7.61,0,0,1,.57,2.68c.64,8.37-2.6,28.86-5.09,36.87l-.88-39.92Z" style="fill:#455a64"></path><g style="opacity:0.30000000000000004"><path d="M354.3,185.58c-3.08,8.35-6.27,16.89-12,23.68-2.76,3.26-6.08,6.07-8.38,9.67-2,3.22-3.2,6.91-4.75,10.4s-3.64,6.94-6.93,8.88l.23-20.26,10.74-25Z"></path></g><path d="M382.14,248.89a4,4,0,0,1,0-.57c.05-.43.11-1,.18-1.62.18-1.41.42-3.45.69-6,.55-5,1.16-12,1.53-19.74s.42-14.74.35-19.81c0-2.53-.07-4.58-.11-6,0-.66,0-1.2,0-1.64a2.52,2.52,0,0,1,0-.57,2.06,2.06,0,0,1,.08.57c0,.43.07,1,.13,1.63.1,1.41.19,3.47.27,6,.16,5.08.17,12.1-.2,19.84s-1,14.73-1.69,19.76c-.32,2.52-.61,4.56-.84,6-.12.65-.21,1.18-.28,1.61A1.92,1.92,0,0,1,382.14,248.89Z" style="fill:#263238"></path><path d="M342,244.48a6.37,6.37,0,0,1,1.22.48l3.27,1.43c2.76,1.2,6.62,2.75,11,4.22s8.37,2.56,11.29,3.29l3.47.83a6,6,0,0,1,1.26.36,6.46,6.46,0,0,1-1.3-.16c-.84-.13-2-.36-3.51-.68a106.51,106.51,0,0,1-11.38-3.14,109.43,109.43,0,0,1-10.95-4.38c-1.37-.64-2.46-1.19-3.21-1.59A6.58,6.58,0,0,1,342,244.48Z" style="fill:#263238"></path><path d="M335.42,151.21a15.21,15.21,0,0,1,9.18-1.3c3,.5,6.89,1.87,9.32,5.46,4.48,6.61,7,14.11,3,25.14-4.93,13.63-23,31.7-23,31.7l14.75-29.05a26.35,26.35,0,0,0,2.08-18.9c-1.33-4.86-4.13-9.35-9.85-9.8-3.95-1-7.92.49-11.7,3.91C329.63,156.16,331.46,153.15,335.42,151.21Z" style="fill:#455a64"></path><path d="M363,209.52a1.24,1.24,0,0,1-.8,1,10.84,10.84,0,0,1-4.55.77c-.59.06.72,1.05,1.55,1.3a3,3,0,0,0,2.88-.22c.55-.35.66-.76,1.5-.77s.17,1.29-1.1,1.28a7.77,7.77,0,0,0-1.76.14c-.23.06-.27.15-.09.31a3.56,3.56,0,0,0,1.68,1c2.72.41,3.43-2.65,4-4.22.08-.41.16-.82.23-1.23.76-4,1.5-7.66,2.07-10.28a25.81,25.81,0,0,1,1.07-4.22,23.79,23.79,0,0,1-.54,4.32c-.43,2.65-1.08,6.3-1.85,10.32-.25,1.43-.54,2.79-.86,4.08,0,.06,0,.12,0,.18a3.76,3.76,0,0,0,2.54,2.48,2.31,2.31,0,0,0,.28.1c1.64.25,2.07-.08,2.74-.79.12-.13,0-.27-.11-.26a2,2,0,0,1-2.06-.69c-.73-.85-1-2.27-.38-2.21,1.43.14,1.9,2.24,3.71,2.84a2.23,2.23,0,0,0,2.31-.47,1.67,1.67,0,0,0,.42-.5c.26-.52-.18-.2-1.37-.49a3.13,3.13,0,0,1-2.11-1.46c-1-1.49-1.83-1.59-1.53-1.82.46-.35,1.83.88,3.18,1.07a3.72,3.72,0,0,0,3.11-.72,2.53,2.53,0,0,0,.58-1.21,3.47,3.47,0,0,0-.19-2.41.15.15,0,0,0-.3,0,3.37,3.37,0,0,1-1.26,1.83c-1.07.78-3.84.65-4.5-.68-.2-.42.2-.64.66-.71,1.47-.24,2.49.57,5.09-.76a3.68,3.68,0,0,0,1.94-2.19,3.43,3.43,0,0,0,.21-1.14c0-.22-.29-.22-.5-.17a5.93,5.93,0,0,0-2.06,1.25,14,14,0,0,1-2.65,1.53c-1,.37-2.25-.29-1.81-.68,1.06-.93,2.16-.45,3.59-1.09s3.14-2.07,3.21-3.81a15.29,15.29,0,0,0-.13-2c0-.28-.17-.33-.27-.24a8.05,8.05,0,0,1-2.08,2,8.14,8.14,0,0,0-1.4,1.56c-1.55,2-3.91,1.65-3.5.8.8-1.68,5.66-1.65,5.86-5.76,0-.45-.07-2.36-.5-1.93a1.15,1.15,0,0,0-.14.17,2.79,2.79,0,0,1-1.27,1.19c-1.9,1.12-1.84,1.72-2.9,3.3a1.87,1.87,0,0,1-1.64.74c-.46,0-.27-.61,0-1,1.1-1.59,4.66-2.39,4.75-5.68,0-.65-.35-2.06-.71-1.54a5.51,5.51,0,0,1-1.93,2.53,4.11,4.11,0,0,0-1.48,1.37c-.14.22-.4.65-.6.52s-.09-.33,0-.75a8.43,8.43,0,0,1,1.6-1.89,4.7,4.7,0,0,0,1.52-2.16c.29-1-.44-1.89-.62-1.37s-.63,2.85-2,3.21a.19.19,0,0,1-.22-.07c-.26-.33-.13-.62.13-1a5.06,5.06,0,0,0,1-3.48c0-.25,0-.43-.43-.35-1.61.31-2.74-.34-3.06,1.42-.35,1.94.62,2.83.2,3.58-.07.13-.16.15-.3.09a1.23,1.23,0,0,1-.46-.39,6.14,6.14,0,0,1-.76-3.37c0-.81,0-.68.14-.94,0-.07.06-.13,0-.2-.21-.22-1.3.54-1.48,1.83a7.81,7.81,0,0,0,.25,2.7,12.66,12.66,0,0,0,.93,2.45c.18.41.2,1.15-.24,1-1.38-.33-1.85-2.84-2.27-4.13a22.36,22.36,0,0,1-.9-2.58c0-.06,0-.13,0-.19-.21-.56-.8.88-1,1.47a4.74,4.74,0,0,0,.06,2.15c.7,3.64,2.58,4.24,3.07,6,.05.19,0,.35-.17.39a1.94,1.94,0,0,1-1.45-.48c-2.35-1.6-3-4.06-3-6.9,0-.88-2.47,1.23-2,3.23s1.43,2.86,3.29,4.88a5.17,5.17,0,0,1,1,1.18c.12.23.13.38-.12.36-1.78-.14-2.35-2.34-3.23-3.47-1-1.28-1.35-1.63-1.46-2.24-.14-.82-1.06.33-1.32,1.08a3,3,0,0,0,.56,3c2.51,3.17,4.07,3,4.53,4,.06.12,0,.17-.09.18-.86.08-1.36-.36-2.44-.63-.25-.06-.49-.15-.73-.23-1.88-.69-2.77-4.31-3.43-3.62a3.9,3.9,0,0,0-.49,1c-.47,1.31.74,3.13,1.86,4a5.66,5.66,0,0,0,1.85.76,8.71,8.71,0,0,1,2.34.87c.37.17.79.47.47.72a2.54,2.54,0,0,1-2,.49,2.35,2.35,0,0,1-.68-.22c-1.1-.46-1.62-1.23-2.75-1.91a4,4,0,0,0-.74-.31.78.78,0,0,0-.16,0c-.27,0-.31.05-.32.31a4.78,4.78,0,0,0,.49,1.83,3.36,3.36,0,0,0,1.14,1.31,3.57,3.57,0,0,0,1.61.62,6.6,6.6,0,0,0,.89.14C361.23,209.51,363.07,208.41,363,209.52Zm6.85-2.26c.14.08.3.31.11.48a1.1,1.1,0,0,1-1.16-.06C368.28,207.31,369.07,206.82,369.8,207.26Zm0-2.36a4.7,4.7,0,0,0,.45.17c.35.15.68.65.27,1-.67.58-2.53,0-1.88-.86C368.93,204.84,369.4,204.88,369.81,204.9Zm.81-1.88a.44.44,0,0,1-.06.75,1.31,1.31,0,0,1-1.19.1C368.5,203.57,369.58,202.4,370.62,203Zm.29-2.3a1.17,1.17,0,0,1-1.28.46c-.5-.14-.18-.84.71-.88C370.65,200.29,371.07,200.47,370.91,200.72ZM367,201.88c-2-.29-1.54-2.41.23-.83a.62.62,0,0,1,.21.46C367.47,201.77,367.18,201.91,367,201.88Zm-2.19,1.74a.58.58,0,0,1,.48-1c.68.07,2,.94,1.59,1.52S365.32,204.17,364.81,203.62ZM364.6,206l-.18-.17a.51.51,0,0,1-.15-.31c-.07-.37.33-.48.6-.43a2.35,2.35,0,0,1,1.47.67.34.34,0,0,1-.15.6A2,2,0,0,1,364.6,206Zm-.72,1a1,1,0,0,1,.62,0h0c1.07.22,1.31.91.92,1.06a2,2,0,0,1-1.49-.38C363.54,207.45,363.6,207.12,363.88,207Z" style="fill:#fff;opacity:0.7000000000000001"></path><path d="M348.46,217.78a9.65,9.65,0,0,0,2.85,1,7.72,7.72,0,0,0,3.48-.28,2.86,2.86,0,0,0,1.72-1.12.92.92,0,0,0-.09-1,.64.64,0,0,0-.92,0,1.92,1.92,0,0,0-.6,1,3.67,3.67,0,0,0,0,1.32,4.11,4.11,0,0,0,1.42,2.4,4,4,0,0,0,2.83.87,3.59,3.59,0,0,0,2.71-1.45,2,2,0,0,0,.35-1.48,1.64,1.64,0,0,0-1-1.14,1.11,1.11,0,0,0-1.31.49,2.76,2.76,0,0,0-.3,1.65c.36,2.31,2.45,4.68,5,4.73a4,4,0,0,0,3.17-1.68,3.3,3.3,0,0,0,.64-1.66,2.1,2.1,0,0,0-.47-1.59.72.72,0,0,0-1.21.05,3.24,3.24,0,0,0-.43,1.63,5.87,5.87,0,0,0,.75,3.29,4.27,4.27,0,0,0,5.4,1.83,3.32,3.32,0,0,0,1.34-4.63,2,2,0,0,0-1.95-.94,1.45,1.45,0,0,0-1,1.56,4,4,0,0,0,.48,1.8,6.86,6.86,0,0,0,.9,1.33,8,8,0,0,0,2.38,1.82l-.19,0a5.37,5.37,0,0,1-.54-.25,6.34,6.34,0,0,1-1.8-1.39,6.6,6.6,0,0,1-1-1.35,4.08,4.08,0,0,1-.55-1.91,2.29,2.29,0,0,1,.24-1.12,1.53,1.53,0,0,1,1-.77,2.34,2.34,0,0,1,2.34,1.06,3.71,3.71,0,0,1-1.46,5.22,4.7,4.7,0,0,1-6-2,6.31,6.31,0,0,1-.84-3.56,3.7,3.7,0,0,1,.52-1.89,1.28,1.28,0,0,1,1-.57,1.34,1.34,0,0,1,1,.47,3.18,3.18,0,0,1-.13,3.9,4.5,4.5,0,0,1-3.59,1.89,5.38,5.38,0,0,1-3.71-1.68,6.24,6.24,0,0,1-1.81-3.52,3.12,3.12,0,0,1,.38-2,1.6,1.6,0,0,1,1.89-.69,2.14,2.14,0,0,1,1.29,1.5,2.46,2.46,0,0,1-.43,1.86,4.1,4.1,0,0,1-3.08,1.64,4.38,4.38,0,0,1-4.67-3.66,4,4,0,0,1,0-1.47,2.24,2.24,0,0,1,.75-1.24,1.23,1.23,0,0,1,.7-.29.91.91,0,0,1,.7.3,1.25,1.25,0,0,1,.14,1.34,3,3,0,0,1-1.93,1.25,7.71,7.71,0,0,1-3.6.21,7.46,7.46,0,0,1-2.16-.74A3.15,3.15,0,0,1,348.46,217.78Z" style="fill:#fff"></path><path d="M342.51,185.93c-.29.66-22.28,42.71-22.28,42.71l-5.78,61.21-13.18-1.75S297,233,299.91,224.59s17.47-46,17.47-46,12.69-26.78,21.18-24.08S350.09,168.54,342.51,185.93Z" style="fill:#ffbe9d"></path><path d="M344.25,154.88s6.93,7.62,7.09,16.14-17.42,41.19-17.42,41.19l-28.79-15.46S328.18,143.31,344.25,154.88Z" style="fill:#DE9EA5"></path><path d="M314.6,288.79l3.33,14.64-2.54,13s-3.66.11-2.95-2.6c0,0-1.91,1.41-2.87.66a4.2,4.2,0,0,1-1.28-2.11s-1.25,1.84-2.75.77-1.44-1.84-1.43-2.15-1.19.05-2.21-.8a1.86,1.86,0,0,1-.6-2s-2-.19-2.43-.87a5.51,5.51,0,0,1-.48-2.12s-.16-3.52.35-3.92,1.53-.1,1.53-.1l.22-2.52s-.95-3.89-.74-5.39S302,285.5,302,285.5Z" style="fill:#ffbe9d"></path><path d="M317,309c-.13-.12-1.31.93-2.63,2.36s-2.27,2.69-2.13,2.82,1.32-.93,2.63-2.36S317.12,309.08,317,309Z" style="fill:#eb996e"></path><path d="M313.07,307c-.17-.1-1.18,1.34-2.63,2.91s-2.8,2.72-2.68,2.88,1.67-.78,3.18-2.42S313.23,307,313.07,307Z" style="fill:#eb996e"></path><path d="M309,306.34c-.15-.11-1.22,1.07-2.61,2.44s-2.57,2.43-2.45,2.59,1.51-.69,2.93-2.11S309.17,306.45,309,306.34Z" style="fill:#eb996e"></path><path d="M306.28,303.41c-.15-.12-1.22,1.06-2.6,2.43s-2.58,2.44-2.46,2.6,1.51-.7,2.93-2.11S306.43,303.51,306.28,303.41Z" style="fill:#eb996e"></path><path d="M300.77,305.22c.19,0,.39-1,.25-2.26s-.57-2.19-.74-2.14-.06,1,.07,2.22S300.58,305.21,300.77,305.22Z" style="fill:#eb996e"></path><path d="M349.85,180.51a5.73,5.73,0,0,1-.27.64c-.21.46-.49,1-.84,1.79l-3.21,6.57-10.75,21.57-.63,1.25-.12.24-.24-.13-20.36-11L307.32,198l-1.64-.94a4,4,0,0,1-.55-.35,2.83,2.83,0,0,1,.6.26l1.69.86,6.18,3.22L334,212l-.36.12c.2-.4.42-.83.63-1.26l10.89-21.5c1.4-2.7,2.53-4.9,3.35-6.49l.94-1.75A2.83,2.83,0,0,1,349.85,180.51Z" style="fill:#263238"></path><path d="M300.49,298.67l-7.26-3.21a1.92,1.92,0,0,0-2.52.93h0a1.94,1.94,0,0,0,1,2.6l9.36,4.07Z" style="fill:#263238"></path><path d="M492.73,412.22a5.79,5.79,0,0,1-.54.67c-.37.43-.94,1.05-1.69,1.81a29.88,29.88,0,0,1-2.94,2.6,16,16,0,0,1-4.56,2.52,8.83,8.83,0,0,1-6.28-.21c-2.13-.94-3.9-2.67-6-4a8.19,8.19,0,0,0-3.48-1.41,7.26,7.26,0,0,0-3.8.7c-2.46,1.14-4.52,3.19-6.95,4.87a10.33,10.33,0,0,1-4,1.86,6,6,0,0,1-2.2,0,5.56,5.56,0,0,1-2-.73c-2.48-1.46-4-3.79-6.1-5.12a5.86,5.86,0,0,0-3.37-1,8.1,8.1,0,0,0-3.24.93,27.73,27.73,0,0,0-5,3.72,13.52,13.52,0,0,1-4.46,2.69,6.93,6.93,0,0,1-3.93.06,4.45,4.45,0,0,1-2.11-1.32,3.08,3.08,0,0,1-.37-.52.92.92,0,0,1-.1-.2s.16.26.55.65a4.41,4.41,0,0,0,2.09,1.19,6.84,6.84,0,0,0,3.78-.13,13.5,13.5,0,0,0,4.31-2.7,27.86,27.86,0,0,1,5-3.82,8.46,8.46,0,0,1,3.42-1,6.35,6.35,0,0,1,3.65,1c2.21,1.4,3.75,3.73,6.09,5.07a5,5,0,0,0,1.87.67,5.49,5.49,0,0,0,2,0,10.13,10.13,0,0,0,3.8-1.77c2.38-1.65,4.44-3.72,7-4.92a7.71,7.71,0,0,1,4.08-.72,8.55,8.55,0,0,1,3.67,1.5c2.14,1.42,3.87,3.14,5.91,4a8.35,8.35,0,0,0,6,.26,16.18,16.18,0,0,0,4.5-2.4,34.21,34.21,0,0,0,3-2.51c.77-.74,1.35-1.33,1.75-1.74A6.26,6.26,0,0,1,492.73,412.22Z" style="fill:#e0e0e0"></path></g><g id="freepik--Ball--inject-4"><path d="M552.87,443.93a39.45,39.45,0,1,1-77.32-15.74c4.35-21.35,25.33-35.84,46.53-30.79C542.89,402.35,557.22,422.57,552.87,443.93Z" style="fill:#DE9EA5"></path><path d="M479,426a1.91,1.91,0,0,1,.07-.43c.07-.33.16-.72.27-1.2a11.12,11.12,0,0,1,.61-1.87c.13-.36.28-.74.43-1.14s.39-.8.61-1.23a32.34,32.34,0,0,1,3.65-5.67,48.58,48.58,0,0,1,5.71-6,57.74,57.74,0,0,1,6.64-4.92,45.11,45.11,0,0,1,6-3.11l1.26-.53,1.16-.39a16.12,16.12,0,0,1,1.87-.57l1.2-.28a1.38,1.38,0,0,1,.43-.07,1.82,1.82,0,0,1-.41.15l-1.17.37a17.66,17.66,0,0,0-1.84.63l-1.13.43-1.25.55a50.36,50.36,0,0,0-5.88,3.17,59.46,59.46,0,0,0-6.56,4.91A51,51,0,0,0,485,414.7a34.08,34.08,0,0,0-3.69,5.55A34.81,34.81,0,0,0,479,426Z" style="fill:#fff"></path><path d="M477.41,432.38c-.12,0-.15-.75-.06-1.66s.26-1.63.38-1.62.15.76.07,1.67S477.54,432.4,477.41,432.38Z" style="fill:#fff"></path><path d="M518.65,465.71a2,2,0,0,1,.25-.37l.79-1,.58-.71c.2-.27.4-.58.63-.9a24.5,24.5,0,0,0,1.46-2.22c.25-.43.51-.87.79-1.33s.49-1,.76-1.5c.55-1,1-2.18,1.48-3.38a38.88,38.88,0,0,0,2.38-16.64c-.14-1.29-.24-2.53-.48-3.66-.11-.57-.18-1.12-.31-1.65l-.38-1.5a26,26,0,0,0-.78-2.54c-.13-.37-.23-.72-.35-1l-.36-.85-.48-1.18a2.22,2.22,0,0,1-.14-.43,1.64,1.64,0,0,1,.22.39l.56,1.15c.12.26.25.54.4.84s.24.66.38,1a21.51,21.51,0,0,1,.85,2.54c.14.48.27,1,.42,1.5s.22,1.09.34,1.66a35.46,35.46,0,0,1,.52,3.7,40.79,40.79,0,0,1-.24,8.55,41.25,41.25,0,0,1-2.16,8.27c-.52,1.21-1,2.38-1.54,3.4-.27.52-.51,1-.79,1.5l-.82,1.33a25.74,25.74,0,0,1-1.53,2.2c-.23.32-.44.62-.66.88l-.61.69-.86.95A2,2,0,0,1,518.65,465.71Z" style="fill:#263238"></path><path d="M550.08,425.94c-.06.07-1.18-.83-3.2-1.9a25.08,25.08,0,0,0-3.68-1.6,28.47,28.47,0,0,0-4.77-1.16,28.84,28.84,0,0,0-4.91-.23,25.94,25.94,0,0,0-4,.5c-2.24.47-3.57,1-3.6.93a4,4,0,0,1,.91-.42,9.28,9.28,0,0,1,1.12-.4,14.85,14.85,0,0,1,1.5-.42,22.36,22.36,0,0,1,4-.6,26.76,26.76,0,0,1,5,.2,26.25,26.25,0,0,1,4.85,1.21,23.1,23.1,0,0,1,3.7,1.71c.51.27.94.57,1.32.82a9.32,9.32,0,0,1,1,.7A3.84,3.84,0,0,1,550.08,425.94Z" style="fill:#263238"></path><path d="M521.63,401.29a3.21,3.21,0,0,1,.41.64,17.43,17.43,0,0,1,.89,1.88,22.56,22.56,0,0,1,1,13.46,14.46,14.46,0,0,1-.59,2,2.44,2.44,0,0,1-.31.7c-.07,0,.27-1,.59-2.75a25.19,25.19,0,0,0-1-13.29C522.05,402.29,521.56,401.33,521.63,401.29Z" style="fill:#263238"></path><path d="M487.44,432.87a7.23,7.23,0,0,1,.9-1.12,12.15,12.15,0,0,1,1.15-1.23,21.53,21.53,0,0,1,1.65-1.51l1-.83c.35-.28.75-.54,1.14-.83.78-.59,1.69-1.1,2.63-1.67a32.73,32.73,0,0,1,13.54-4.14,30.12,30.12,0,0,1,3.11-.07c.49,0,1,0,1.41,0l1.3.13a21.65,21.65,0,0,1,2.21.34,12.4,12.4,0,0,1,1.64.37,9.82,9.82,0,0,1,1.37.42c0,.11-2-.51-5.25-.81l-1.29-.1c-.44,0-.91,0-1.39,0a29.89,29.89,0,0,0-3.07.12,36.34,36.34,0,0,0-6.91,1.34,36,36,0,0,0-6.47,2.74c-.93.55-1.84,1-2.62,1.62-.39.28-.79.52-1.14.8l-1,.8C488.8,431.33,487.52,432.94,487.44,432.87Z" style="fill:#263238"></path><path d="M510.88,443.37c-.05-.06,1-.83,2.44-2.27a31.45,31.45,0,0,0,4.91-6.3,30.88,30.88,0,0,0,3.12-7.36c.54-2,.72-3.25.8-3.24a3.61,3.61,0,0,1,0,.9,21.91,21.91,0,0,1-.44,2.42,27.64,27.64,0,0,1-8.12,13.81,22.49,22.49,0,0,1-1.9,1.56A3.52,3.52,0,0,1,510.88,443.37Z" style="fill:#263238"></path><path d="M530.75,413.18c.08.11-1.76,1.47-3.59,3.59s-2.95,4.11-3.07,4.05a13.15,13.15,0,0,1,2.73-4.35A12.84,12.84,0,0,1,530.75,413.18Z" style="fill:#263238"></path><path d="M532.5,428.69a28.32,28.32,0,0,0-3.32-3.07,27.24,27.24,0,0,0-4-2.09,8.32,8.32,0,0,1,4.27,1.73A8.4,8.4,0,0,1,532.5,428.69Z" style="fill:#263238"></path><path d="M509.87,407.94a2.48,2.48,0,0,1,.65.31c.4.22,1,.57,1.65,1a29.22,29.22,0,0,1,4.82,4.28,28.9,28.9,0,0,1,3.74,5.24c.39.73.69,1.33.86,1.75a2.29,2.29,0,0,1,.24.68c-.07,0-.52-.88-1.38-2.27a35.69,35.69,0,0,0-3.8-5.1,36.56,36.56,0,0,0-4.67-4.32A25.19,25.19,0,0,1,509.87,407.94Z" style="fill:#263238"></path><path d="M522.63,420.3a2.53,2.53,0,1,0,.07,0" style="fill:#fff"></path></g><g id="freepik--Floor--inject-4"><path d="M699.45,474.42c0,.14-143.51.26-320.5.26s-320.54-.12-320.54-.26,143.49-.26,320.54-.26S699.45,474.27,699.45,474.42Z" style="fill:#263238"></path></g></svg>